<svg width="123" height="73" viewBox="0 0 123 73" fill="none" xmlns="http://www.w3.org/2000/svg">
<g clip-path="url(#clip0_54_522)">
<path fill-rule="evenodd" clip-rule="evenodd" d="M60.4199 49.2573C58.1165 49.0801 55.6359 48.7257 53.5097 48.1942C53.1553 48.017 51.5607 47.4855 51.2063 47.3083C44.1189 43.9418 39.1578 36.8544 39.1578 28.3495C39.1578 16.8325 48.5485 7.61893 59.8883 7.61893C71.2281 7.61893 80.4417 16.8325 80.6189 28.1723H88.0607C88.0607 12.5801 75.3034 0 59.8883 0C44.2961 0 31.5388 12.7573 31.5388 28.3495C31.5388 39.1578 37.5631 48.5486 46.4223 53.3325C48.017 54.2185 50.3204 55.1044 51.0291 55.2816C53.5097 55.9903 56.699 56.5219 59.3568 56.699C60.2427 56.699 63.6092 56.8762 64.4951 56.8762H121.903V49.4345H64.8495C64.1408 49.2573 61.1286 49.2573 60.4199 49.2573ZM64.8495 37.5631C64.318 37.5631 61.483 37.5631 60.9515 37.5631C60.0655 37.5631 58.8252 37.3859 57.9393 37.2087C57.0534 37.0316 56.1675 36.6772 55.6359 36.3228C52.801 34.7282 51.0291 31.8932 51.0291 28.5267C51.0291 23.5655 55.1044 19.4903 60.0655 19.4903C64.8495 19.4903 68.9248 23.3884 68.9248 28.1723H76.1893C76.0121 19.3131 68.9248 12.2257 60.0655 12.2257C51.2063 12.2257 43.9417 19.4903 43.9417 28.3495C43.9417 34.7282 47.4854 40.0437 52.801 42.7015C53.6869 43.233 55.1044 43.5874 55.6359 43.7646C57.0534 44.1189 59.1796 44.4733 60.7743 44.4733C61.3058 44.4733 64.318 44.4733 64.8495 44.4733H122.434V37.2087H64.8495V37.5631ZM26.932 56.699H19.3131V7.61893H8.32767V0H26.932V56.699ZM0 11.3398V18.6044H8.32767V56.699H15.5922V11.3398H0Z" fill="#D20A11"/>
<path fill-rule="evenodd" clip-rule="evenodd" d="M103.121 0.531738C100.463 0.531738 98.1601 2.65795 98.1601 5.4929C98.1601 8.15067 100.463 10.4541 103.121 10.4541C105.956 10.4541 108.082 8.15067 108.082 5.4929C108.082 2.65795 105.956 0.531738 103.121 0.531738ZM103.121 9.56815C100.818 9.56815 98.8688 7.7963 98.8688 5.31572C98.8688 3.01232 100.818 1.24048 103.121 1.24048C105.425 1.24048 107.374 3.01232 107.374 5.31572C107.196 7.7963 105.247 9.56815 103.121 9.56815Z" fill="#D20A11"/>
<path fill-rule="evenodd" clip-rule="evenodd" d="M104.893 6.73308C104.893 6.20153 104.893 5.66997 104.184 5.49279C104.893 5.13842 105.07 4.78405 105.07 4.42968C105.07 3.18939 104.007 3.01221 103.476 3.01221H101.349V7.97337H102.235V5.84716H102.944C104.007 5.84716 104.007 6.37871 104.007 6.73308C104.007 7.619 104.007 7.79619 104.184 7.79619H105.07C104.893 7.619 105.07 7.44182 104.893 6.73308ZM103.298 5.13842H102.235V3.54376H103.121C103.83 3.54376 104.184 3.72094 104.184 4.2525C104.184 4.78405 104.007 5.13842 103.298 5.13842Z" fill="#D20A11"/>
<path d="M9.7456 65.7356H8.32812V63.6094H12.049V72.823H9.7456V65.7356Z" fill="#D20A11"/>
<path d="M20.3767 72.2913C19.4907 72.8229 18.782 73.0001 17.8961 73.0001C15.2383 73.0001 13.2893 71.0511 13.2893 68.2161C13.2893 65.204 15.4155 63.4321 17.8961 63.4321C18.782 63.4321 19.6679 63.6093 20.3767 64.1409V66.7986C19.8451 66.2671 19.1364 65.7355 18.2504 65.7355C16.833 65.5583 15.947 66.7986 15.947 68.2161C15.947 69.6336 16.833 70.6967 18.2504 70.6967C19.1364 70.6967 19.8451 70.1651 20.3767 69.6336V72.2913Z" fill="#D20A11"/>
<path d="M22.6797 66.2671C23.3885 66.2671 23.92 66.7986 23.92 67.6846C23.92 68.3933 23.3885 69.102 22.6797 69.102C21.971 69.102 21.4395 68.5705 21.4395 67.6846C21.4395 66.7986 21.971 66.2671 22.6797 66.2671ZM22.6797 70.3423C23.3885 70.3423 23.92 70.8739 23.92 71.7598C23.92 72.4685 23.3885 73.1773 22.6797 73.1773C21.971 73.1773 21.4395 72.6457 21.4395 71.7598C21.4395 70.8739 21.971 70.3423 22.6797 70.3423Z" fill="#D20A11"/>
<path d="M29.2368 71.4057C27.6421 71.4057 24.9844 70.8742 24.9844 67.6849C24.9844 64.4955 27.6421 63.964 29.2368 63.964V62.9009H31.7174V63.964C33.312 63.964 35.9698 64.4955 35.9698 67.6849C35.9698 70.8742 33.312 71.4057 31.7174 71.4057V72.646H29.2368V71.4057ZM29.414 65.913C28.7052 65.913 27.465 66.0902 27.465 67.6849C27.465 69.2795 28.7052 69.4567 29.414 69.4567V65.913ZM31.5402 69.6339C32.2489 69.6339 33.4892 69.4567 33.4892 67.862C33.4892 66.2674 32.2489 66.0902 31.5402 66.0902V69.6339Z" fill="#D20A11"/>
<path d="M36.8555 63.6094H40.5763C43.2341 63.6094 43.9428 65.3812 43.9428 66.6215C43.9428 67.8618 43.2341 69.6336 40.5763 69.6336H39.3361V72.6458H36.8555V63.6094ZM39.3361 67.6846H40.0448C41.1079 67.6846 41.2851 66.9759 41.2851 66.6215C41.2851 66.09 41.1079 65.5584 40.0448 65.5584H39.3361V67.6846Z" fill="#D20A11"/>
<path d="M46.4237 63.6094H49.4358L52.6251 72.823H49.9674L49.4358 71.2283H46.4237L45.8921 72.823H43.2344L46.4237 63.6094ZM46.9552 69.1021H49.0815L47.8412 65.7356L46.9552 69.1021Z" fill="#D20A11"/>
<path d="M53.332 63.6094H55.8126V66.9759H58.8247V63.6094H61.3053V72.823H58.8247V69.1021H55.8126V72.823H53.332V63.6094Z" fill="#D20A11"/>
<path d="M67.3303 69.1021C66.4444 69.2793 66.2672 69.2793 65.5585 69.2793C62.5463 69.2793 62.3691 67.6846 62.3691 66.2671V63.6094H64.8497V65.9128C64.8497 66.6215 64.8497 67.3302 66.2672 67.3302C66.4444 67.3302 66.7988 67.3303 67.1531 67.1531V63.6094H69.6337V72.823H67.3303V69.1021Z" fill="#D20A11"/>
<path d="M73.7088 63.6094H76.721L79.9103 72.823H77.2525L76.721 71.2283H73.7088L73.1773 72.823H70.5195L73.7088 63.6094ZM74.2404 69.1021H76.1894L75.1263 65.7356L74.2404 69.1021Z" fill="#D20A11"/>
<path d="M82.922 63.6095V69.1022L86.4657 63.6095H88.9463V72.8231H86.4657V67.3304L82.922 72.8231H80.4414V63.6095H82.922ZM87.3516 61.6605C86.82 62.7236 85.7569 63.0779 84.6938 63.0779C83.6307 63.0779 82.3904 62.7236 82.0361 61.6605L83.4535 61.1289C83.6307 61.8376 84.3395 61.8376 84.6938 61.8376C85.2254 61.8376 85.7569 61.6605 85.9341 61.1289L87.3516 61.6605Z" fill="#D20A11"/>
<path d="M90.0106 64.1408C90.365 63.9636 91.6053 63.2549 93.0228 63.2549C94.9718 63.2549 96.5664 64.318 96.5664 65.9126C96.5664 66.7986 96.0349 67.6845 95.149 68.0389C95.8577 68.216 96.7436 68.7476 96.7436 70.1651C96.7436 71.9369 95.149 73 93.1999 73C91.9596 73 91.0737 72.8228 89.6562 71.5826L90.7194 69.8107C91.4281 70.3423 92.314 70.8738 92.8456 70.8738C93.9087 70.8738 94.2631 70.1651 94.2631 69.8107C94.2631 69.2792 93.9087 68.9248 92.8456 68.9248H91.4281V67.1529H92.8456C93.9087 67.1529 94.2631 66.6214 94.2631 66.267C94.2631 65.7355 93.7315 65.3811 93.0228 65.3811C92.314 65.3811 91.7825 65.5583 91.2509 66.0898L90.0106 64.1408Z" fill="#D20A11"/>
<path d="M100.11 63.6094V69.1021L103.653 63.6094H106.134V72.823H103.653V67.3302L100.11 72.823H97.6291V63.6094H100.11Z" fill="#D20A11"/>
<path d="M107.197 63.6094H109.678V66.9759H112.69V63.6094H115.171V72.823H112.69V69.1021H109.678V72.823H107.197V63.6094Z" fill="#D20A11"/>
<path d="M116.588 63.6094H122.081V65.7356H119.246V72.6458H116.765V63.6094H116.588Z" fill="#D20A11"/>
</g>
<defs>
<clipPath id="clip0_54_522">
<rect width="122.08" height="73" fill="white"/>
</clipPath>
</defs>
</svg>
