<svg width="176" height="99" viewBox="0 0 176 99" fill="none" xmlns="http://www.w3.org/2000/svg">
<g clip-path="url(#clip0_24_375)">
<path d="M21.835 57.5142L26.7399 49.6426C26.7399 49.6426 29.1528 48.8119 29.9043 49.5635C30.5966 50.2557 29.7857 52.7279 29.7857 52.7279L21.835 57.5142Z" fill="url(#paint0_linear_24_375)"/>
<path d="M57.8305 21.459L52.9255 29.3306C52.9255 29.3306 50.5126 30.1612 49.7611 29.4097C49.0689 28.7175 49.8798 26.2452 49.8798 26.2452L57.8305 21.459Z" fill="url(#paint1_linear_24_375)"/>
<path fill-rule="evenodd" clip-rule="evenodd" d="M32.1786 47.2493C25.0981 40.1688 0 39.4964 0 39.4964C0 39.4964 25.0388 38.903 32.1786 31.7632C39.2986 24.6234 39.9117 0 39.9117 0C39.9117 0 40.4457 24.5443 47.6646 31.7632C54.8638 38.9624 119.458 39.4964 119.458 39.4964C119.458 39.4964 54.7847 40.1095 47.6646 47.2493C40.5248 54.3693 39.9117 79.2696 39.9117 79.2696C39.9117 79.2696 39.2393 54.31 32.1786 47.2493ZM25.6717 39.5953C39.2195 39.5953 39.8524 48.9898 39.8524 56.6438C39.8524 42.6411 43.096 39.8129 63.5067 39.6744C48.2778 39.6744 40.7029 37.4593 39.9315 27.0561C39.9513 25.9288 39.8524 25.197 39.8524 25.197C39.8524 25.8497 39.892 26.4628 39.9315 27.0561C39.8326 30.9326 38.2108 39.5953 25.6717 39.5953Z" fill="url(#paint2_linear_24_375)"/>
<path d="M66.21 96C66.1293 96 66.067 95.978 66.023 95.934C65.979 95.8827 65.957 95.8203 65.957 95.747V88.564C65.957 88.4833 65.979 88.421 66.023 88.377C66.067 88.3257 66.1293 88.3 66.21 88.3H70.445C70.5257 88.3 70.588 88.3257 70.632 88.377C70.6833 88.421 70.709 88.4833 70.709 88.564V89.004C70.709 89.0773 70.6833 89.1397 70.632 89.191C70.588 89.235 70.5257 89.257 70.445 89.257H67.035V95.747C67.035 95.8203 67.0093 95.8827 66.958 95.934C66.914 95.978 66.8517 96 66.771 96H66.21ZM70.912 98.09C70.8387 98.09 70.7763 98.0643 70.725 98.013C70.681 97.969 70.659 97.9103 70.659 97.837V90.533C70.659 90.4597 70.681 90.401 70.725 90.357C70.7763 90.3057 70.8387 90.28 70.912 90.28H71.418C71.4913 90.28 71.55 90.3057 71.594 90.357C71.6453 90.401 71.671 90.4597 71.671 90.533V91.017C71.847 90.775 72.0817 90.5733 72.375 90.412C72.6683 90.2507 73.035 90.17 73.475 90.17C73.8857 90.17 74.234 90.2397 74.52 90.379C74.8133 90.5183 75.0517 90.709 75.235 90.951C75.4257 91.193 75.5687 91.468 75.664 91.776C75.7593 92.084 75.8107 92.414 75.818 92.766C75.8253 92.8833 75.829 93.008 75.829 93.14C75.829 93.272 75.8253 93.3967 75.818 93.514C75.8107 93.8587 75.7593 94.1887 75.664 94.504C75.5687 94.812 75.4257 95.087 75.235 95.329C75.0517 95.5637 74.8133 95.7543 74.52 95.901C74.234 96.0403 73.8857 96.11 73.475 96.11C73.0497 96.11 72.6903 96.033 72.397 95.879C72.111 95.7177 71.8763 95.5197 71.693 95.285V97.837C71.693 97.9103 71.671 97.969 71.627 98.013C71.583 98.0643 71.5207 98.09 71.44 98.09H70.912ZM73.244 95.219C73.6253 95.219 73.9223 95.1383 74.135 94.977C74.355 94.8083 74.5127 94.592 74.608 94.328C74.7033 94.0567 74.7583 93.767 74.773 93.459C74.7803 93.2463 74.7803 93.0337 74.773 92.821C74.7583 92.513 74.7033 92.227 74.608 91.963C74.5127 91.6917 74.355 91.4753 74.135 91.314C73.9223 91.1453 73.6253 91.061 73.244 91.061C72.8847 91.061 72.5913 91.1453 72.364 91.314C72.144 91.4827 71.979 91.699 71.869 91.963C71.7663 92.2197 71.7077 92.4837 71.693 92.755C71.6857 92.8723 71.682 93.0117 71.682 93.173C71.682 93.3343 71.6857 93.4773 71.693 93.602C71.7003 93.8587 71.759 94.1117 71.869 94.361C71.9863 94.6103 72.1587 94.8157 72.386 94.977C72.6133 95.1383 72.8993 95.219 73.244 95.219ZM77.2499 98.09C77.1692 98.09 77.1069 98.0643 77.0629 98.013C77.0189 97.969 76.9969 97.9103 76.9969 97.837V97.463C76.9969 97.3897 77.0189 97.3273 77.0629 97.276C77.1069 97.232 77.1692 97.21 77.2499 97.21H77.5359C77.7045 97.21 77.8402 97.177 77.9429 97.111C78.0455 97.045 78.1372 96.9313 78.2179 96.77C78.3059 96.616 78.4085 96.4033 78.5259 96.132L80.9129 90.467C80.9349 90.4083 80.9642 90.3643 81.0009 90.335C81.0449 90.2983 81.1072 90.28 81.1879 90.28H81.6719C81.7379 90.28 81.7929 90.302 81.8369 90.346C81.8809 90.39 81.9029 90.4413 81.9029 90.5C81.9029 90.5293 81.8992 90.5587 81.8919 90.588C81.8845 90.61 81.8699 90.6467 81.8479 90.698L79.7579 95.648C79.6479 95.912 79.5269 96.187 79.3949 96.473C79.2702 96.759 79.1272 97.023 78.9659 97.265C78.8119 97.5143 78.6285 97.7123 78.4159 97.859C78.2032 98.013 77.9539 98.09 77.6679 98.09H77.2499ZM78.7789 95.835L76.5569 90.698C76.5202 90.61 76.5019 90.5477 76.5019 90.511C76.5092 90.445 76.5349 90.39 76.5789 90.346C76.6229 90.302 76.6742 90.28 76.7329 90.28H77.2499C77.3305 90.28 77.3892 90.2983 77.4259 90.335C77.4699 90.3717 77.5029 90.4157 77.5249 90.467L79.3509 94.834L78.7789 95.835ZM83.2652 96C83.1919 96 83.1296 95.978 83.0782 95.934C83.0342 95.8827 83.0122 95.8203 83.0122 95.747V90.533C83.0122 90.4597 83.0342 90.401 83.0782 90.357C83.1296 90.3057 83.1919 90.28 83.2652 90.28H87.6322C87.7056 90.28 87.7642 90.3057 87.8082 90.357C87.8596 90.401 87.8852 90.4597 87.8852 90.533V95.747C87.8852 95.8203 87.8596 95.8827 87.8082 95.934C87.7642 95.978 87.7056 96 87.6322 96H87.1042C87.0309 96 86.9722 95.978 86.9282 95.934C86.8842 95.8827 86.8622 95.8203 86.8622 95.747V91.16H84.0352V95.747C84.0352 95.8203 84.0132 95.8827 83.9692 95.934C83.9252 95.978 83.8666 96 83.7932 96H83.2652ZM89.775 96C89.7017 96 89.6393 95.978 89.588 95.934C89.544 95.8827 89.522 95.8203 89.522 95.747V90.533C89.522 90.4597 89.544 90.401 89.588 90.357C89.6393 90.3057 89.7017 90.28 89.775 90.28H94.142C94.2153 90.28 94.274 90.3057 94.318 90.357C94.3693 90.401 94.395 90.4597 94.395 90.533V95.747C94.395 95.8203 94.3693 95.8827 94.318 95.934C94.274 95.978 94.2153 96 94.142 96H93.614C93.5407 96 93.482 95.978 93.438 95.934C93.394 95.8827 93.372 95.8203 93.372 95.747V91.16H90.545V95.747C90.545 95.8203 90.523 95.8827 90.479 95.934C90.435 95.978 90.3763 96 90.303 96H89.775ZM97.6268 96.11C97.2601 96.11 96.9264 96.0367 96.6258 95.89C96.3251 95.7433 96.0831 95.5453 95.8998 95.296C95.7164 95.0467 95.6248 94.7643 95.6248 94.449C95.6248 93.943 95.8301 93.5397 96.2408 93.239C96.6514 92.9383 97.1868 92.7403 97.8468 92.645L99.4858 92.414V92.095C99.4858 91.743 99.3831 91.468 99.1778 91.27C98.9798 91.072 98.6534 90.973 98.1988 90.973C97.8688 90.973 97.6011 91.039 97.3958 91.171C97.1978 91.303 97.0584 91.4717 96.9778 91.677C96.9338 91.787 96.8568 91.842 96.7468 91.842H96.2518C96.1711 91.842 96.1088 91.82 96.0648 91.776C96.0281 91.7247 96.0098 91.666 96.0098 91.6C96.0098 91.49 96.0501 91.3543 96.1308 91.193C96.2188 91.0317 96.3508 90.874 96.5268 90.72C96.7028 90.566 96.9264 90.4377 97.1978 90.335C97.4764 90.225 97.8138 90.17 98.2098 90.17C98.6498 90.17 99.0201 90.2287 99.3208 90.346C99.6214 90.456 99.8561 90.6063 100.025 90.797C100.201 90.9877 100.325 91.204 100.399 91.446C100.479 91.688 100.52 91.9337 100.52 92.183V95.747C100.52 95.8203 100.494 95.8827 100.443 95.934C100.399 95.978 100.34 96 100.267 96H99.7608C99.6801 96 99.6178 95.978 99.5738 95.934C99.5298 95.8827 99.5078 95.8203 99.5078 95.747V95.274C99.4124 95.406 99.2841 95.538 99.1228 95.67C98.9614 95.7947 98.7598 95.901 98.5178 95.989C98.2758 96.0697 97.9788 96.11 97.6268 96.11ZM97.8578 95.285C98.1584 95.285 98.4334 95.2227 98.6828 95.098C98.9321 94.966 99.1264 94.7643 99.2658 94.493C99.4124 94.2217 99.4858 93.8807 99.4858 93.47V93.162L98.2098 93.349C97.6891 93.4223 97.2968 93.547 97.0328 93.723C96.7688 93.8917 96.6368 94.108 96.6368 94.372C96.6368 94.5773 96.6954 94.7497 96.8128 94.889C96.9374 95.021 97.0914 95.12 97.2748 95.186C97.4654 95.252 97.6598 95.285 97.8578 95.285ZM105.05 96C104.977 96 104.915 95.978 104.863 95.934C104.819 95.8827 104.797 95.8203 104.797 95.747V90.533C104.797 90.4597 104.819 90.401 104.863 90.357C104.915 90.3057 104.977 90.28 105.05 90.28H105.567C105.641 90.28 105.699 90.3057 105.743 90.357C105.795 90.401 105.82 90.4597 105.82 90.533V92.645H106.821L108.306 90.445C108.343 90.3937 108.383 90.3533 108.427 90.324C108.471 90.2947 108.53 90.28 108.603 90.28H109.175C109.241 90.28 109.296 90.2947 109.34 90.324C109.384 90.3533 109.406 90.3973 109.406 90.456C109.406 90.4707 109.399 90.4927 109.384 90.522C109.377 90.544 109.366 90.566 109.351 90.588L107.701 93.019L109.571 95.681C109.608 95.725 109.626 95.7727 109.626 95.824C109.626 95.8827 109.604 95.9267 109.56 95.956C109.524 95.9853 109.472 96 109.406 96H108.735C108.669 96 108.614 95.9853 108.57 95.956C108.526 95.9267 108.486 95.8863 108.449 95.835L106.832 93.536H105.82V95.747C105.82 95.8203 105.795 95.8827 105.743 95.934C105.699 95.978 105.641 96 105.567 96H105.05ZM112.769 96.11C112.212 96.11 111.746 96.0037 111.372 95.791C110.998 95.5783 110.712 95.285 110.514 94.911C110.316 94.5297 110.206 94.097 110.184 93.613C110.177 93.4883 110.173 93.3307 110.173 93.14C110.173 92.942 110.177 92.7843 110.184 92.667C110.206 92.1757 110.316 91.743 110.514 91.369C110.72 90.995 111.009 90.7017 111.383 90.489C111.757 90.2763 112.219 90.17 112.769 90.17C113.319 90.17 113.781 90.2763 114.155 90.489C114.529 90.7017 114.815 90.995 115.013 91.369C115.219 91.743 115.332 92.1757 115.354 92.667C115.362 92.7843 115.365 92.942 115.365 93.14C115.365 93.3307 115.362 93.4883 115.354 93.613C115.332 94.097 115.222 94.5297 115.024 94.911C114.826 95.285 114.54 95.5783 114.166 95.791C113.792 96.0037 113.327 96.11 112.769 96.11ZM112.769 95.263C113.224 95.263 113.587 95.12 113.858 94.834C114.13 94.5407 114.276 94.1153 114.298 93.558C114.306 93.448 114.309 93.3087 114.309 93.14C114.309 92.9713 114.306 92.832 114.298 92.722C114.276 92.1647 114.13 91.743 113.858 91.457C113.587 91.1637 113.224 91.017 112.769 91.017C112.315 91.017 111.948 91.1637 111.669 91.457C111.398 91.743 111.255 92.1647 111.24 92.722C111.233 92.832 111.229 92.9713 111.229 93.14C111.229 93.3087 111.233 93.448 111.24 93.558C111.255 94.1153 111.398 94.5407 111.669 94.834C111.948 95.12 112.315 95.263 112.769 95.263ZM116.985 96C116.911 96 116.853 95.978 116.809 95.934C116.765 95.89 116.743 95.8313 116.743 95.758V90.489C116.743 90.4303 116.765 90.3827 116.809 90.346C116.86 90.302 116.911 90.28 116.963 90.28H117.524C117.641 90.28 117.733 90.3387 117.799 90.456L119.669 93.954L121.55 90.456C121.616 90.3387 121.707 90.28 121.825 90.28H122.375C122.433 90.28 122.485 90.302 122.529 90.346C122.573 90.3827 122.595 90.4303 122.595 90.489V95.758C122.595 95.8313 122.573 95.89 122.529 95.934C122.485 95.978 122.43 96 122.364 96H121.825C121.751 96 121.693 95.978 121.649 95.934C121.605 95.89 121.583 95.8313 121.583 95.758V91.369L121.968 91.413L120.175 94.801C120.138 94.8743 120.094 94.9403 120.043 94.999C119.991 95.0577 119.914 95.087 119.812 95.087H119.526C119.43 95.087 119.357 95.0577 119.306 94.999C119.254 94.9403 119.207 94.8743 119.163 94.801L117.425 91.578L117.766 91.545V95.758C117.766 95.8313 117.744 95.89 117.7 95.934C117.656 95.978 117.597 96 117.524 96H116.985ZM124.494 96C124.42 96 124.358 95.978 124.307 95.934C124.263 95.8827 124.241 95.8203 124.241 95.747V90.533C124.241 90.4597 124.263 90.401 124.307 90.357C124.358 90.3057 124.42 90.28 124.494 90.28H128.861C128.934 90.28 128.993 90.3057 129.037 90.357C129.088 90.401 129.114 90.4597 129.114 90.533V95.747C129.114 95.8203 129.088 95.8827 129.037 95.934C128.993 95.978 128.934 96 128.861 96H128.333C128.259 96 128.201 95.978 128.157 95.934C128.113 95.8827 128.091 95.8203 128.091 95.747V91.16H125.264V95.747C125.264 95.8203 125.242 95.8827 125.198 95.934C125.154 95.978 125.095 96 125.022 96H124.494ZM132.346 96.11C131.979 96.11 131.645 96.0367 131.345 95.89C131.044 95.7433 130.802 95.5453 130.619 95.296C130.435 95.0467 130.344 94.7643 130.344 94.449C130.344 93.943 130.549 93.5397 130.96 93.239C131.37 92.9383 131.906 92.7403 132.566 92.645L134.205 92.414V92.095C134.205 91.743 134.102 91.468 133.897 91.27C133.699 91.072 133.372 90.973 132.918 90.973C132.588 90.973 132.32 91.039 132.115 91.171C131.917 91.303 131.777 91.4717 131.697 91.677C131.653 91.787 131.576 91.842 131.466 91.842H130.971C130.89 91.842 130.828 91.82 130.784 91.776C130.747 91.7247 130.729 91.666 130.729 91.6C130.729 91.49 130.769 91.3543 130.85 91.193C130.938 91.0317 131.07 90.874 131.246 90.72C131.422 90.566 131.645 90.4377 131.917 90.335C132.195 90.225 132.533 90.17 132.929 90.17C133.369 90.17 133.739 90.2287 134.04 90.346C134.34 90.456 134.575 90.6063 134.744 90.797C134.92 90.9877 135.044 91.204 135.118 91.446C135.198 91.688 135.239 91.9337 135.239 92.183V95.747C135.239 95.8203 135.213 95.8827 135.162 95.934C135.118 95.978 135.059 96 134.986 96H134.48C134.399 96 134.337 95.978 134.293 95.934C134.249 95.8827 134.227 95.8203 134.227 95.747V95.274C134.131 95.406 134.003 95.538 133.842 95.67C133.68 95.7947 133.479 95.901 133.237 95.989C132.995 96.0697 132.698 96.11 132.346 96.11ZM132.577 95.285C132.877 95.285 133.152 95.2227 133.402 95.098C133.651 94.966 133.845 94.7643 133.985 94.493C134.131 94.2217 134.205 93.8807 134.205 93.47V93.162L132.929 93.349C132.408 93.4223 132.016 93.547 131.752 93.723C131.488 93.8917 131.356 94.108 131.356 94.372C131.356 94.5773 131.414 94.7497 131.532 94.889C131.656 95.021 131.81 95.12 131.994 95.186C132.184 95.252 132.379 95.285 132.577 95.285ZM137.073 96C137 96 136.937 95.978 136.886 95.934C136.842 95.8827 136.82 95.8203 136.82 95.747V90.533C136.82 90.4597 136.842 90.401 136.886 90.357C136.937 90.3057 137 90.28 137.073 90.28H137.601C137.674 90.28 137.733 90.3057 137.777 90.357C137.821 90.401 137.843 90.4597 137.843 90.533V92.645H140.846V90.533C140.846 90.4597 140.868 90.401 140.912 90.357C140.963 90.3057 141.026 90.28 141.099 90.28H141.616C141.689 90.28 141.748 90.3057 141.792 90.357C141.843 90.401 141.869 90.4597 141.869 90.533V95.747C141.869 95.8203 141.843 95.8827 141.792 95.934C141.748 95.978 141.689 96 141.616 96H141.099C141.026 96 140.963 95.978 140.912 95.934C140.868 95.8827 140.846 95.8203 140.846 95.747V93.525H137.843V95.747C137.843 95.8203 137.821 95.8827 137.777 95.934C137.733 95.978 137.674 96 137.601 96H137.073ZM143.765 96C143.699 96 143.64 95.978 143.589 95.934C143.545 95.8827 143.523 95.8277 143.523 95.769V90.533C143.523 90.4597 143.545 90.401 143.589 90.357C143.64 90.3057 143.703 90.28 143.776 90.28H144.304C144.377 90.28 144.436 90.3057 144.48 90.357C144.524 90.401 144.546 90.4597 144.546 90.533V95.197L144.26 94.9L147.593 90.445C147.63 90.401 147.67 90.3643 147.714 90.335C147.758 90.2983 147.813 90.28 147.879 90.28H148.385C148.444 90.28 148.495 90.302 148.539 90.346C148.59 90.39 148.616 90.4413 148.616 90.5V95.747C148.616 95.8203 148.59 95.8827 148.539 95.934C148.495 95.978 148.436 96 148.363 96H147.846C147.765 96 147.703 95.978 147.659 95.934C147.615 95.8827 147.593 95.8203 147.593 95.747V91.358L147.901 91.347L144.546 95.835C144.517 95.8717 144.48 95.9083 144.436 95.945C144.392 95.9817 144.333 96 144.26 96H143.765ZM150.468 96C150.402 96 150.343 95.978 150.292 95.934C150.248 95.8827 150.226 95.8277 150.226 95.769V90.533C150.226 90.4597 150.248 90.401 150.292 90.357C150.343 90.3057 150.406 90.28 150.479 90.28H151.007C151.08 90.28 151.139 90.3057 151.183 90.357C151.227 90.401 151.249 90.4597 151.249 90.533V95.197L150.963 94.9L154.296 90.445C154.333 90.401 154.373 90.3643 154.417 90.335C154.461 90.2983 154.516 90.28 154.582 90.28H155.088C155.147 90.28 155.198 90.302 155.242 90.346C155.293 90.39 155.319 90.4413 155.319 90.5V95.747C155.319 95.8203 155.293 95.8827 155.242 95.934C155.198 95.978 155.139 96 155.066 96H154.549C154.468 96 154.406 95.978 154.362 95.934C154.318 95.8827 154.296 95.8203 154.296 95.747V91.358L154.604 91.347L151.249 95.835C151.22 95.8717 151.183 95.9083 151.139 95.945C151.095 95.9817 151.036 96 150.963 96H150.468ZM152.8 89.521C152.375 89.521 152.041 89.455 151.799 89.323C151.557 89.191 151.388 89.0223 151.293 88.817C151.198 88.6043 151.15 88.3843 151.15 88.157C151.15 88.0983 151.165 88.0507 151.194 88.014C151.231 87.97 151.286 87.948 151.359 87.948H151.733C151.799 87.948 151.85 87.97 151.887 88.014C151.924 88.0507 151.942 88.0983 151.942 88.157C151.942 88.3257 151.997 88.4833 152.107 88.63C152.224 88.7693 152.455 88.839 152.8 88.839C153.152 88.839 153.383 88.7693 153.493 88.63C153.603 88.4833 153.658 88.3257 153.658 88.157C153.658 88.0983 153.676 88.0507 153.713 88.014C153.75 87.97 153.801 87.948 153.867 87.948H154.252C154.318 87.948 154.369 87.97 154.406 88.014C154.443 88.0507 154.461 88.0983 154.461 88.157C154.461 88.3843 154.41 88.6043 154.307 88.817C154.212 89.0223 154.043 89.191 153.801 89.323C153.559 89.455 153.225 89.521 152.8 89.521Z" fill="#353433"/>
<path d="M168.309 61.5883C170.683 61.5883 173.333 62.3992 175.014 64.199L173.392 66.5921C172.186 65.3857 170.327 64.5352 168.448 64.5352C164.848 64.5352 162.238 67.2646 162.238 70.8839C162.238 74.523 164.848 77.3117 168.567 77.3117C170.544 77.3117 172.7 76.3624 174.085 74.9186L175.469 77.4304C173.847 79.1708 171.118 80.2982 168.329 80.2982C162.673 80.2982 158.757 76.303 158.757 70.9432C158.737 65.6428 162.693 61.5883 168.309 61.5883ZM146.138 61.5883C151.478 61.5883 155.79 65.5043 155.79 70.9037C155.79 76.3426 151.478 80.2982 146.178 80.2982C140.838 80.2982 136.526 76.3426 136.526 70.9037C136.526 65.5043 140.838 61.5883 146.138 61.5883ZM146.178 77.3315C149.54 77.3315 152.329 74.6417 152.329 70.9037C152.329 67.1854 149.54 64.555 146.178 64.555C142.796 64.555 140.027 67.2052 140.027 70.9037C140.027 74.6615 142.776 77.3315 146.178 77.3315ZM116.571 62.0036H119.854V72.6639C119.854 73.6132 119.775 74.8988 119.755 75.057H119.834C119.972 74.7406 120.823 73.5144 121.416 72.6639L129.11 62.0036H132.432V79.8828H129.11V69.2226C129.11 68.3721 129.209 67.1459 129.209 66.8492H129.149C129.05 67.1657 128.16 68.3721 127.587 69.2226L119.854 79.8828H116.571V62.0036ZM95.2896 76.9953C97.9003 76.5997 99.3243 73.989 99.3243 67.5217V62.0036H111.29V79.8828H107.868V64.8319H102.607V67.5217C102.607 75.6108 100.551 79.7839 95.2896 80.0608V76.9953ZM85.3612 61.5883C90.4045 61.5883 93.0943 65.3659 93.0943 69.9543C93.0943 70.4092 93.0152 70.9037 92.9559 71.3981H79.9618C80.1398 75.2548 82.8889 77.3315 86.1127 77.3315C88.0114 77.3315 89.9694 76.5206 91.3736 75.2548L92.8174 77.7666C91.0967 79.3488 88.3674 80.3179 85.8952 80.3179C80.2783 80.3179 76.4018 76.2635 76.4018 70.963C76.4018 65.267 80.2783 61.5883 85.3612 61.5883ZM89.6332 68.9259C89.5343 65.8603 87.6158 64.2385 85.2821 64.2385C82.6318 64.2385 80.5551 65.979 80.0607 68.9259H89.6332ZM65.168 54.9429H78.9136V57.9887H68.6687V79.8828H65.168V54.9429Z" fill="black"/>
</g>
<defs>
<linearGradient id="paint0_linear_24_375" x1="21.8436" y1="53.3869" x2="30.1943" y2="53.3869" gradientUnits="userSpaceOnUse">
<stop stop-color="#E9762C"/>
<stop offset="1" stop-color="#FFCA00"/>
</linearGradient>
<linearGradient id="paint1_linear_24_375" x1="49.4788" y1="25.5876" x2="57.8302" y2="25.5876" gradientUnits="userSpaceOnUse">
<stop stop-color="#E9762C"/>
<stop offset="1" stop-color="#FFCA00"/>
</linearGradient>
<linearGradient id="paint2_linear_24_375" x1="0" y1="39.6359" x2="119.463" y2="39.6359" gradientUnits="userSpaceOnUse">
<stop stop-color="#E9762C"/>
<stop offset="1" stop-color="#FFCA00"/>
</linearGradient>
<clipPath id="clip0_24_375">
<rect width="176" height="99" fill="white"/>
</clipPath>
</defs>
</svg>
