<svg width="113" height="17" viewBox="0 0 113 17" fill="none" xmlns="http://www.w3.org/2000/svg">
<path d="M23.0332 14.8113V3.54297H25.7019L28.66 8.30785L31.6181 3.54297H34.2868V14.8113H31.8271V7.45468L28.66 12.2678H28.5957L25.4608 7.50297V14.8113H23.0332Z" fill="black"/>
<path d="M40.8165 15.0044C39.5089 15.0044 38.4318 14.5913 37.5851 13.7649C36.7384 12.9278 36.3151 11.8439 36.3151 10.5132C36.3151 9.2576 36.717 8.19516 37.5208 7.3259C38.3246 6.45663 39.3428 6.02199 40.5754 6.02199C41.9365 6.02199 42.9761 6.47273 43.6942 7.37419C44.4123 8.27565 44.7713 9.38638 44.7713 10.7064C44.7713 10.8352 44.7606 11.0498 44.7392 11.3503H38.7426C38.8605 11.8976 39.1017 12.3161 39.4661 12.6059C39.8305 12.8957 40.2913 13.0405 40.8487 13.0405C41.6096 13.0405 42.3063 12.7454 42.9386 12.1552L44.3373 13.3947C43.4691 14.4678 42.2956 15.0044 40.8165 15.0044ZM38.7105 9.82102H42.392C42.317 9.26297 42.1187 8.8176 41.7972 8.48492C41.4864 8.15224 41.0791 7.9859 40.5754 7.9859C40.0823 7.9859 39.6697 8.15224 39.3375 8.48492C39.0159 8.80687 38.8069 9.25224 38.7105 9.82102Z" fill="black"/>
<path d="M49.0683 12.7186H52.0103V8.27565H49.7114V8.46882C49.6899 10.3254 49.4756 11.742 49.0683 12.7186ZM53.2804 14.8113H47.8786L47.7018 16.8396H45.644V12.7186H46.5764C47.1338 11.5274 47.4124 9.59565 47.4124 6.92346V6.18297H54.4539V12.7186H55.6275L55.3382 16.8396H53.2804V14.8113Z" fill="black"/>
<path d="M64.9766 6.18297V14.8113H62.6133V9.78882L59.2533 14.8113H56.9544V6.18297H59.3176V11.2215L62.6776 6.18297H64.9766Z" fill="black"/>
<path d="M69.6028 14.9722C68.7561 14.9722 68.0488 14.7361 67.4807 14.2639C66.9234 13.7917 66.6447 13.1371 66.6447 12.3C66.6447 11.3878 66.9556 10.701 67.5772 10.2396C68.2095 9.77809 69.0562 9.54736 70.1173 9.54736C70.8354 9.54736 71.5374 9.66541 72.2233 9.90151V9.75663C72.2233 8.70492 71.607 8.17907 70.3745 8.17907C69.635 8.17907 68.8419 8.33468 67.9952 8.6459L67.3843 6.77858C68.4346 6.31712 69.5492 6.08638 70.7282 6.08638C72.025 6.08638 72.995 6.40833 73.638 7.05224C74.2597 7.67468 74.5705 8.59224 74.5705 9.80492V14.8113H72.2072V13.8776C71.5535 14.6074 70.6853 14.9722 69.6028 14.9722ZM70.3424 13.282C70.9104 13.282 71.3713 13.1425 71.7249 12.8635C72.0786 12.5737 72.2555 12.2088 72.2555 11.7688V11.3342C71.7946 11.1196 71.2748 11.0122 70.696 11.0122C70.1602 11.0122 69.7422 11.1196 69.4421 11.3342C69.1527 11.5381 69.008 11.8386 69.008 12.2357C69.008 12.5576 69.1313 12.8152 69.3778 13.0083C69.6243 13.1908 69.9458 13.282 70.3424 13.282Z" fill="black"/>
<path d="M80.7406 15.0044C79.4545 15.0044 78.3827 14.5698 77.5253 13.7005C76.6786 12.8313 76.2553 11.7688 76.2553 10.5132C76.2553 9.26834 76.684 8.21126 77.5414 7.34199C78.3988 6.46199 79.4759 6.02199 80.7728 6.02199C82.1554 6.02199 83.2968 6.52638 84.1971 7.53516L82.7663 8.98394C82.1661 8.41516 81.4962 8.13077 80.7567 8.13077C80.1565 8.13077 79.6581 8.36151 79.2616 8.82297C78.865 9.28443 78.6667 9.84785 78.6667 10.5132C78.6667 11.1893 78.865 11.7581 79.2616 12.2196C79.6688 12.6703 80.1994 12.8957 80.8532 12.8957C81.5284 12.8957 82.1875 12.5898 82.8306 11.9781L84.2614 13.4269C83.7898 13.942 83.2861 14.3337 82.7502 14.602C82.2143 14.8703 81.5444 15.0044 80.7406 15.0044Z" fill="black"/>
<path d="M89.9411 15.0044C88.6335 15.0044 87.5564 14.5913 86.7097 13.7649C85.863 12.9278 85.4396 11.8439 85.4396 10.5132C85.4396 9.2576 85.8415 8.19516 86.6454 7.3259C87.4492 6.45663 88.4674 6.02199 89.6999 6.02199C91.0611 6.02199 92.1007 6.47273 92.8188 7.37419C93.5368 8.27565 93.8959 9.38638 93.8959 10.7064C93.8959 10.8352 93.8852 11.0498 93.8637 11.3503H87.8672C87.9851 11.8976 88.2262 12.3161 88.5906 12.6059C88.955 12.8957 89.4159 13.0405 89.9732 13.0405C90.7342 13.0405 91.4308 12.7454 92.0632 12.1552L93.4618 13.3947C92.5937 14.4678 91.4201 15.0044 89.9411 15.0044ZM87.835 9.82102H91.5166C91.4415 9.26297 91.2433 8.8176 90.9217 8.48492C90.6109 8.15224 90.2036 7.9859 89.6999 7.9859C89.2069 7.9859 88.7943 8.15224 88.462 8.48492C88.1405 8.80687 87.9315 9.25224 87.835 9.82102Z" fill="black"/>
<path d="M102.453 6.18297V8.27565H99.897V14.8113H97.4212V8.27565H94.865V6.18297H102.453Z" fill="black"/>
<path d="M103.787 14.8113V6.18297H106.23V9.03224H107.999C109.038 9.03224 109.869 9.2737 110.491 9.75663C111.123 10.2396 111.439 10.9478 111.439 11.8815C111.439 12.7937 111.144 13.5127 110.555 14.0386C109.976 14.5537 109.167 14.8113 108.127 14.8113H103.787ZM107.758 10.8835H106.23V12.8796H107.774C108.578 12.8796 108.979 12.5361 108.979 11.8493C108.979 11.5488 108.872 11.3127 108.658 11.141C108.454 10.9693 108.154 10.8835 107.758 10.8835Z" fill="black"/>
<ellipse cx="8.59503" cy="8.90869" rx="7.98956" ry="8" fill="url(#paint0_linear_54_601)"/>
<defs>
<linearGradient id="paint0_linear_54_601" x1="12.1668" y1="1.14205" x2="6.53426" y2="6.36323" gradientUnits="userSpaceOnUse">
<stop stop-color="#F64F1A"/>
<stop offset="1" stop-color="#EA270B"/>
</linearGradient>
</defs>
</svg>
