<svg width="237" height="60" viewBox="0 0 237 60" fill="none" xmlns="http://www.w3.org/2000/svg">
<g clip-path="url(#clip0_1_820)">
<mask id="mask0_1_820" style="mask-type:alpha" maskUnits="userSpaceOnUse" x="-1" y="-46" width="238" height="131">
<rect x="-1" y="-45.6749" width="237.102" height="130.346" fill="url(#paint0_radial_1_820)"/>
</mask>
<g mask="url(#mask0_1_820)">
<path d="M-0.854614 71.7646C-0.854614 71.7646 7.10575 71.9778 9.35146 74.2235C11.5909 76.463 11.8042 84.3794 11.8042 84.3794C11.8042 84.3794 11.9986 76.4818 14.2632 74.2235C16.5214 71.959 37.0339 71.7646 37.0339 71.7646C37.0339 71.7646 16.5465 71.5952 14.2632 69.3118C11.9735 67.0222 11.8042 59.2375 11.8042 59.2375C11.8042 59.2375 11.6097 67.0473 9.35146 69.3118C7.08693 71.5764 -0.854614 71.7646 -0.854614 71.7646Z" fill="url(#paint1_linear_1_820)"/>
<path d="M36.8885 58.1263C36.8885 58.1263 28.9282 58.3395 26.6825 60.5852C24.443 62.8247 24.2298 70.7411 24.2298 70.7411C24.2298 70.7411 24.0353 62.8435 21.7708 60.5852C19.5125 58.3207 -1.00001 58.1263 -1.00001 58.1263C-1.00001 58.1263 19.4874 57.9569 21.7708 55.6735C24.0604 53.3839 24.2298 45.5992 24.2298 45.5992C24.2298 45.5992 24.4242 53.409 26.6825 55.6735C28.947 57.9381 36.8885 58.1263 36.8885 58.1263Z" fill="url(#paint2_linear_1_820)"/>
<path d="M37.1796 71.7645C37.1796 71.7645 45.1399 71.9777 47.3856 74.2235C49.6251 76.4629 49.8384 84.3793 49.8384 84.3793C49.8384 84.3793 50.0328 76.4817 52.2974 74.2235C54.5556 71.9589 75.0681 71.7645 75.0681 71.7645C75.0681 71.7645 54.5807 71.5951 52.2974 69.3117C50.0077 67.0221 49.8384 59.2374 49.8384 59.2374C49.8384 59.2374 49.6439 67.0472 47.3856 69.3117C45.1211 71.5763 37.1796 71.7645 37.1796 71.7645Z" fill="url(#paint3_linear_1_820)"/>
<path d="M74.9225 58.1262C74.9225 58.1262 66.9621 58.3395 64.7164 60.5852C62.477 62.8247 62.2637 70.7411 62.2637 70.7411C62.2637 70.7411 62.0692 62.8435 59.8047 60.5852C57.5464 58.3207 37.0339 58.1262 37.0339 58.1262C37.0339 58.1262 57.5213 57.9569 59.8047 55.6735C62.0943 53.3839 62.2637 45.5992 62.2637 45.5992C62.2637 45.5992 62.4582 53.409 64.7164 55.6735C66.9809 57.938 74.9225 58.1262 74.9225 58.1262Z" fill="url(#paint4_linear_1_820)"/>
<path d="M75.2136 71.7645C75.2136 71.7645 83.174 71.9778 85.4197 74.2235C87.6591 76.463 87.8724 84.3794 87.8724 84.3794C87.8724 84.3794 88.0669 76.4818 90.3314 74.2235C92.5897 71.959 113.102 71.7645 113.102 71.7645C113.102 71.7645 92.6148 71.5952 90.3314 69.3118C88.0418 67.0222 87.8724 59.2375 87.8724 59.2375C87.8724 59.2375 87.678 67.0473 85.4197 69.3118C83.1552 71.5763 75.2136 71.7645 75.2136 71.7645Z" fill="url(#paint5_linear_1_820)"/>
<path d="M112.957 58.1262C112.957 58.1262 104.996 58.3395 102.751 60.5852C100.511 62.8247 100.298 70.7411 100.298 70.7411C100.298 70.7411 100.104 62.8435 97.839 60.5852C95.5807 58.3207 75.0682 58.1262 75.0682 58.1262C75.0682 58.1262 95.5557 57.9569 97.839 55.6735C100.129 53.3839 100.298 45.5992 100.298 45.5992C100.298 45.5992 100.492 53.409 102.751 55.6735C105.015 57.938 112.957 58.1262 112.957 58.1262Z" fill="url(#paint6_linear_1_820)"/>
<path d="M113.248 71.7645C113.248 71.7645 121.208 71.9778 123.454 74.2235C125.693 76.4629 125.906 84.3794 125.906 84.3794C125.906 84.3794 126.101 76.4818 128.365 74.2235C130.624 71.959 151.136 71.7645 151.136 71.7645C151.136 71.7645 130.649 71.5951 128.365 69.3118C126.076 67.0222 125.906 59.2374 125.906 59.2374C125.906 59.2374 125.712 67.0473 123.454 69.3118C121.189 71.5763 113.248 71.7645 113.248 71.7645Z" fill="url(#paint7_linear_1_820)"/>
<path d="M150.991 58.1262C150.991 58.1262 143.03 58.3395 140.785 60.5852C138.545 62.8247 138.332 70.7411 138.332 70.7411C138.332 70.7411 138.137 62.8435 135.873 60.5852C133.615 58.3207 113.102 58.1262 113.102 58.1262C113.102 58.1262 133.59 57.9569 135.873 55.6735C138.163 53.3839 138.332 45.5992 138.332 45.5992C138.332 45.5992 138.526 53.409 140.785 55.6735C143.049 57.938 150.991 58.1262 150.991 58.1262Z" fill="url(#paint8_linear_1_820)"/>
<path d="M151.281 71.7646C151.281 71.7646 159.242 71.9778 161.488 74.2236C163.727 76.463 163.94 84.3794 163.94 84.3794C163.94 84.3794 164.135 76.4818 166.399 74.2236C168.658 71.959 189.17 71.7646 189.17 71.7646C189.17 71.7646 168.683 71.5952 166.399 69.3118C164.11 67.0222 163.94 59.2375 163.94 59.2375C163.94 59.2375 163.746 67.0473 161.488 69.3118C159.223 71.5764 151.281 71.7646 151.281 71.7646Z" fill="url(#paint9_linear_1_820)"/>
<path d="M189.025 58.1263C189.025 58.1263 181.065 58.3395 178.819 60.5852C176.579 62.8247 176.366 70.7411 176.366 70.7411C176.366 70.7411 176.172 62.8435 173.907 60.5852C171.649 58.3207 151.136 58.1263 151.136 58.1263C151.136 58.1263 171.624 57.9569 173.907 55.6735C176.197 53.3839 176.366 45.5992 176.366 45.5992C176.366 45.5992 176.561 53.409 178.819 55.6735C181.083 57.9381 189.025 58.1263 189.025 58.1263Z" fill="url(#paint10_linear_1_820)"/>
<path d="M189.316 71.7645C189.316 71.7645 197.276 71.9778 199.522 74.2235C201.761 76.4629 201.974 84.3794 201.974 84.3794C201.974 84.3794 202.169 76.4817 204.433 74.2235C206.692 71.9589 227.204 71.7645 227.204 71.7645C227.204 71.7645 206.717 71.5951 204.433 69.3118C202.144 67.0221 201.974 59.2374 201.974 59.2374C201.974 59.2374 201.78 67.0472 199.522 69.3118C197.257 71.5763 189.316 71.7645 189.316 71.7645Z" fill="url(#paint11_linear_1_820)"/>
<path d="M227.059 58.1262C227.059 58.1262 219.098 58.3395 216.853 60.5852C214.613 62.8247 214.4 70.7411 214.4 70.7411C214.4 70.7411 214.205 62.8435 211.941 60.5852C209.683 58.3207 189.17 58.1262 189.17 58.1262C189.17 58.1262 209.657 57.9569 211.941 55.6735C214.23 53.3839 214.4 45.5992 214.4 45.5992C214.4 45.5992 214.594 53.409 216.853 55.6735C219.117 57.938 227.059 58.1262 227.059 58.1262Z" fill="url(#paint12_linear_1_820)"/>
<path d="M-0.854614 18.7972C-0.854614 18.7972 7.10575 19.0105 9.35146 21.2562C11.5909 23.4956 11.8042 31.4121 11.8042 31.4121C11.8042 31.4121 11.9986 23.5144 14.2632 21.2562C16.5214 18.9916 37.0339 18.7972 37.0339 18.7972C37.0339 18.7972 16.5465 18.6278 14.2632 16.3445C11.9735 14.0548 11.8042 6.27012 11.8042 6.27012C11.8042 6.27012 11.6097 14.0799 9.35146 16.3445C7.08693 18.609 -0.854614 18.7972 -0.854614 18.7972Z" fill="url(#paint13_linear_1_820)"/>
<path d="M36.8885 5.15888C36.8885 5.15888 28.9282 5.37216 26.6825 7.61787C24.443 9.85731 24.2298 17.7738 24.2298 17.7738C24.2298 17.7738 24.0353 9.87613 21.7708 7.61787C19.5125 5.35334 -1.00001 5.15888 -1.00001 5.15888C-1.00001 5.15888 19.4874 4.98951 21.7708 2.70616C24.0604 0.416536 24.2298 -7.36818 24.2298 -7.36818C24.2298 -7.36818 24.4242 0.441628 26.6825 2.70616C28.947 4.97069 36.8885 5.15888 36.8885 5.15888Z" fill="url(#paint14_linear_1_820)"/>
<path d="M37.1793 18.7972C37.1793 18.7972 45.1397 19.0105 47.3854 21.2562C49.6248 23.4956 49.8381 31.4121 49.8381 31.4121C49.8381 31.4121 50.0326 23.5144 52.2971 21.2562C54.5554 18.9917 75.0679 18.7972 75.0679 18.7972C75.0679 18.7972 54.5805 18.6278 52.2971 16.3445C50.0075 14.0549 49.8381 6.27014 49.8381 6.27014C49.8381 6.27014 49.6437 14.0799 47.3854 16.3445C45.1209 18.609 37.1793 18.7972 37.1793 18.7972Z" fill="url(#paint15_linear_1_820)"/>
<path d="M74.9225 5.15889C74.9225 5.15889 66.9621 5.37217 64.7164 7.61789C62.477 9.85733 62.2637 17.7738 62.2637 17.7738C62.2637 17.7738 62.0692 9.87614 59.8047 7.61789C57.5464 5.35335 37.0339 5.15889 37.0339 5.15889C37.0339 5.15889 57.5213 4.98952 59.8047 2.70617C62.0943 0.416551 62.2637 -7.36817 62.2637 -7.36817C62.2637 -7.36817 62.4582 0.441643 64.7164 2.70617C66.9809 4.97071 74.9225 5.15889 74.9225 5.15889Z" fill="url(#paint16_linear_1_820)"/>
<path d="M75.2133 18.7972C75.2133 18.7972 83.1736 19.0105 85.4193 21.2562C87.6588 23.4956 87.8721 31.4121 87.8721 31.4121C87.8721 31.4121 88.0665 23.5144 90.331 21.2562C92.5893 18.9916 113.102 18.7972 113.102 18.7972C113.102 18.7972 92.6144 18.6278 90.331 16.3445C88.0414 14.0548 87.8721 6.27012 87.8721 6.27012C87.8721 6.27012 87.6776 14.0799 85.4193 16.3445C83.1548 18.609 75.2133 18.7972 75.2133 18.7972Z" fill="url(#paint17_linear_1_820)"/>
<path d="M112.957 5.15888C112.957 5.15888 104.996 5.37216 102.75 7.61787C100.511 9.85731 100.298 17.7738 100.298 17.7738C100.298 17.7738 100.103 9.87613 97.8388 7.61787C95.5805 5.35334 75.068 5.15888 75.068 5.15888C75.068 5.15888 95.5554 4.98951 97.8388 2.70616C100.128 0.416536 100.298 -7.36818 100.298 -7.36818C100.298 -7.36818 100.492 0.441628 102.75 2.70616C105.015 4.97069 112.957 5.15888 112.957 5.15888Z" fill="url(#paint18_linear_1_820)"/>
<path d="M113.247 18.7975C113.247 18.7975 121.208 19.0108 123.453 21.2565C125.693 23.496 125.906 31.4124 125.906 31.4124C125.906 31.4124 126.101 23.5148 128.365 21.2565C130.623 18.992 151.136 18.7975 151.136 18.7975C151.136 18.7975 130.648 18.6282 128.365 16.3448C126.075 14.0552 125.906 6.27048 125.906 6.27048C125.906 6.27048 125.712 14.0803 123.453 16.3448C121.189 18.6094 113.247 18.7975 113.247 18.7975Z" fill="url(#paint19_linear_1_820)"/>
<path d="M150.99 5.15889C150.99 5.15889 143.03 5.37217 140.784 7.61789C138.545 9.85733 138.332 17.7738 138.332 17.7738C138.332 17.7738 138.137 9.87614 135.873 7.61789C133.614 5.35335 113.102 5.15889 113.102 5.15889C113.102 5.15889 133.589 4.98952 135.873 2.70617C138.162 0.416551 138.332 -7.36817 138.332 -7.36817C138.332 -7.36817 138.526 0.441643 140.784 2.70617C143.049 4.97071 150.99 5.15889 150.99 5.15889Z" fill="url(#paint20_linear_1_820)"/>
<path d="M151.281 18.7972C151.281 18.7972 159.242 19.0105 161.487 21.2562C163.727 23.4956 163.94 31.4121 163.94 31.4121C163.94 31.4121 164.135 23.5144 166.399 21.2562C168.657 18.9916 189.17 18.7972 189.17 18.7972C189.17 18.7972 168.682 18.6278 166.399 16.3445C164.109 14.0548 163.94 6.27012 163.94 6.27012C163.94 6.27012 163.746 14.0799 161.487 16.3445C159.223 18.609 151.281 18.7972 151.281 18.7972Z" fill="url(#paint21_linear_1_820)"/>
<path d="M189.024 5.15889C189.024 5.15889 181.064 5.37217 178.818 7.61789C176.579 9.85733 176.366 17.7738 176.366 17.7738C176.366 17.7738 176.171 9.87614 173.907 7.61789C171.648 5.35335 151.136 5.15889 151.136 5.15889C151.136 5.15889 171.623 4.98952 173.907 2.70617C176.196 0.416551 176.366 -7.36817 176.366 -7.36817C176.366 -7.36817 176.56 0.441643 178.818 2.70617C181.083 4.97071 189.024 5.15889 189.024 5.15889Z" fill="url(#paint22_linear_1_820)"/>
<path d="M189.315 18.7972C189.315 18.7972 197.276 19.0105 199.521 21.2562C201.761 23.4956 201.974 31.4121 201.974 31.4121C201.974 31.4121 202.168 23.5144 204.433 21.2562C206.691 18.9916 227.204 18.7972 227.204 18.7972C227.204 18.7972 206.716 18.6278 204.433 16.3445C202.143 14.0548 201.974 6.27012 201.974 6.27012C201.974 6.27012 201.78 14.0799 199.521 16.3445C197.257 18.609 189.315 18.7972 189.315 18.7972Z" fill="url(#paint23_linear_1_820)"/>
<path d="M227.058 5.15888C227.058 5.15888 219.098 5.37216 216.852 7.61787C214.613 9.85731 214.4 17.7738 214.4 17.7738C214.4 17.7738 214.205 9.87613 211.941 7.61787C209.682 5.35334 189.17 5.15888 189.17 5.15888C189.17 5.15888 209.657 4.98951 211.941 2.70616C214.23 0.416536 214.4 -7.36818 214.4 -7.36818C214.4 -7.36818 214.594 0.441628 216.852 2.70616C219.117 4.97069 227.058 5.15888 227.058 5.15888Z" fill="url(#paint24_linear_1_820)"/>
<path d="M-0.854614 43.8536C-0.854614 43.8536 7.10575 44.0668 9.35146 46.3125C11.5909 48.552 11.8042 56.4684 11.8042 56.4684C11.8042 56.4684 11.9986 48.5708 14.2632 46.3125C16.5214 44.048 37.0339 43.8536 37.0339 43.8536C37.0339 43.8536 16.5465 43.6842 14.2632 41.4008C11.9735 39.1112 11.8042 31.3265 11.8042 31.3265C11.8042 31.3265 11.6097 39.1363 9.35146 41.4008C7.08693 43.6654 -0.854614 43.8536 -0.854614 43.8536Z" fill="url(#paint25_linear_1_820)"/>
<path d="M36.8885 30.2153C36.8885 30.2153 28.9282 30.4285 26.6825 32.6742C24.443 34.9137 24.2298 42.8301 24.2298 42.8301C24.2298 42.8301 24.0353 34.9325 21.7708 32.6742C19.5125 30.4097 -1.00001 30.2153 -1.00001 30.2153C-1.00001 30.2153 19.4874 30.0459 21.7708 27.7625C24.0604 25.4729 24.2298 17.6882 24.2298 17.6882C24.2298 17.6882 24.4242 25.498 26.6825 27.7625C28.947 30.0271 36.8885 30.2153 36.8885 30.2153Z" fill="url(#paint26_linear_1_820)"/>
<path d="M37.1796 43.8535C37.1796 43.8535 45.1399 44.0668 47.3856 46.3125C49.6251 48.552 49.8384 56.4684 49.8384 56.4684C49.8384 56.4684 50.0328 48.5708 52.2974 46.3125C54.5556 44.048 75.0681 43.8535 75.0681 43.8535C75.0681 43.8535 54.5807 43.6842 52.2974 41.4008C50.0077 39.1112 49.8384 31.3265 49.8384 31.3265C49.8384 31.3265 49.6439 39.1363 47.3856 41.4008C45.1211 43.6653 37.1796 43.8535 37.1796 43.8535Z" fill="url(#paint27_linear_1_820)"/>
<path d="M74.9225 30.2153C74.9225 30.2153 66.9621 30.4286 64.7164 32.6743C62.477 34.9137 62.2637 42.8302 62.2637 42.8302C62.2637 42.8302 62.0692 34.9325 59.8047 32.6743C57.5464 30.4097 37.0339 30.2153 37.0339 30.2153C37.0339 30.2153 57.5213 30.0459 59.8047 27.7626C62.0943 25.4729 62.2637 17.6882 62.2637 17.6882C62.2637 17.6882 62.4582 25.498 64.7164 27.7626C66.9809 30.0271 74.9225 30.2153 74.9225 30.2153Z" fill="url(#paint28_linear_1_820)"/>
<path d="M75.2136 43.8536C75.2136 43.8536 83.174 44.0669 85.4197 46.3126C87.6591 48.5521 87.8724 56.4685 87.8724 56.4685C87.8724 56.4685 88.0669 48.5709 90.3314 46.3126C92.5897 44.0481 113.102 43.8536 113.102 43.8536C113.102 43.8536 92.6148 43.6843 90.3314 41.4009C88.0418 39.1113 87.8724 31.3266 87.8724 31.3266C87.8724 31.3266 87.678 39.1364 85.4197 41.4009C83.1552 43.6655 75.2136 43.8536 75.2136 43.8536Z" fill="url(#paint29_linear_1_820)"/>
<path d="M112.957 30.2153C112.957 30.2153 104.996 30.4286 102.751 32.6743C100.511 34.9137 100.298 42.8302 100.298 42.8302C100.298 42.8302 100.104 34.9325 97.839 32.6743C95.5807 30.4097 75.0682 30.2153 75.0682 30.2153C75.0682 30.2153 95.5557 30.0459 97.839 27.7626C100.129 25.4729 100.298 17.6882 100.298 17.6882C100.298 17.6882 100.492 25.498 102.751 27.7626C105.015 30.0271 112.957 30.2153 112.957 30.2153Z" fill="url(#paint30_linear_1_820)"/>
<path d="M113.248 43.8536C113.248 43.8536 121.208 44.0669 123.454 46.3126C125.693 48.552 125.906 56.4685 125.906 56.4685C125.906 56.4685 126.101 48.5708 128.365 46.3126C130.624 44.048 151.136 43.8536 151.136 43.8536C151.136 43.8536 130.649 43.6842 128.365 41.4009C126.076 39.1112 125.906 31.3265 125.906 31.3265C125.906 31.3265 125.712 39.1363 123.454 41.4009C121.189 43.6654 113.248 43.8536 113.248 43.8536Z" fill="url(#paint31_linear_1_820)"/>
<path d="M150.991 30.2153C150.991 30.2153 143.03 30.4286 140.785 32.6743C138.545 34.9137 138.332 42.8302 138.332 42.8302C138.332 42.8302 138.137 34.9325 135.873 32.6743C133.615 30.4097 113.102 30.2153 113.102 30.2153C113.102 30.2153 133.59 30.0459 135.873 27.7626C138.163 25.4729 138.332 17.6882 138.332 17.6882C138.332 17.6882 138.526 25.498 140.785 27.7626C143.049 30.0271 150.991 30.2153 150.991 30.2153Z" fill="url(#paint32_linear_1_820)"/>
<path d="M151.281 43.8536C151.281 43.8536 159.242 44.0669 161.488 46.3126C163.727 48.552 163.94 56.4685 163.94 56.4685C163.94 56.4685 164.135 48.5709 166.399 46.3126C168.658 44.0481 189.17 43.8536 189.17 43.8536C189.17 43.8536 168.683 43.6842 166.399 41.4009C164.11 39.1113 163.94 31.3265 163.94 31.3265C163.94 31.3265 163.746 39.1363 161.488 41.4009C159.223 43.6654 151.281 43.8536 151.281 43.8536Z" fill="url(#paint33_linear_1_820)"/>
<path d="M189.025 30.2153C189.025 30.2153 181.065 30.4285 178.819 32.6742C176.579 34.9137 176.366 42.8301 176.366 42.8301C176.366 42.8301 176.172 34.9325 173.907 32.6742C171.649 30.4097 151.136 30.2153 151.136 30.2153C151.136 30.2153 171.624 30.0459 173.907 27.7625C176.197 25.4729 176.366 17.6882 176.366 17.6882C176.366 17.6882 176.561 25.498 178.819 27.7625C181.083 30.0271 189.025 30.2153 189.025 30.2153Z" fill="url(#paint34_linear_1_820)"/>
<path d="M189.316 43.8535C189.316 43.8535 197.276 44.0668 199.522 46.3125C201.761 48.5519 201.974 56.4684 201.974 56.4684C201.974 56.4684 202.169 48.5708 204.433 46.3125C206.692 44.048 227.204 43.8535 227.204 43.8535C227.204 43.8535 206.717 43.6841 204.433 41.4008C202.144 39.1112 201.974 31.3265 201.974 31.3265C201.974 31.3265 201.78 39.1363 199.522 41.4008C197.257 43.6653 189.316 43.8535 189.316 43.8535Z" fill="url(#paint35_linear_1_820)"/>
<path d="M227.059 30.2153C227.059 30.2153 219.098 30.4286 216.853 32.6743C214.613 34.9137 214.4 42.8302 214.4 42.8302C214.4 42.8302 214.205 34.9325 211.941 32.6743C209.683 30.4097 189.17 30.2153 189.17 30.2153C189.17 30.2153 209.657 30.0459 211.941 27.7626C214.23 25.4729 214.4 17.6882 214.4 17.6882C214.4 17.6882 214.594 25.498 216.853 27.7626C219.117 30.0271 227.059 30.2153 227.059 30.2153Z" fill="url(#paint36_linear_1_820)"/>
<path d="M-0.854614 -9.11377C-0.854614 -9.11377 7.10575 -8.90049 9.35146 -6.65477C11.5909 -4.41533 11.8042 3.50112 11.8042 3.50112C11.8042 3.50112 11.9986 -4.39652 14.2632 -6.65477C16.5214 -8.91931 37.0339 -9.11377 37.0339 -9.11377C37.0339 -9.11377 16.5465 -9.28314 14.2632 -11.5665C11.9735 -13.8561 11.8042 -21.6408 11.8042 -21.6408C11.8042 -21.6408 11.6097 -13.831 9.35146 -11.5665C7.08693 -9.30196 -0.854614 -9.11377 -0.854614 -9.11377Z" fill="url(#paint37_linear_1_820)"/>
<path d="M37.1796 -9.1137C37.1796 -9.1137 45.1399 -8.90042 47.3856 -6.65471C49.6251 -4.41527 49.8384 3.50118 49.8384 3.50118C49.8384 3.50118 50.0328 -4.39645 52.2974 -6.65471C54.5556 -8.91924 75.0681 -9.1137 75.0681 -9.1137C75.0681 -9.1137 54.5807 -9.28307 52.2974 -11.5664C50.0077 -13.856 49.8384 -21.6408 49.8384 -21.6408C49.8384 -21.6408 49.6439 -13.831 47.3856 -11.5664C45.1211 -9.30189 37.1796 -9.1137 37.1796 -9.1137Z" fill="url(#paint38_linear_1_820)"/>
<path d="M75.2136 -9.11345C75.2136 -9.11345 83.174 -8.90017 85.4197 -6.65446C87.6591 -4.41502 87.8724 3.50143 87.8724 3.50143C87.8724 3.50143 88.0669 -4.3962 90.3314 -6.65446C92.5897 -8.91899 113.102 -9.11345 113.102 -9.11345C113.102 -9.11345 92.6148 -9.28282 90.3314 -11.5662C88.0418 -13.8558 87.8724 -21.6405 87.8724 -21.6405C87.8724 -21.6405 87.678 -13.8307 85.4197 -11.5662C83.1552 -9.30164 75.2136 -9.11345 75.2136 -9.11345Z" fill="url(#paint39_linear_1_820)"/>
<path d="M113.247 -9.11377C113.247 -9.11377 121.208 -8.90049 123.453 -6.65478C125.693 -4.41534 125.906 3.50111 125.906 3.50111C125.906 3.50111 126.101 -4.39652 128.365 -6.65478C130.623 -8.91931 151.136 -9.11377 151.136 -9.11377C151.136 -9.11377 130.648 -9.28314 128.365 -11.5665C126.075 -13.8561 125.906 -21.6408 125.906 -21.6408C125.906 -21.6408 125.712 -13.831 123.453 -11.5665C121.189 -9.30196 113.247 -9.11377 113.247 -9.11377Z" fill="url(#paint40_linear_1_820)"/>
<path d="M151.281 -9.11345C151.281 -9.11345 159.241 -8.90017 161.487 -6.65446C163.727 -4.41502 163.94 3.50143 163.94 3.50143C163.94 3.50143 164.134 -4.3962 166.399 -6.65446C168.657 -8.91899 189.17 -9.11345 189.17 -9.11345C189.17 -9.11345 168.682 -9.28282 166.399 -11.5662C164.109 -13.8558 163.94 -21.6405 163.94 -21.6405C163.94 -21.6405 163.745 -13.8307 161.487 -11.5662C159.223 -9.30164 151.281 -9.11345 151.281 -9.11345Z" fill="url(#paint41_linear_1_820)"/>
<path d="M189.315 -9.11392C189.315 -9.11392 197.276 -8.90064 199.522 -6.65493C201.761 -4.41549 201.974 3.50097 201.974 3.50097C201.974 3.50097 202.169 -4.39667 204.433 -6.65493C206.691 -8.91946 227.204 -9.11392 227.204 -9.11392C227.204 -9.11392 206.717 -9.28329 204.433 -11.5666C202.144 -13.8563 201.974 -21.641 201.974 -21.641C201.974 -21.641 201.78 -13.8312 199.522 -11.5666C197.257 -9.30211 189.315 -9.11392 189.315 -9.11392Z" fill="url(#paint42_linear_1_820)"/>
</g>
</g>
<defs>
<radialGradient id="paint0_radial_1_820" cx="0" cy="0" r="1" gradientUnits="userSpaceOnUse" gradientTransform="translate(20.5911 81.4728) rotate(-38.0696) scale(190.963 190.963)">
<stop stop-color="white"/>
<stop offset="1" stop-color="#D9D9D9" stop-opacity="0"/>
</radialGradient>
<linearGradient id="paint1_linear_1_820" x1="-0.854614" y1="71.8088" x2="37.0354" y2="71.8088" gradientUnits="userSpaceOnUse">
<stop stop-color="white"/>
<stop offset="1" stop-color="#FFCA00" stop-opacity="0"/>
</linearGradient>
<linearGradient id="paint2_linear_1_820" x1="36.8885" y1="58.1705" x2="-1.00143" y2="58.1705" gradientUnits="userSpaceOnUse">
<stop stop-color="white"/>
<stop offset="1" stop-color="#FFCA00" stop-opacity="0"/>
</linearGradient>
<linearGradient id="paint3_linear_1_820" x1="37.1796" y1="71.8087" x2="75.0695" y2="71.8087" gradientUnits="userSpaceOnUse">
<stop stop-color="white"/>
<stop offset="1" stop-color="#FFCA00" stop-opacity="0"/>
</linearGradient>
<linearGradient id="paint4_linear_1_820" x1="74.9225" y1="58.1705" x2="37.0325" y2="58.1705" gradientUnits="userSpaceOnUse">
<stop stop-color="white"/>
<stop offset="1" stop-color="#FFCA00" stop-opacity="0"/>
</linearGradient>
<linearGradient id="paint5_linear_1_820" x1="75.2136" y1="71.8088" x2="113.104" y2="71.8088" gradientUnits="userSpaceOnUse">
<stop stop-color="white"/>
<stop offset="1" stop-color="#FFCA00" stop-opacity="0"/>
</linearGradient>
<linearGradient id="paint6_linear_1_820" x1="112.957" y1="58.1705" x2="75.0668" y2="58.1705" gradientUnits="userSpaceOnUse">
<stop stop-color="white"/>
<stop offset="1" stop-color="#FFCA00" stop-opacity="0"/>
</linearGradient>
<linearGradient id="paint7_linear_1_820" x1="113.248" y1="71.8088" x2="151.138" y2="71.8088" gradientUnits="userSpaceOnUse">
<stop stop-color="white"/>
<stop offset="1" stop-color="#FFCA00" stop-opacity="0"/>
</linearGradient>
<linearGradient id="paint8_linear_1_820" x1="150.991" y1="58.1705" x2="113.101" y2="58.1705" gradientUnits="userSpaceOnUse">
<stop stop-color="white"/>
<stop offset="1" stop-color="#FFCA00" stop-opacity="0"/>
</linearGradient>
<linearGradient id="paint9_linear_1_820" x1="151.281" y1="71.8088" x2="189.171" y2="71.8088" gradientUnits="userSpaceOnUse">
<stop stop-color="white"/>
<stop offset="1" stop-color="#FFCA00" stop-opacity="0"/>
</linearGradient>
<linearGradient id="paint10_linear_1_820" x1="189.025" y1="58.1705" x2="151.135" y2="58.1705" gradientUnits="userSpaceOnUse">
<stop stop-color="white"/>
<stop offset="1" stop-color="#FFCA00" stop-opacity="0"/>
</linearGradient>
<linearGradient id="paint11_linear_1_820" x1="189.316" y1="71.8087" x2="227.206" y2="71.8087" gradientUnits="userSpaceOnUse">
<stop stop-color="white"/>
<stop offset="1" stop-color="#FFCA00" stop-opacity="0"/>
</linearGradient>
<linearGradient id="paint12_linear_1_820" x1="227.059" y1="58.1705" x2="189.169" y2="58.1705" gradientUnits="userSpaceOnUse">
<stop stop-color="white"/>
<stop offset="1" stop-color="#FFCA00" stop-opacity="0"/>
</linearGradient>
<linearGradient id="paint13_linear_1_820" x1="-0.854614" y1="18.8414" x2="37.0354" y2="18.8414" gradientUnits="userSpaceOnUse">
<stop stop-color="white"/>
<stop offset="1" stop-color="#FFCA00" stop-opacity="0"/>
</linearGradient>
<linearGradient id="paint14_linear_1_820" x1="36.8885" y1="5.20314" x2="-1.00143" y2="5.20314" gradientUnits="userSpaceOnUse">
<stop stop-color="white"/>
<stop offset="1" stop-color="#FFCA00" stop-opacity="0"/>
</linearGradient>
<linearGradient id="paint15_linear_1_820" x1="37.1793" y1="18.8415" x2="75.0693" y2="18.8415" gradientUnits="userSpaceOnUse">
<stop stop-color="white"/>
<stop offset="1" stop-color="#FFCA00" stop-opacity="0"/>
</linearGradient>
<linearGradient id="paint16_linear_1_820" x1="74.9225" y1="5.20316" x2="37.0325" y2="5.20316" gradientUnits="userSpaceOnUse">
<stop stop-color="white"/>
<stop offset="1" stop-color="#FFCA00" stop-opacity="0"/>
</linearGradient>
<linearGradient id="paint17_linear_1_820" x1="75.2133" y1="18.8414" x2="113.103" y2="18.8414" gradientUnits="userSpaceOnUse">
<stop stop-color="white"/>
<stop offset="1" stop-color="#FFCA00" stop-opacity="0"/>
</linearGradient>
<linearGradient id="paint18_linear_1_820" x1="112.957" y1="5.20314" x2="75.0666" y2="5.20314" gradientUnits="userSpaceOnUse">
<stop stop-color="white"/>
<stop offset="1" stop-color="#FFCA00" stop-opacity="0"/>
</linearGradient>
<linearGradient id="paint19_linear_1_820" x1="113.247" y1="18.8418" x2="151.137" y2="18.8418" gradientUnits="userSpaceOnUse">
<stop stop-color="white"/>
<stop offset="1" stop-color="#FFCA00" stop-opacity="0"/>
</linearGradient>
<linearGradient id="paint20_linear_1_820" x1="150.99" y1="5.20316" x2="113.101" y2="5.20316" gradientUnits="userSpaceOnUse">
<stop stop-color="white"/>
<stop offset="1" stop-color="#FFCA00" stop-opacity="0"/>
</linearGradient>
<linearGradient id="paint21_linear_1_820" x1="151.281" y1="18.8414" x2="189.171" y2="18.8414" gradientUnits="userSpaceOnUse">
<stop stop-color="white"/>
<stop offset="1" stop-color="#FFCA00" stop-opacity="0"/>
</linearGradient>
<linearGradient id="paint22_linear_1_820" x1="189.024" y1="5.20316" x2="151.134" y2="5.20316" gradientUnits="userSpaceOnUse">
<stop stop-color="white"/>
<stop offset="1" stop-color="#FFCA00" stop-opacity="0"/>
</linearGradient>
<linearGradient id="paint23_linear_1_820" x1="189.315" y1="18.8414" x2="227.205" y2="18.8414" gradientUnits="userSpaceOnUse">
<stop stop-color="white"/>
<stop offset="1" stop-color="#FFCA00" stop-opacity="0"/>
</linearGradient>
<linearGradient id="paint24_linear_1_820" x1="227.058" y1="5.20314" x2="189.168" y2="5.20314" gradientUnits="userSpaceOnUse">
<stop stop-color="white"/>
<stop offset="1" stop-color="#FFCA00" stop-opacity="0"/>
</linearGradient>
<linearGradient id="paint25_linear_1_820" x1="-0.854614" y1="43.8978" x2="37.0354" y2="43.8978" gradientUnits="userSpaceOnUse">
<stop stop-color="white"/>
<stop offset="1" stop-color="#FFCA00" stop-opacity="0"/>
</linearGradient>
<linearGradient id="paint26_linear_1_820" x1="36.8885" y1="30.2595" x2="-1.00143" y2="30.2595" gradientUnits="userSpaceOnUse">
<stop stop-color="white"/>
<stop offset="1" stop-color="#FFCA00" stop-opacity="0"/>
</linearGradient>
<linearGradient id="paint27_linear_1_820" x1="37.1796" y1="43.8978" x2="75.0695" y2="43.8978" gradientUnits="userSpaceOnUse">
<stop stop-color="white"/>
<stop offset="1" stop-color="#FFCA00" stop-opacity="0"/>
</linearGradient>
<linearGradient id="paint28_linear_1_820" x1="74.9225" y1="30.2595" x2="37.0325" y2="30.2595" gradientUnits="userSpaceOnUse">
<stop stop-color="white"/>
<stop offset="1" stop-color="#FFCA00" stop-opacity="0"/>
</linearGradient>
<linearGradient id="paint29_linear_1_820" x1="75.2136" y1="43.8979" x2="113.104" y2="43.8979" gradientUnits="userSpaceOnUse">
<stop stop-color="white"/>
<stop offset="1" stop-color="#FFCA00" stop-opacity="0"/>
</linearGradient>
<linearGradient id="paint30_linear_1_820" x1="112.957" y1="30.2595" x2="75.0668" y2="30.2595" gradientUnits="userSpaceOnUse">
<stop stop-color="white"/>
<stop offset="1" stop-color="#FFCA00" stop-opacity="0"/>
</linearGradient>
<linearGradient id="paint31_linear_1_820" x1="113.248" y1="43.8978" x2="151.138" y2="43.8978" gradientUnits="userSpaceOnUse">
<stop stop-color="white"/>
<stop offset="1" stop-color="#FFCA00" stop-opacity="0"/>
</linearGradient>
<linearGradient id="paint32_linear_1_820" x1="150.991" y1="30.2595" x2="113.101" y2="30.2595" gradientUnits="userSpaceOnUse">
<stop stop-color="white"/>
<stop offset="1" stop-color="#FFCA00" stop-opacity="0"/>
</linearGradient>
<linearGradient id="paint33_linear_1_820" x1="151.281" y1="43.8979" x2="189.171" y2="43.8979" gradientUnits="userSpaceOnUse">
<stop stop-color="white"/>
<stop offset="1" stop-color="#FFCA00" stop-opacity="0"/>
</linearGradient>
<linearGradient id="paint34_linear_1_820" x1="189.025" y1="30.2595" x2="151.135" y2="30.2595" gradientUnits="userSpaceOnUse">
<stop stop-color="white"/>
<stop offset="1" stop-color="#FFCA00" stop-opacity="0"/>
</linearGradient>
<linearGradient id="paint35_linear_1_820" x1="189.316" y1="43.8978" x2="227.206" y2="43.8978" gradientUnits="userSpaceOnUse">
<stop stop-color="white"/>
<stop offset="1" stop-color="#FFCA00" stop-opacity="0"/>
</linearGradient>
<linearGradient id="paint36_linear_1_820" x1="227.059" y1="30.2595" x2="189.169" y2="30.2595" gradientUnits="userSpaceOnUse">
<stop stop-color="white"/>
<stop offset="1" stop-color="#FFCA00" stop-opacity="0"/>
</linearGradient>
<linearGradient id="paint37_linear_1_820" x1="-0.854614" y1="-9.06951" x2="37.0354" y2="-9.06951" gradientUnits="userSpaceOnUse">
<stop stop-color="white"/>
<stop offset="1" stop-color="#FFCA00" stop-opacity="0"/>
</linearGradient>
<linearGradient id="paint38_linear_1_820" x1="37.1796" y1="-9.06944" x2="75.0695" y2="-9.06944" gradientUnits="userSpaceOnUse">
<stop stop-color="white"/>
<stop offset="1" stop-color="#FFCA00" stop-opacity="0"/>
</linearGradient>
<linearGradient id="paint39_linear_1_820" x1="75.2136" y1="-9.06919" x2="113.104" y2="-9.06919" gradientUnits="userSpaceOnUse">
<stop stop-color="white"/>
<stop offset="1" stop-color="#FFCA00" stop-opacity="0"/>
</linearGradient>
<linearGradient id="paint40_linear_1_820" x1="113.247" y1="-9.06951" x2="151.137" y2="-9.06951" gradientUnits="userSpaceOnUse">
<stop stop-color="white"/>
<stop offset="1" stop-color="#FFCA00" stop-opacity="0"/>
</linearGradient>
<linearGradient id="paint41_linear_1_820" x1="151.281" y1="-9.06919" x2="189.171" y2="-9.06919" gradientUnits="userSpaceOnUse">
<stop stop-color="white"/>
<stop offset="1" stop-color="#FFCA00" stop-opacity="0"/>
</linearGradient>
<linearGradient id="paint42_linear_1_820" x1="189.315" y1="-9.06966" x2="227.205" y2="-9.06966" gradientUnits="userSpaceOnUse">
<stop stop-color="white"/>
<stop offset="1" stop-color="#FFCA00" stop-opacity="0"/>
</linearGradient>
<clipPath id="clip0_1_820">
<rect width="237.385" height="59.2941" fill="white" transform="translate(-1 0.706001)"/>
</clipPath>
</defs>
</svg>
