<svg width="592" height="84" viewBox="0 0 592 84" fill="none" xmlns="http://www.w3.org/2000/svg">
<g clip-path="url(#clip0_1_1304)">
<mask id="mask0_1_1304" style="mask-type:alpha" maskUnits="userSpaceOnUse" x="-1" y="-116" width="593" height="326">
<rect x="-1" y="-116" width="593" height="326" fill="url(#paint0_radial_1_1304)"/>
</mask>
<g mask="url(#mask0_1_1304)">
<path d="M-0.636491 45.2465C-0.636491 45.2465 19.2726 45.7799 24.8892 51.3965C30.4901 56.9974 31.0235 76.7967 31.0235 76.7967C31.0235 76.7967 31.5099 57.0445 37.1735 51.3965C42.8215 45.7328 94.1239 45.2465 94.1239 45.2465C94.1239 45.2465 42.8843 44.8229 37.1735 39.1122C31.4471 33.3857 31.0235 13.9159 31.0235 13.9159C31.0235 13.9159 30.5372 33.4485 24.8892 39.1122C19.2255 44.7758 -0.636491 45.2465 -0.636491 45.2465Z" fill="url(#paint1_linear_1_1304)"/>
<path d="M93.7604 11.1367C93.7604 11.1367 73.8513 11.6701 68.2347 17.2867C62.6338 22.8876 62.1004 42.6869 62.1004 42.6869C62.1004 42.6869 61.614 22.9347 55.9504 17.2867C50.3024 11.623 -1 11.1367 -1 11.1367C-1 11.1367 50.2397 10.7131 55.9504 5.00235C61.6768 -0.724068 62.1004 -20.1939 62.1004 -20.1939C62.1004 -20.1939 62.5868 -0.661312 68.2347 5.00235C73.8984 10.666 93.7604 11.1367 93.7604 11.1367Z" fill="url(#paint2_linear_1_1304)"/>
<path d="M94.4874 45.2465C94.4874 45.2465 114.397 45.7799 120.013 51.3965C125.614 56.9974 126.147 76.7967 126.147 76.7967C126.147 76.7967 126.634 57.0445 132.297 51.3965C137.945 45.7328 189.248 45.2465 189.248 45.2465C189.248 45.2465 138.008 44.8229 132.297 39.1122C126.571 33.3857 126.147 13.9159 126.147 13.9159C126.147 13.9159 125.661 33.4485 120.013 39.1122C114.349 44.7758 94.4874 45.2465 94.4874 45.2465Z" fill="url(#paint3_linear_1_1304)"/>
<path d="M188.884 11.1367C188.884 11.1367 168.975 11.6701 163.359 17.2867C157.758 22.8876 157.224 42.6869 157.224 42.6869C157.224 42.6869 156.738 22.9347 151.074 17.2867C145.426 11.623 94.1239 11.1367 94.1239 11.1367C94.1239 11.1367 145.364 10.7131 151.074 5.00235C156.801 -0.724068 157.224 -20.1939 157.224 -20.1939C157.224 -20.1939 157.711 -0.661312 163.359 5.00235C169.022 10.666 188.884 11.1367 188.884 11.1367Z" fill="url(#paint4_linear_1_1304)"/>
<path d="M189.611 45.2465C189.611 45.2465 209.52 45.7799 215.137 51.3965C220.738 56.9974 221.271 76.7967 221.271 76.7967C221.271 76.7967 221.758 57.0445 227.421 51.3965C233.069 45.7328 284.372 45.2465 284.372 45.2465C284.372 45.2465 233.132 44.8229 227.421 39.1122C221.695 33.3857 221.271 13.9159 221.271 13.9159C221.271 13.9159 220.785 33.4485 215.137 39.1122C209.473 44.7758 189.611 45.2465 189.611 45.2465Z" fill="url(#paint5_linear_1_1304)"/>
<path d="M284.008 11.1367C284.008 11.1367 264.099 11.6701 258.483 17.2867C252.882 22.8876 252.348 42.6869 252.348 42.6869C252.348 42.6869 251.862 22.9347 246.198 17.2867C240.55 11.623 189.248 11.1367 189.248 11.1367C189.248 11.1367 240.488 10.7131 246.198 5.00235C251.925 -0.724068 252.348 -20.1939 252.348 -20.1939C252.348 -20.1939 252.835 -0.661312 258.483 5.00235C264.146 10.666 284.008 11.1367 284.008 11.1367Z" fill="url(#paint6_linear_1_1304)"/>
<path d="M284.735 45.2465C284.735 45.2465 304.644 45.7799 310.261 51.3965C315.862 56.9974 316.395 76.7967 316.395 76.7967C316.395 76.7967 316.882 57.0445 322.545 51.3965C328.193 45.7328 379.496 45.2465 379.496 45.2465C379.496 45.2465 328.256 44.8229 322.545 39.1122C316.819 33.3857 316.395 13.9159 316.395 13.9159C316.395 13.9159 315.909 33.4485 310.261 39.1122C304.597 44.7758 284.735 45.2465 284.735 45.2465Z" fill="url(#paint7_linear_1_1304)"/>
<path d="M379.132 11.1367C379.132 11.1367 359.223 11.6701 353.606 17.2867C348.005 22.8876 347.472 42.6869 347.472 42.6869C347.472 42.6869 346.986 22.9347 341.322 17.2867C335.674 11.623 284.372 11.1367 284.372 11.1367C284.372 11.1367 335.611 10.7131 341.322 5.00235C347.048 -0.724068 347.472 -20.1939 347.472 -20.1939C347.472 -20.1939 347.958 -0.661312 353.606 5.00235C359.27 10.666 379.132 11.1367 379.132 11.1367Z" fill="url(#paint8_linear_1_1304)"/>
<path d="M379.859 45.2465C379.859 45.2465 399.768 45.7799 405.385 51.3965C410.986 56.9974 411.519 76.7967 411.519 76.7967C411.519 76.7967 412.006 57.0445 417.669 51.3965C423.317 45.7328 474.62 45.2465 474.62 45.2465C474.62 45.2465 423.38 44.8229 417.669 39.1122C411.943 33.3857 411.519 13.9159 411.519 13.9159C411.519 13.9159 411.033 33.4485 405.385 39.1122C399.721 44.7758 379.859 45.2465 379.859 45.2465Z" fill="url(#paint9_linear_1_1304)"/>
<path d="M474.256 11.1367C474.256 11.1367 454.347 11.6701 448.73 17.2867C443.13 22.8876 442.596 42.6869 442.596 42.6869C442.596 42.6869 442.11 22.9347 436.446 17.2867C430.798 11.623 379.496 11.1367 379.496 11.1367C379.496 11.1367 430.735 10.7131 436.446 5.00235C442.173 -0.724068 442.596 -20.1939 442.596 -20.1939C442.596 -20.1939 443.083 -0.661312 448.73 5.00235C454.394 10.666 474.256 11.1367 474.256 11.1367Z" fill="url(#paint10_linear_1_1304)"/>
<path d="M474.983 45.2465C474.983 45.2465 494.892 45.7799 500.509 51.3965C506.11 56.9974 506.643 76.7967 506.643 76.7967C506.643 76.7967 507.129 57.0445 512.793 51.3965C518.441 45.7328 569.744 45.2465 569.744 45.2465C569.744 45.2465 518.504 44.8229 512.793 39.1122C507.067 33.3857 506.643 13.9159 506.643 13.9159C506.643 13.9159 506.157 33.4485 500.509 39.1122C494.845 44.7758 474.983 45.2465 474.983 45.2465Z" fill="url(#paint11_linear_1_1304)"/>
<path d="M569.38 11.1367C569.38 11.1367 549.471 11.6701 543.854 17.2867C538.253 22.8876 537.72 42.6869 537.72 42.6869C537.72 42.6869 537.234 22.9347 531.57 17.2867C525.922 11.623 474.62 11.1367 474.62 11.1367C474.62 11.1367 525.859 10.7131 531.57 5.00235C537.296 -0.724068 537.72 -20.1939 537.72 -20.1939C537.72 -20.1939 538.206 -0.661312 543.854 5.00235C549.518 10.666 569.38 11.1367 569.38 11.1367Z" fill="url(#paint12_linear_1_1304)"/>
<path d="M-0.636491 107.913C-0.636491 107.913 19.2726 108.447 24.8892 114.063C30.4901 119.664 31.0235 139.463 31.0235 139.463C31.0235 139.463 31.5099 119.711 37.1735 114.063C42.8215 108.4 94.1239 107.913 94.1239 107.913C94.1239 107.913 42.8843 107.49 37.1735 101.779C31.4471 96.0525 31.0235 76.5827 31.0235 76.5827C31.0235 76.5827 30.5372 96.1152 24.8892 101.779C19.2255 107.443 -0.636491 107.913 -0.636491 107.913Z" fill="url(#paint13_linear_1_1304)"/>
<path d="M93.7604 73.8034C93.7604 73.8034 73.8513 74.3368 68.2347 79.9534C62.6338 85.5543 62.1004 105.354 62.1004 105.354C62.1004 105.354 61.614 85.6014 55.9504 79.9534C50.3024 74.2898 -1 73.8034 -1 73.8034C-1 73.8034 50.2397 73.3798 55.9504 67.6691C61.6768 61.9427 62.1004 42.4729 62.1004 42.4729C62.1004 42.4729 62.5868 62.0054 68.2347 67.6691C73.8984 73.3327 93.7604 73.8034 93.7604 73.8034Z" fill="url(#paint14_linear_1_1304)"/>
<path d="M94.4873 107.913C94.4873 107.913 114.396 108.447 120.013 114.063C125.614 119.664 126.147 139.463 126.147 139.463C126.147 139.463 126.634 119.711 132.297 114.063C137.945 108.4 189.248 107.913 189.248 107.913C189.248 107.913 138.008 107.49 132.297 101.779C126.571 96.0524 126.147 76.5826 126.147 76.5826C126.147 76.5826 125.661 96.1152 120.013 101.779C114.349 107.443 94.4873 107.913 94.4873 107.913Z" fill="url(#paint15_linear_1_1304)"/>
<path d="M188.884 73.8034C188.884 73.8034 168.975 74.3368 163.359 79.9534C157.758 85.5543 157.224 105.354 157.224 105.354C157.224 105.354 156.738 85.6013 151.074 79.9534C145.426 74.2897 94.1238 73.8034 94.1238 73.8034C94.1238 73.8034 145.363 73.3798 151.074 67.669C156.801 61.9426 157.224 42.4728 157.224 42.4728C157.224 42.4728 157.711 62.0054 163.359 67.669C169.022 73.3327 188.884 73.8034 188.884 73.8034Z" fill="url(#paint16_linear_1_1304)"/>
<path d="M189.611 107.913C189.611 107.913 209.521 108.447 215.137 114.063C220.738 119.664 221.271 139.463 221.271 139.463C221.271 139.463 221.758 119.711 227.421 114.063C233.069 108.4 284.372 107.913 284.372 107.913C284.372 107.913 233.132 107.49 227.421 101.779C221.695 96.0524 221.271 76.5826 221.271 76.5826C221.271 76.5826 220.785 96.1152 215.137 101.779C209.473 107.443 189.611 107.913 189.611 107.913Z" fill="url(#paint17_linear_1_1304)"/>
<path d="M284.008 73.8034C284.008 73.8034 264.099 74.3368 258.483 79.9534C252.882 85.5543 252.348 105.354 252.348 105.354C252.348 105.354 251.862 85.6013 246.198 79.9534C240.55 74.2897 189.248 73.8034 189.248 73.8034C189.248 73.8034 240.488 73.3798 246.198 67.669C251.925 61.9426 252.348 42.4728 252.348 42.4728C252.348 42.4728 252.835 62.0054 258.483 67.669C264.146 73.3327 284.008 73.8034 284.008 73.8034Z" fill="url(#paint18_linear_1_1304)"/>
<path d="M284.735 107.913C284.735 107.913 304.644 108.447 310.261 114.063C315.862 119.664 316.395 139.463 316.395 139.463C316.395 139.463 316.882 119.711 322.545 114.063C328.193 108.4 379.496 107.913 379.496 107.913C379.496 107.913 328.256 107.49 322.545 101.779C316.819 96.0524 316.395 76.5826 316.395 76.5826C316.395 76.5826 315.909 96.1152 310.261 101.779C304.597 107.443 284.735 107.913 284.735 107.913Z" fill="url(#paint19_linear_1_1304)"/>
<path d="M379.132 73.8034C379.132 73.8034 359.223 74.3368 353.606 79.9534C348.006 85.5543 347.472 105.354 347.472 105.354C347.472 105.354 346.986 85.6013 341.322 79.9534C335.674 74.2897 284.372 73.8034 284.372 73.8034C284.372 73.8034 335.611 73.3798 341.322 67.669C347.049 61.9426 347.472 42.4728 347.472 42.4728C347.472 42.4728 347.958 62.0054 353.606 67.669C359.27 73.3327 379.132 73.8034 379.132 73.8034Z" fill="url(#paint20_linear_1_1304)"/>
<path d="M379.859 107.913C379.859 107.913 399.768 108.447 405.385 114.063C410.986 119.664 411.519 139.463 411.519 139.463C411.519 139.463 412.006 119.711 417.669 114.063C423.317 108.4 474.62 107.913 474.62 107.913C474.62 107.913 423.38 107.49 417.669 101.779C411.943 96.0525 411.519 76.5827 411.519 76.5827C411.519 76.5827 411.033 96.1152 405.385 101.779C399.721 107.443 379.859 107.913 379.859 107.913Z" fill="url(#paint21_linear_1_1304)"/>
<path d="M474.256 73.8034C474.256 73.8034 454.347 74.3368 448.73 79.9534C443.129 85.5543 442.596 105.354 442.596 105.354C442.596 105.354 442.11 85.6014 436.446 79.9534C430.798 74.2898 379.496 73.8034 379.496 73.8034C379.496 73.8034 430.735 73.3798 436.446 67.6691C442.172 61.9427 442.596 42.4729 442.596 42.4729C442.596 42.4729 443.082 62.0054 448.73 67.6691C454.394 73.3327 474.256 73.8034 474.256 73.8034Z" fill="url(#paint22_linear_1_1304)"/>
<path d="M474.983 107.913C474.983 107.913 494.892 108.447 500.509 114.063C506.11 119.664 506.643 139.463 506.643 139.463C506.643 139.463 507.129 119.711 512.793 114.063C518.441 108.4 569.744 107.913 569.744 107.913C569.744 107.913 518.504 107.49 512.793 101.779C507.067 96.0525 506.643 76.5827 506.643 76.5827C506.643 76.5827 506.157 96.1152 500.509 101.779C494.845 107.443 474.983 107.913 474.983 107.913Z" fill="url(#paint23_linear_1_1304)"/>
<path d="M569.38 73.8034C569.38 73.8034 549.471 74.3368 543.854 79.9534C538.253 85.5543 537.72 105.354 537.72 105.354C537.72 105.354 537.234 85.6014 531.57 79.9534C525.922 74.2898 474.62 73.8034 474.62 73.8034C474.62 73.8034 525.859 73.3798 531.57 67.6691C537.296 61.9427 537.72 42.4729 537.72 42.4729C537.72 42.4729 538.206 62.0054 543.854 67.6691C549.518 73.3327 569.38 73.8034 569.38 73.8034Z" fill="url(#paint24_linear_1_1304)"/>
<path d="M-0.636491 -24.5596C-0.636491 -24.5596 19.2726 -24.0262 24.8892 -18.4096C30.4901 -12.8087 31.0235 6.99056 31.0235 6.99056C31.0235 6.99056 31.5099 -12.7617 37.1735 -18.4096C42.8215 -24.0733 94.1239 -24.5596 94.1239 -24.5596C94.1239 -24.5596 42.8843 -24.9832 37.1735 -30.694C31.4471 -36.4204 31.0235 -55.8902 31.0235 -55.8902C31.0235 -55.8902 30.5372 -36.3576 24.8892 -30.694C19.2255 -25.0303 -0.636491 -24.5596 -0.636491 -24.5596Z" fill="url(#paint25_linear_1_1304)"/>
<path d="M94.4873 -24.5596C94.4873 -24.5596 114.396 -24.0262 120.013 -18.4096C125.614 -12.8087 126.147 6.99056 126.147 6.99056C126.147 6.99056 126.634 -12.7617 132.297 -18.4096C137.945 -24.0733 189.248 -24.5596 189.248 -24.5596C189.248 -24.5596 138.008 -24.9832 132.297 -30.694C126.571 -36.4204 126.147 -55.8902 126.147 -55.8902C126.147 -55.8902 125.661 -36.3576 120.013 -30.694C114.349 -25.0303 94.4873 -24.5596 94.4873 -24.5596Z" fill="url(#paint26_linear_1_1304)"/>
<path d="M189.611 -24.5596C189.611 -24.5596 209.521 -24.0262 215.137 -18.4096C220.738 -12.8087 221.271 6.99056 221.271 6.99056C221.271 6.99056 221.758 -12.7617 227.421 -18.4096C233.069 -24.0733 284.372 -24.5596 284.372 -24.5596C284.372 -24.5596 233.132 -24.9832 227.421 -30.694C221.695 -36.4204 221.271 -55.8902 221.271 -55.8902C221.271 -55.8902 220.785 -36.3576 215.137 -30.694C209.473 -25.0303 189.611 -24.5596 189.611 -24.5596Z" fill="url(#paint27_linear_1_1304)"/>
<path d="M284.735 -24.5596C284.735 -24.5596 304.644 -24.0262 310.261 -18.4096C315.862 -12.8087 316.395 6.99056 316.395 6.99056C316.395 6.99056 316.882 -12.7617 322.545 -18.4096C328.193 -24.0733 379.496 -24.5596 379.496 -24.5596C379.496 -24.5596 328.256 -24.9832 322.545 -30.694C316.819 -36.4204 316.395 -55.8902 316.395 -55.8902C316.395 -55.8902 315.909 -36.3576 310.261 -30.694C304.597 -25.0303 284.735 -24.5596 284.735 -24.5596Z" fill="url(#paint28_linear_1_1304)"/>
<path d="M379.859 -24.5596C379.859 -24.5596 399.768 -24.0262 405.385 -18.4096C410.986 -12.8087 411.519 6.99056 411.519 6.99056C411.519 6.99056 412.006 -12.7617 417.669 -18.4096C423.317 -24.0733 474.62 -24.5596 474.62 -24.5596C474.62 -24.5596 423.38 -24.9832 417.669 -30.694C411.943 -36.4204 411.519 -55.8902 411.519 -55.8902C411.519 -55.8902 411.033 -36.3576 405.385 -30.694C399.721 -25.0303 379.859 -24.5596 379.859 -24.5596Z" fill="url(#paint29_linear_1_1304)"/>
<path d="M474.983 -24.5596C474.983 -24.5596 494.892 -24.0262 500.509 -18.4096C506.11 -12.8087 506.643 6.99056 506.643 6.99056C506.643 6.99056 507.129 -12.7617 512.793 -18.4096C518.441 -24.0733 569.744 -24.5596 569.744 -24.5596C569.744 -24.5596 518.504 -24.9832 512.793 -30.694C507.067 -36.4204 506.643 -55.8902 506.643 -55.8902C506.643 -55.8902 506.157 -36.3576 500.509 -30.694C494.845 -25.0303 474.983 -24.5596 474.983 -24.5596Z" fill="url(#paint30_linear_1_1304)"/>
</g>
</g>
<defs>
<radialGradient id="paint0_radial_1_1304" cx="0" cy="0" r="1" gradientUnits="userSpaceOnUse" gradientTransform="translate(53 202) rotate(-38.0696) scale(477.605 477.605)">
<stop stop-color="white"/>
<stop offset="1" stop-color="#D9D9D9" stop-opacity="0"/>
</radialGradient>
<linearGradient id="paint1_linear_1_1304" x1="-0.636491" y1="45.3572" x2="94.1275" y2="45.3572" gradientUnits="userSpaceOnUse">
<stop stop-color="white"/>
<stop offset="1" stop-color="#FFCA00" stop-opacity="0"/>
</linearGradient>
<linearGradient id="paint2_linear_1_1304" x1="93.7604" y1="11.2474" x2="-1.00355" y2="11.2474" gradientUnits="userSpaceOnUse">
<stop stop-color="white"/>
<stop offset="1" stop-color="#FFCA00" stop-opacity="0"/>
</linearGradient>
<linearGradient id="paint3_linear_1_1304" x1="94.4874" y1="45.3572" x2="189.251" y2="45.3572" gradientUnits="userSpaceOnUse">
<stop stop-color="white"/>
<stop offset="1" stop-color="#FFCA00" stop-opacity="0"/>
</linearGradient>
<linearGradient id="paint4_linear_1_1304" x1="188.884" y1="11.2474" x2="94.1204" y2="11.2474" gradientUnits="userSpaceOnUse">
<stop stop-color="white"/>
<stop offset="1" stop-color="#FFCA00" stop-opacity="0"/>
</linearGradient>
<linearGradient id="paint5_linear_1_1304" x1="189.611" y1="45.3572" x2="284.375" y2="45.3572" gradientUnits="userSpaceOnUse">
<stop stop-color="white"/>
<stop offset="1" stop-color="#FFCA00" stop-opacity="0"/>
</linearGradient>
<linearGradient id="paint6_linear_1_1304" x1="284.008" y1="11.2474" x2="189.244" y2="11.2474" gradientUnits="userSpaceOnUse">
<stop stop-color="white"/>
<stop offset="1" stop-color="#FFCA00" stop-opacity="0"/>
</linearGradient>
<linearGradient id="paint7_linear_1_1304" x1="284.735" y1="45.3572" x2="379.499" y2="45.3572" gradientUnits="userSpaceOnUse">
<stop stop-color="white"/>
<stop offset="1" stop-color="#FFCA00" stop-opacity="0"/>
</linearGradient>
<linearGradient id="paint8_linear_1_1304" x1="379.132" y1="11.2474" x2="284.368" y2="11.2474" gradientUnits="userSpaceOnUse">
<stop stop-color="white"/>
<stop offset="1" stop-color="#FFCA00" stop-opacity="0"/>
</linearGradient>
<linearGradient id="paint9_linear_1_1304" x1="379.859" y1="45.3572" x2="474.623" y2="45.3572" gradientUnits="userSpaceOnUse">
<stop stop-color="white"/>
<stop offset="1" stop-color="#FFCA00" stop-opacity="0"/>
</linearGradient>
<linearGradient id="paint10_linear_1_1304" x1="474.256" y1="11.2474" x2="379.492" y2="11.2474" gradientUnits="userSpaceOnUse">
<stop stop-color="white"/>
<stop offset="1" stop-color="#FFCA00" stop-opacity="0"/>
</linearGradient>
<linearGradient id="paint11_linear_1_1304" x1="474.983" y1="45.3572" x2="569.747" y2="45.3572" gradientUnits="userSpaceOnUse">
<stop stop-color="white"/>
<stop offset="1" stop-color="#FFCA00" stop-opacity="0"/>
</linearGradient>
<linearGradient id="paint12_linear_1_1304" x1="569.38" y1="11.2474" x2="474.616" y2="11.2474" gradientUnits="userSpaceOnUse">
<stop stop-color="white"/>
<stop offset="1" stop-color="#FFCA00" stop-opacity="0"/>
</linearGradient>
<linearGradient id="paint13_linear_1_1304" x1="-0.636491" y1="108.024" x2="94.1275" y2="108.024" gradientUnits="userSpaceOnUse">
<stop stop-color="white"/>
<stop offset="1" stop-color="#FFCA00" stop-opacity="0"/>
</linearGradient>
<linearGradient id="paint14_linear_1_1304" x1="93.7604" y1="73.9141" x2="-1.00355" y2="73.9141" gradientUnits="userSpaceOnUse">
<stop stop-color="white"/>
<stop offset="1" stop-color="#FFCA00" stop-opacity="0"/>
</linearGradient>
<linearGradient id="paint15_linear_1_1304" x1="94.4873" y1="108.024" x2="189.251" y2="108.024" gradientUnits="userSpaceOnUse">
<stop stop-color="white"/>
<stop offset="1" stop-color="#FFCA00" stop-opacity="0"/>
</linearGradient>
<linearGradient id="paint16_linear_1_1304" x1="188.884" y1="73.9141" x2="94.1203" y2="73.9141" gradientUnits="userSpaceOnUse">
<stop stop-color="white"/>
<stop offset="1" stop-color="#FFCA00" stop-opacity="0"/>
</linearGradient>
<linearGradient id="paint17_linear_1_1304" x1="189.611" y1="108.024" x2="284.375" y2="108.024" gradientUnits="userSpaceOnUse">
<stop stop-color="white"/>
<stop offset="1" stop-color="#FFCA00" stop-opacity="0"/>
</linearGradient>
<linearGradient id="paint18_linear_1_1304" x1="284.008" y1="73.9141" x2="189.244" y2="73.9141" gradientUnits="userSpaceOnUse">
<stop stop-color="white"/>
<stop offset="1" stop-color="#FFCA00" stop-opacity="0"/>
</linearGradient>
<linearGradient id="paint19_linear_1_1304" x1="284.735" y1="108.024" x2="379.499" y2="108.024" gradientUnits="userSpaceOnUse">
<stop stop-color="white"/>
<stop offset="1" stop-color="#FFCA00" stop-opacity="0"/>
</linearGradient>
<linearGradient id="paint20_linear_1_1304" x1="379.132" y1="73.9141" x2="284.368" y2="73.9141" gradientUnits="userSpaceOnUse">
<stop stop-color="white"/>
<stop offset="1" stop-color="#FFCA00" stop-opacity="0"/>
</linearGradient>
<linearGradient id="paint21_linear_1_1304" x1="379.859" y1="108.024" x2="474.623" y2="108.024" gradientUnits="userSpaceOnUse">
<stop stop-color="white"/>
<stop offset="1" stop-color="#FFCA00" stop-opacity="0"/>
</linearGradient>
<linearGradient id="paint22_linear_1_1304" x1="474.256" y1="73.9141" x2="379.492" y2="73.9141" gradientUnits="userSpaceOnUse">
<stop stop-color="white"/>
<stop offset="1" stop-color="#FFCA00" stop-opacity="0"/>
</linearGradient>
<linearGradient id="paint23_linear_1_1304" x1="474.983" y1="108.024" x2="569.747" y2="108.024" gradientUnits="userSpaceOnUse">
<stop stop-color="white"/>
<stop offset="1" stop-color="#FFCA00" stop-opacity="0"/>
</linearGradient>
<linearGradient id="paint24_linear_1_1304" x1="569.38" y1="73.9141" x2="474.616" y2="73.9141" gradientUnits="userSpaceOnUse">
<stop stop-color="white"/>
<stop offset="1" stop-color="#FFCA00" stop-opacity="0"/>
</linearGradient>
<linearGradient id="paint25_linear_1_1304" x1="-0.636491" y1="-24.4489" x2="94.1275" y2="-24.4489" gradientUnits="userSpaceOnUse">
<stop stop-color="white"/>
<stop offset="1" stop-color="#FFCA00" stop-opacity="0"/>
</linearGradient>
<linearGradient id="paint26_linear_1_1304" x1="94.4873" y1="-24.4489" x2="189.251" y2="-24.4489" gradientUnits="userSpaceOnUse">
<stop stop-color="white"/>
<stop offset="1" stop-color="#FFCA00" stop-opacity="0"/>
</linearGradient>
<linearGradient id="paint27_linear_1_1304" x1="189.611" y1="-24.4489" x2="284.375" y2="-24.4489" gradientUnits="userSpaceOnUse">
<stop stop-color="white"/>
<stop offset="1" stop-color="#FFCA00" stop-opacity="0"/>
</linearGradient>
<linearGradient id="paint28_linear_1_1304" x1="284.735" y1="-24.4489" x2="379.499" y2="-24.4489" gradientUnits="userSpaceOnUse">
<stop stop-color="white"/>
<stop offset="1" stop-color="#FFCA00" stop-opacity="0"/>
</linearGradient>
<linearGradient id="paint29_linear_1_1304" x1="379.859" y1="-24.4489" x2="474.623" y2="-24.4489" gradientUnits="userSpaceOnUse">
<stop stop-color="white"/>
<stop offset="1" stop-color="#FFCA00" stop-opacity="0"/>
</linearGradient>
<linearGradient id="paint30_linear_1_1304" x1="474.983" y1="-24.4489" x2="569.747" y2="-24.4489" gradientUnits="userSpaceOnUse">
<stop stop-color="white"/>
<stop offset="1" stop-color="#FFCA00" stop-opacity="0"/>
</linearGradient>
<clipPath id="clip0_1_1304">
<rect width="593" height="84" fill="white" transform="translate(-1)"/>
</clipPath>
</defs>
</svg>
