<svg width="76" height="65" viewBox="0 0 76 65" fill="none" xmlns="http://www.w3.org/2000/svg">
<path d="M4 63.5C10.911 62.9241 14 55.6151 14 52.0156L29 52C24.5 65 9 65 4 65V63.5Z" fill="#FFCB00"/>
<rect width="66" height="52" rx="12" fill="#FFCB00"/>
<g filter="url(#filter0_b_54_650)">
<mask id="path-3-inside-1_54_650" fill="white">
<path fill-rule="evenodd" clip-rule="evenodd" d="M67.75 43.0001C67.75 43.6234 67.695 44.2101 67.6216 44.7967L71.4899 47.8217C71.8383 48.0967 71.93 48.5917 71.7099 48.9951L68.0433 55.3384C67.8233 55.7417 67.3466 55.9067 66.9249 55.7418L62.3599 53.9084C61.4066 54.6234 60.38 55.2467 59.2616 55.7051L58.565 60.5634C58.51 61.0034 58.125 61.3334 57.6666 61.3334H50.3333C49.8749 61.3334 49.49 61.0034 49.4349 60.5634L48.7383 55.7051C47.62 55.2467 46.5933 54.6417 45.6399 53.9084L41.0749 55.7418C40.6716 55.8884 40.1766 55.7417 39.9566 55.3384L36.2899 48.9951C36.0699 48.5917 36.1616 48.0967 36.5099 47.8217L40.3783 44.7967C40.3049 44.2101 40.2499 43.6051 40.2499 43.0001C40.2499 42.3951 40.3049 41.7901 40.3783 41.2034L36.5099 38.1784C36.1616 37.9034 36.0516 37.4084 36.2899 37.0051L39.9566 30.6617C40.1766 30.2584 40.6533 30.0934 41.0749 30.2584L45.6399 32.0917C46.5933 31.3767 47.62 30.7534 48.7383 30.2951L49.4349 25.4367C49.49 24.9967 49.8749 24.6667 50.3333 24.6667H57.6666C58.125 24.6667 58.51 24.9967 58.565 25.4367L59.2616 30.2951C60.38 30.7534 61.4066 31.3584 62.3599 32.0917L66.9249 30.2584C67.3283 30.1117 67.8233 30.2584 68.0433 30.6617L71.7099 37.0051C71.93 37.4084 71.8383 37.9034 71.4899 38.1784L67.6216 41.2034C67.695 41.7901 67.75 42.3767 67.75 43.0001ZM47.5833 43.0001C47.5833 46.5384 50.4616 49.4167 53.9999 49.4167C57.5383 49.4167 60.4166 46.5384 60.4166 43.0001C60.4166 39.4617 57.5383 36.5834 53.9999 36.5834C50.4616 36.5834 47.5833 39.4617 47.5833 43.0001Z"/>
</mask>
<path fill-rule="evenodd" clip-rule="evenodd" d="M67.75 43.0001C67.75 43.6234 67.695 44.2101 67.6216 44.7967L71.4899 47.8217C71.8383 48.0967 71.93 48.5917 71.7099 48.9951L68.0433 55.3384C67.8233 55.7417 67.3466 55.9067 66.9249 55.7418L62.3599 53.9084C61.4066 54.6234 60.38 55.2467 59.2616 55.7051L58.565 60.5634C58.51 61.0034 58.125 61.3334 57.6666 61.3334H50.3333C49.8749 61.3334 49.49 61.0034 49.4349 60.5634L48.7383 55.7051C47.62 55.2467 46.5933 54.6417 45.6399 53.9084L41.0749 55.7418C40.6716 55.8884 40.1766 55.7417 39.9566 55.3384L36.2899 48.9951C36.0699 48.5917 36.1616 48.0967 36.5099 47.8217L40.3783 44.7967C40.3049 44.2101 40.2499 43.6051 40.2499 43.0001C40.2499 42.3951 40.3049 41.7901 40.3783 41.2034L36.5099 38.1784C36.1616 37.9034 36.0516 37.4084 36.2899 37.0051L39.9566 30.6617C40.1766 30.2584 40.6533 30.0934 41.0749 30.2584L45.6399 32.0917C46.5933 31.3767 47.62 30.7534 48.7383 30.2951L49.4349 25.4367C49.49 24.9967 49.8749 24.6667 50.3333 24.6667H57.6666C58.125 24.6667 58.51 24.9967 58.565 25.4367L59.2616 30.2951C60.38 30.7534 61.4066 31.3584 62.3599 32.0917L66.9249 30.2584C67.3283 30.1117 67.8233 30.2584 68.0433 30.6617L71.7099 37.0051C71.93 37.4084 71.8383 37.9034 71.4899 38.1784L67.6216 41.2034C67.695 41.7901 67.75 42.3767 67.75 43.0001ZM47.5833 43.0001C47.5833 46.5384 50.4616 49.4167 53.9999 49.4167C57.5383 49.4167 60.4166 46.5384 60.4166 43.0001C60.4166 39.4617 57.5383 36.5834 53.9999 36.5834C50.4616 36.5834 47.5833 39.4617 47.5833 43.0001Z" fill="white" fill-opacity="0.3"/>
<path d="M67.6216 44.7967L66.6293 44.6727L66.559 45.2353L67.0056 45.5845L67.6216 44.7967ZM71.4899 47.8217L72.1096 47.0369L72.106 47.034L71.4899 47.8217ZM71.7099 48.9951L72.5757 49.4955L72.5819 49.4848L72.5878 49.4739L71.7099 48.9951ZM68.0433 55.3384L67.1775 54.838L67.1713 54.8487L67.1654 54.8596L68.0433 55.3384ZM66.9249 55.7418L66.5523 56.6698L66.5606 56.673L66.9249 55.7418ZM62.3599 53.9084L62.7326 52.9805L62.2103 52.7707L61.7599 53.1084L62.3599 53.9084ZM59.2616 55.7051L58.8824 54.7798L58.353 54.9968L58.2717 55.5631L59.2616 55.7051ZM58.565 60.5634L57.5751 60.4215L57.5738 60.4304L57.5727 60.4394L58.565 60.5634ZM49.4349 60.5634L50.4272 60.4394L50.4261 60.4304L50.4248 60.4215L49.4349 60.5634ZM48.7383 55.7051L49.7282 55.5631L49.6469 54.9968L49.1175 54.7798L48.7383 55.7051ZM45.6399 53.9084L46.2497 53.1158L45.7971 52.7677L45.2673 52.9805L45.6399 53.9084ZM41.0749 55.7418L41.4167 56.6815L41.4323 56.6759L41.4476 56.6697L41.0749 55.7418ZM39.9566 55.3384L40.8345 54.8596L40.8286 54.8487L40.8224 54.838L39.9566 55.3384ZM36.2899 48.9951L35.4121 49.4739L35.418 49.4848L35.4242 49.4955L36.2899 48.9951ZM36.5099 47.8217L35.8939 47.034L35.8903 47.0369L36.5099 47.8217ZM40.3783 44.7967L40.9943 45.5845L41.4409 45.2353L41.3706 44.6727L40.3783 44.7967ZM40.3783 41.2034L41.3706 41.3275L41.4409 40.7649L40.9943 40.4157L40.3783 41.2034ZM36.5099 38.1784L35.8903 38.9633L35.8939 38.9662L36.5099 38.1784ZM36.2899 37.0051L37.1509 37.5138L37.1557 37.5055L36.2899 37.0051ZM39.9566 30.6617L40.8224 31.1622L40.8286 31.1515L40.8345 31.1406L39.9566 30.6617ZM41.0749 30.2584L41.4476 29.3304L41.4393 29.3272L41.0749 30.2584ZM45.6399 32.0917L45.2673 33.0197L45.7896 33.2295L46.24 32.8917L45.6399 32.0917ZM48.7383 30.2951L49.1175 31.2204L49.6469 31.0034L49.7282 30.437L48.7383 30.2951ZM49.4349 25.4367L50.4248 25.5787L50.4261 25.5697L50.4272 25.5608L49.4349 25.4367ZM58.565 25.4367L57.5727 25.5608L57.5738 25.5697L57.5751 25.5787L58.565 25.4367ZM59.2616 30.2951L58.2717 30.437L58.353 31.0034L58.8824 31.2204L59.2616 30.2951ZM62.3599 32.0917L61.7502 32.8844L62.2028 33.2325L62.7326 33.0197L62.3599 32.0917ZM66.9249 30.2584L66.5832 29.3186L66.5676 29.3243L66.5523 29.3305L66.9249 30.2584ZM68.0433 30.6617L67.1654 31.1406L67.1713 31.1515L67.1775 31.1622L68.0433 30.6617ZM71.7099 37.0051L72.5878 36.5262L72.5819 36.5154L72.5757 36.5046L71.7099 37.0051ZM71.4899 38.1784L72.106 38.9662L72.1096 38.9633L71.4899 38.1784ZM67.6216 41.2034L67.0056 40.4157L66.559 40.7649L66.6293 41.3275L67.6216 41.2034ZM68.6139 44.9208C68.6897 44.3146 68.75 43.6821 68.75 43.0001H66.75C66.75 43.5647 66.7002 44.1056 66.6293 44.6727L68.6139 44.9208ZM72.106 47.034L68.2376 44.009L67.0056 45.5845L70.8739 48.6095L72.106 47.034ZM72.5878 49.4739C73.027 48.6688 72.8634 47.632 72.1096 47.0369L70.8703 48.6066C70.845 48.5866 70.8332 48.5608 70.8301 48.5439C70.8271 48.5279 70.8309 48.5183 70.8321 48.5162L72.5878 49.4739ZM68.9091 55.8389L72.5757 49.4955L70.8442 48.4946L67.1775 54.838L68.9091 55.8389ZM66.5606 56.673C67.4396 57.017 68.4542 56.6735 68.9212 55.8173L67.1654 54.8596C67.176 54.8401 67.1978 54.8206 67.2241 54.8112C67.249 54.8023 67.2731 54.8041 67.2893 54.8105L66.5606 56.673ZM61.9873 54.8364L66.5523 56.6697L67.2976 54.8138L62.7326 52.9805L61.9873 54.8364ZM59.6408 56.6304C60.8546 56.1329 61.9549 55.4622 62.9599 54.7084L61.7599 53.1084C60.8583 53.7846 59.9053 54.3606 58.8824 54.7798L59.6408 56.6304ZM59.5548 60.7054L60.2515 55.847L58.2717 55.5631L57.5751 60.4215L59.5548 60.7054ZM57.6666 62.3334C58.6031 62.3334 59.4365 61.6534 59.5572 60.6875L57.5727 60.4394C57.5776 60.3998 57.5978 60.37 57.6162 60.3542C57.6343 60.3387 57.6534 60.3334 57.6666 60.3334V62.3334ZM50.3333 62.3334H57.6666V60.3334H50.3333V62.3334ZM48.4427 60.6875C48.5634 61.6534 49.3968 62.3334 50.3333 62.3334V60.3334C50.3465 60.3334 50.3656 60.3387 50.3837 60.3542C50.4021 60.37 50.4223 60.3998 50.4272 60.4394L48.4427 60.6875ZM47.7484 55.847L48.4451 60.7054L50.4248 60.4215L49.7282 55.5631L47.7484 55.847ZM45.0302 54.701C46.0488 55.4846 47.1523 56.1358 48.3591 56.6304L49.1175 54.7798C48.0876 54.3577 47.1378 53.7989 46.2497 53.1158L45.0302 54.701ZM41.4476 56.6697L46.0126 54.8364L45.2673 52.9805L40.7023 54.8138L41.4476 56.6697ZM39.0787 55.8173C39.5625 56.7042 40.604 56.9771 41.4167 56.6815L40.7332 54.802C40.7441 54.798 40.7517 54.7974 40.7556 54.7973C40.7595 54.7973 40.7638 54.7978 40.7697 54.7998C40.7758 54.8019 40.7865 54.8067 40.7992 54.8171C40.8128 54.8281 40.8255 54.843 40.8345 54.8596L39.0787 55.8173ZM35.4242 49.4955L39.0908 55.8389L40.8224 54.838L37.1557 48.4946L35.4242 49.4955ZM35.8903 47.0369C35.1365 47.632 34.9729 48.6688 35.4121 49.4739L37.1678 48.5162C37.169 48.5183 37.1728 48.5279 37.1698 48.5439C37.1667 48.5608 37.1549 48.5866 37.1296 48.6066L35.8903 47.0369ZM39.7623 44.009L35.8939 47.034L37.126 48.6095L40.9943 45.5845L39.7623 44.009ZM39.2499 43.0001C39.2499 43.6632 39.3101 44.3136 39.386 44.9208L41.3706 44.6727C41.2998 44.1065 41.2499 43.547 41.2499 43.0001H39.2499ZM39.386 41.0794C39.3101 41.6865 39.2499 42.337 39.2499 43.0001H41.2499C41.2499 42.4532 41.2998 41.8936 41.3706 41.3275L39.386 41.0794ZM35.8939 38.9662L39.7623 41.9912L40.9943 40.4157L37.126 37.3907L35.8939 38.9662ZM35.429 36.4964C34.9264 37.347 35.1644 38.3902 35.8903 38.9633L37.1296 37.3935C37.1452 37.4058 37.1567 37.4242 37.1609 37.4458C37.1659 37.4708 37.1606 37.4974 37.1509 37.5138L35.429 36.4964ZM39.0908 30.1613L35.4242 36.5046L37.1557 37.5055L40.8224 31.1622L39.0908 30.1613ZM41.4393 29.3272C40.5603 28.9832 39.5457 29.3267 39.0787 30.1829L40.8345 31.1406C40.8239 31.1601 40.8021 31.1796 40.7758 31.1889C40.7509 31.1978 40.7268 31.196 40.7106 31.1897L41.4393 29.3272ZM46.0126 31.1638L41.4476 29.3305L40.7023 31.1864L45.2673 33.0197L46.0126 31.1638ZM48.3591 29.3698C47.1453 29.8672 46.045 30.538 45.0399 31.2917L46.24 32.8917C47.1416 32.2155 48.0946 31.6396 49.1175 31.2204L48.3591 29.3698ZM48.4451 25.2948L47.7484 30.1531L49.7282 30.437L50.4248 25.5787L48.4451 25.2948ZM50.3333 23.6667C49.3968 23.6667 48.5634 24.3467 48.4427 25.3127L50.4272 25.5608C50.4223 25.6004 50.4021 25.6302 50.3837 25.646C50.3656 25.6614 50.3465 25.6667 50.3333 25.6667V23.6667ZM57.6666 23.6667H50.3333V25.6667H57.6666V23.6667ZM59.5572 25.3127C59.4365 24.3467 58.6031 23.6667 57.6666 23.6667V25.6667C57.6534 25.6667 57.6343 25.6614 57.6162 25.646C57.5978 25.6302 57.5776 25.6004 57.5727 25.5608L59.5572 25.3127ZM60.2515 30.1531L59.5548 25.2948L57.5751 25.5787L58.2717 30.437L60.2515 30.1531ZM62.9697 31.2991C61.9511 30.5156 60.8476 29.8643 59.6408 29.3698L58.8824 31.2204C59.9123 31.6425 60.8621 32.2012 61.7502 32.8844L62.9697 31.2991ZM66.5523 29.3305L61.9873 31.1638L62.7326 33.0197L67.2976 31.1864L66.5523 29.3305ZM68.9212 30.1829C68.4374 29.2959 67.3959 29.0231 66.5832 29.3186L67.2667 31.1982C67.2558 31.2022 67.2482 31.2028 67.2443 31.2028C67.2404 31.2028 67.2361 31.2023 67.2302 31.2003C67.2241 31.1983 67.2134 31.1935 67.2007 31.1831C67.1871 31.1721 67.1744 31.1572 67.1654 31.1406L68.9212 30.1829ZM72.5757 36.5046L68.9091 30.1613L67.1775 31.1622L70.8442 37.5055L72.5757 36.5046ZM72.1096 38.9633C72.8634 38.3682 73.027 37.3313 72.5878 36.5262L70.8321 37.4839C70.8309 37.4819 70.8271 37.4723 70.8301 37.4562C70.8332 37.4394 70.845 37.4135 70.8703 37.3935L72.1096 38.9633ZM68.2376 41.9912L72.106 38.9662L70.8739 37.3907L67.0056 40.4157L68.2376 41.9912ZM68.75 43.0001C68.75 42.3181 68.6897 41.6856 68.6139 41.0794L66.6293 41.3275C66.7002 41.8946 66.75 42.4354 66.75 43.0001H68.75ZM53.9999 48.4167C51.0139 48.4167 48.5833 45.9861 48.5833 43.0001H46.5833C46.5833 47.0907 49.9093 50.4167 53.9999 50.4167V48.4167ZM59.4166 43.0001C59.4166 45.9861 56.986 48.4167 53.9999 48.4167V50.4167C58.0906 50.4167 61.4166 47.0907 61.4166 43.0001H59.4166ZM53.9999 37.5834C56.986 37.5834 59.4166 40.014 59.4166 43.0001H61.4166C61.4166 38.9095 58.0906 35.5834 53.9999 35.5834V37.5834ZM48.5833 43.0001C48.5833 40.014 51.0139 37.5834 53.9999 37.5834V35.5834C49.9093 35.5834 46.5833 38.9095 46.5833 43.0001H48.5833Z" fill="url(#paint0_linear_54_650)" mask="url(#path-3-inside-1_54_650)"/>
</g>
<defs>
<filter id="filter0_b_54_650" x="26.1628" y="14.6667" width="55.6661" height="56.6667" filterUnits="userSpaceOnUse" color-interpolation-filters="sRGB">
<feFlood flood-opacity="0" result="BackgroundImageFix"/>
<feGaussianBlur in="BackgroundImageFix" stdDeviation="5"/>
<feComposite in2="SourceAlpha" operator="in" result="effect1_backgroundBlur_54_650"/>
<feBlend mode="normal" in="SourceGraphic" in2="effect1_backgroundBlur_54_650" result="shape"/>
</filter>
<linearGradient id="paint0_linear_54_650" x1="69.5441" y1="39.4861" x2="36.5221" y2="39.4012" gradientUnits="userSpaceOnUse">
<stop stop-color="#FFCB00"/>
<stop offset="1" stop-color="#EA762C"/>
</linearGradient>
</defs>
</svg>
