<svg width="45" height="45" viewBox="0 0 45 45" fill="none" xmlns="http://www.w3.org/2000/svg">
<g clip-path="url(#clip0_24_418)">
<path d="M0 21.5955C0 11.4196 0 6.33166 3.16583 3.16583C6.33166 0 11.4196 0 21.5955 0H23.4045C33.5804 0 38.6683 0 41.8342 3.16583C45 6.33166 45 11.4196 45 21.5955V23.4045C45 33.5804 45 38.6683 41.8342 41.8342C38.6683 45 33.5804 45 23.4045 45H21.5955C11.4196 45 6.33166 45 3.16583 41.8342C0 38.6683 0 33.5804 0 23.4045V21.5955Z" fill="#FF8800" fill-opacity="0.1"/>
<path d="M27.8593 19.6281C26.4799 21.0075 24.5804 21.8668 22.4774 21.8668C20.3744 21.8668 18.4749 21.0075 17.0955 19.6281C15.7161 18.2487 14.8568 16.3492 14.8568 14.2462C14.8568 12.1432 15.7161 10.2437 17.0955 8.86432C18.4749 7.48492 20.3744 6.62563 22.4774 6.62563C24.5804 6.62563 26.4799 7.48492 27.8593 8.86432C29.2387 10.2437 30.098 12.1432 30.098 14.2462C30.098 16.3492 29.2387 18.2487 27.8593 19.6281ZM22.4774 10.7638C21.5276 10.7638 20.6683 11.1482 20.0352 11.7814C19.402 12.4146 19.0176 13.2739 19.0176 14.2236C19.0176 15.1734 19.402 16.0327 20.0352 16.6658C20.6683 17.299 21.5276 17.6834 22.4774 17.6834C23.4271 17.6834 24.2864 17.299 24.9196 16.6658C25.5528 16.0327 25.9372 15.1734 25.9372 14.2236C25.9372 13.2739 25.5528 12.4146 24.9196 11.7814C24.2864 11.1709 23.4271 10.7638 22.4774 10.7638ZM30.4824 21.8894L32.7211 24.9422C32.8342 25.1005 32.8116 25.304 32.6533 25.4171C30.7764 26.9548 28.5829 27.9724 26.299 28.5151L30.6181 36.8367C30.7312 37.0854 30.5729 37.3568 30.3015 37.3568H25.6884C25.5528 37.3568 25.4171 37.2663 25.3492 37.1306L22.4774 30.2563L19.5829 37.108C19.5377 37.2437 19.402 37.3342 19.2437 37.3342H14.6307C14.3593 37.3342 14.201 37.0402 14.3141 36.8141L18.6332 28.5151C16.3492 27.9724 14.1784 26.9548 12.2789 25.4171C12.1432 25.304 12.098 25.0779 12.2111 24.9422L14.4497 21.8894C14.5854 21.7085 14.8116 21.6859 14.9698 21.8216C17.0729 23.608 19.6734 24.7839 22.4548 24.7839C25.2362 24.7839 27.8141 23.6306 29.9397 21.8216C30.1206 21.6859 30.3693 21.7085 30.4824 21.8894Z" fill="#FF8800"/>
</g>
<defs>
<clipPath id="clip0_24_418">
<rect width="45" height="45" fill="white"/>
</clipPath>
</defs>
</svg>
