<svg width="45" height="45" viewBox="0 0 45 45" fill="none" xmlns="http://www.w3.org/2000/svg">
<path opacity="0.5" fill-rule="evenodd" clip-rule="evenodd" d="M29.4073 0H15.5928C2.98524 0 0 2.98519 0 15.5929V29.4071C0 42.0148 2.98524 45 15.5928 45H29.4073C42.0148 45 45 42.0148 45 29.4071V15.5929C45 2.98519 42.0148 0 29.4073 0Z" fill="#818181"/>
<path d="M26.5785 16.5236H14V30.9998H17.501V26.2901H24.2094L27.2702 30.9998H31.1905L27.8153 26.2685C28.8635 26.0949 29.6182 25.6825 30.0794 25.0314C30.5406 24.3803 30.7712 23.3385 30.7712 21.9495V20.8644C30.7712 20.0396 30.6874 19.3885 30.5406 18.8893C30.3938 18.3901 30.1423 17.9561 29.7859 17.5654C29.4085 17.1964 28.9893 16.936 28.4861 16.7624C27.983 16.6104 27.354 16.5236 26.5785 16.5236ZM26.0124 23.0998H17.501V19.714H26.0124C26.4946 19.714 26.83 19.8009 26.9977 19.9528C27.1654 20.1047 27.2702 20.3868 27.2702 20.7992V22.0146C27.2702 22.4487 27.1654 22.7308 26.9977 22.8827C26.83 23.0346 26.4946 23.0998 26.0124 23.0998Z" fill="white"/>
<path d="M31.1907 15.619C32.1896 15.619 32.9999 14.8089 32.9999 13.8095C32.9999 12.8102 32.1896 12 31.1907 12C30.1912 12 29.3809 12.8102 29.3809 13.8095C29.3809 14.8089 30.1912 15.619 31.1907 15.619Z" fill="#F41240"/>
</svg>
