<svg width="60" height="60" viewBox="0 0 60 60" fill="none" xmlns="http://www.w3.org/2000/svg">
<path fill-rule="evenodd" clip-rule="evenodd" d="M39.2098 0H20.7905C3.98033 0 0 3.98025 0 20.7905V39.2095C0 56.0197 3.98033 60 20.7905 60H39.2098C56.0198 60 60 56.0197 60 39.2095V20.7905C60 3.98025 56.0198 0 39.2098 0Z" fill="#EA762C"/>
<mask id="mask0_54_634" style="mask-type:alpha" maskUnits="userSpaceOnUse" x="0" y="0" width="60" height="60">
<path fill-rule="evenodd" clip-rule="evenodd" d="M39.2098 0H20.7905C3.98033 0 0 3.98025 0 20.7905V39.2095C0 56.0197 3.98033 60 20.7905 60H39.2098C56.0198 60 60 56.0197 60 39.2095V20.7905C60 3.98025 56.0198 0 39.2098 0Z" fill="#EA762C"/>
</mask>
<g mask="url(#mask0_54_634)">
<path d="M5.34693 16.0002L42.0136 13.3335L62.0136 60.0002H16.0136C16.0079 49.5326 15.6614 38.7166 15.3469 34.0002C14.6803 24.0002 8.0136 18.0002 5.34693 16.0002Z" fill="#C9BDBD"/>
<path d="M11.9889 8.10063C32.9132 7.46417 47.0191 9.85558 66.6556 15.434L67.9889 61.4339L23.3222 60.7673V33.4339C23.3222 24.7673 19.3222 12.1006 11.9889 8.10063Z" fill="#F3F3F3"/>
<path opacity="0.3" d="M33.321 24.0005C42.659 25.2222 57.0247 26.6127 59.9876 26.6127M33.321 35.1025C43.4023 35.8944 54.8025 36.4086 59.9876 36.4086M33.321 45.5515H59.9876M33.321 56.0005L59.9876 54.6944" stroke="#353433" stroke-width="2"/>
</g>
</svg>
