<svg width="45" height="45" viewBox="0 0 45 45" fill="none" xmlns="http://www.w3.org/2000/svg">
<g clip-path="url(#clip0_24_421)">
<mask id="mask0_24_421" style="mask-type:luminance" maskUnits="userSpaceOnUse" x="0" y="0" width="45" height="45">
<path d="M33.75 0H11.25C5.0368 0 0 5.0368 0 11.25V33.75C0 39.9632 5.0368 45 11.25 45H33.75C39.9632 45 45 39.9632 45 33.75V11.25C45 5.0368 39.9632 0 33.75 0Z" fill="white"/>
</mask>
<g mask="url(#mask0_24_421)">
<path d="M0 21.6C0 11.4176 2.23517e-07 6.32649 3.16325 3.16325C6.32649 0 11.4176 0 21.6 0H23.4C33.5824 0 38.6735 0 41.8368 3.16325C45 6.32649 45 11.4176 45 21.6V23.4C45 33.5824 45 38.6735 41.8368 41.8368C38.6735 45 33.5824 45 23.4 45H21.6C11.4176 45 6.32649 45 3.16325 41.8368C2.23517e-07 38.6735 0 33.5824 0 23.4V21.6Z" fill="#0077FF" fill-opacity="0.1"/>
<path d="M24.0236 32.5312C13.8894 32.5312 7.74091 25.4869 7.5 13.7812H12.6327C12.7928 22.3799 16.6975 26.0236 19.691 26.7729V13.7812H24.6098V21.2019C27.497 20.8813 30.5191 17.506 31.5349 13.7812H36.3764C35.6016 18.3615 32.3115 21.7369 29.987 23.1292C32.3134 24.2549 36.0563 27.2016 37.5 32.5312H32.1785C31.0549 28.9686 28.3025 26.2091 24.6115 25.8345V32.5312H24.0236Z" fill="#0077FF"/>
</g>
</g>
<defs>
<clipPath id="clip0_24_421">
<rect width="45" height="45" fill="white"/>
</clipPath>
</defs>
</svg>
