<svg xmlns="http://www.w3.org/2000/svg" width="123" height="73" fill="none"><g fill="#D20A11" clip-path="url(#a)"><path fill-rule="evenodd" d="M60.42 49.257c-2.303-.177-4.784-.531-6.91-1.063-.355-.177-1.95-.709-2.304-.886-7.087-3.366-12.048-10.454-12.048-18.958 0-11.518 9.39-20.731 20.73-20.731s20.554 9.214 20.73 20.553h7.443C88.06 12.58 75.303 0 59.888 0c-15.592 0-28.35 12.757-28.35 28.35 0 10.808 6.025 20.199 14.884 24.983 1.595.886 3.898 1.771 4.607 1.949 2.48.708 5.67 1.24 8.328 1.417.886 0 4.252.177 5.138.177h57.408v-7.441H64.85c-.71-.178-3.721-.178-4.43-.178m4.43-11.694h-3.898c-.886 0-2.127-.177-3.013-.354s-1.772-.532-2.303-.886c-2.835-1.595-4.607-4.43-4.607-7.796 0-4.962 4.075-9.037 9.036-9.037 4.785 0 8.86 3.898 8.86 8.682h7.264c-.177-8.859-7.264-15.946-16.123-15.946S43.942 19.49 43.942 28.35c0 6.378 3.543 11.694 8.859 14.352.886.531 2.303.885 2.835 1.063 1.417.354 3.544.708 5.138.708h61.66V37.21H64.85zM26.932 56.7h-7.619V7.619H8.328V0h18.604zM0 11.339v7.265h8.328V56.7h7.264V11.34zM103.121.532c-2.658 0-4.96 2.126-4.96 4.96 0 2.659 2.302 4.962 4.96 4.962 2.835 0 4.961-2.303 4.961-4.961 0-2.835-2.126-4.961-4.961-4.961m0 9.036c-2.303 0-4.252-1.772-4.252-4.252 0-2.304 1.949-4.076 4.252-4.076s4.253 1.772 4.253 4.076c-.178 2.48-2.127 4.252-4.253 4.252" clip-rule="evenodd"/><path fill-rule="evenodd" d="M104.893 6.733c0-.531 0-1.063-.709-1.24.709-.355.886-.709.886-1.063 0-1.24-1.063-1.418-1.594-1.418h-2.127v4.961h.886V5.847h.709c1.063 0 1.063.532 1.063.886 0 .886 0 1.063.177 1.063h.886c-.177-.177 0-.354-.177-1.063m-1.595-1.595h-1.063V3.544h.886c.709 0 1.063.177 1.063.709 0 .531-.177.885-.886.885" clip-rule="evenodd"/><path d="M9.746 65.736H8.328v-2.127h3.721v9.214H9.746zm10.631 6.555c-.886.532-1.595.71-2.48.71-2.659 0-4.608-1.95-4.608-4.785 0-3.012 2.127-4.784 4.607-4.784.886 0 1.772.177 2.48.709v2.658c-.53-.532-1.24-1.064-2.126-1.064-1.417-.177-2.303 1.064-2.303 2.481 0 1.418.886 2.48 2.303 2.48.886 0 1.595-.53 2.127-1.062zm2.303-6.024c.709 0 1.24.532 1.24 1.418 0 .708-.532 1.417-1.24 1.417-.709 0-1.24-.532-1.24-1.417 0-.886.531-1.418 1.24-1.418m0 4.075c.709 0 1.24.532 1.24 1.418 0 .709-.532 1.417-1.24 1.417-.709 0-1.24-.531-1.24-1.417s.531-1.418 1.24-1.418m6.557 1.064c-1.595 0-4.253-.532-4.253-3.721s2.658-3.721 4.253-3.721v-1.063h2.48v1.063c1.595 0 4.253.532 4.253 3.72 0 3.19-2.658 3.722-4.253 3.722v1.24h-2.48zm.177-5.493c-.709 0-1.949.177-1.949 1.772s1.24 1.772 1.949 1.772zm2.126 3.72c.709 0 1.95-.176 1.95-1.771s-1.241-1.772-1.95-1.772zm5.316-6.023h3.72c2.658 0 3.367 1.771 3.367 3.011s-.709 3.013-3.367 3.013h-1.24v3.012h-2.48zm2.48 4.075h.709c1.063 0 1.24-.71 1.24-1.064 0-.531-.177-1.063-1.24-1.063h-.709zm7.088-4.075h3.012l3.19 9.213h-2.659l-.531-1.595h-3.012l-.532 1.595h-2.658zm.531 5.492h2.127l-1.24-3.366zm6.377-5.492h2.48v3.366h3.013v-3.367h2.48v9.214h-2.48v-3.72h-3.012v3.72h-2.481zm13.998 5.492c-.886.177-1.063.177-1.772.177-3.012 0-3.189-1.594-3.189-3.012V63.61h2.48v2.304c0 .709 0 1.417 1.418 1.417.177 0 .532 0 .886-.177V63.61h2.48v9.214H67.33zm6.379-5.492h3.012l3.19 9.213h-2.659l-.531-1.595h-3.012l-.532 1.595H70.52zm.531 5.492h1.95l-1.064-3.366zm8.682-5.492v5.492l3.544-5.493h2.48v9.214h-2.48V67.33l-3.544 5.493h-2.48V63.61zm4.43-1.95c-.532 1.064-1.595 1.418-2.658 1.418s-2.304-.354-2.658-1.418l1.418-.531c.177.709.886.709 1.24.709.531 0 1.063-.178 1.24-.71zm2.658 2.48c.355-.176 1.595-.885 3.013-.885 1.949 0 3.543 1.063 3.543 2.658 0 .886-.531 1.772-1.417 2.126.709.177 1.595.709 1.595 2.126 0 1.772-1.595 2.835-3.544 2.835-1.24 0-2.126-.177-3.544-1.417l1.063-1.772c.71.531 1.595 1.063 2.127 1.063 1.063 0 1.417-.709 1.417-1.063 0-.532-.354-.886-1.417-.886h-1.418v-1.772h1.418c1.063 0 1.417-.532 1.417-.886 0-.531-.532-.886-1.24-.886-.709 0-1.24.177-1.772.709zm10.1-.53v5.492l3.543-5.493h2.481v9.214h-2.481V67.33l-3.543 5.493h-2.48v-9.214zm7.087 0h2.481v3.366h3.012v-3.367h2.481v9.214h-2.481v-3.72h-3.012v3.72h-2.481zm9.391 0h5.493v2.126h-2.835v6.91h-2.481v-9.037z"/></g><defs><clipPath id="a"><path fill="#fff" d="M0 0h122.08v73H0z"/></clipPath></defs></svg>