<svg xmlns="http://www.w3.org/2000/svg" width="76" height="65" fill="none"><path fill="#FFCB00" d="M4 63.5c6.911-.576 10-7.885 10-11.484L29 52C24.5 65 9 65 4 65z"/><rect width="66" height="52" fill="#FFCB00" rx="12"/><g filter="url(#a)"><mask id="c" fill="#fff"><path fill-rule="evenodd" d="M67.75 43c0 .623-.055 1.21-.128 1.797l3.868 3.025c.348.275.44.77.22 1.173l-3.667 6.343a.895.895 0 0 1-1.118.404l-4.565-1.834c-.953.715-1.98 1.339-3.098 1.797l-.697 4.858a.894.894 0 0 1-.898.77h-7.334a.894.894 0 0 1-.898-.77l-.697-4.858a13.4 13.4 0 0 1-3.098-1.797l-4.565 1.834c-.403.146-.898 0-1.118-.404l-3.667-6.343a.925.925 0 0 1 .22-1.173l3.868-3.025A15 15 0 0 1 40.25 43c0-.605.055-1.21.128-1.797l-3.868-3.025a.904.904 0 0 1-.22-1.173l3.667-6.343a.894.894 0 0 1 1.118-.404l4.565 1.834c.953-.715 1.98-1.339 3.098-1.797l.697-4.858c.055-.44.44-.77.898-.77h7.334c.458 0 .843.33.898.77l.697 4.858a13.4 13.4 0 0 1 3.098 1.797l4.565-1.834c.403-.146.898 0 1.118.404l3.667 6.343a.925.925 0 0 1-.22 1.173l-3.868 3.025c.073.587.128 1.174.128 1.797m-20.167 0A6.424 6.424 0 0 0 54 49.417 6.424 6.424 0 0 0 60.417 43 6.424 6.424 0 0 0 54 36.583 6.424 6.424 0 0 0 47.583 43" clip-rule="evenodd"/></mask><path fill="#fff" fill-opacity=".3" fill-rule="evenodd" d="M67.75 43c0 .623-.055 1.21-.128 1.797l3.868 3.025c.348.275.44.77.22 1.173l-3.667 6.343a.895.895 0 0 1-1.118.404l-4.565-1.834c-.953.715-1.98 1.339-3.098 1.797l-.697 4.858a.894.894 0 0 1-.898.77h-7.334a.894.894 0 0 1-.898-.77l-.697-4.858a13.4 13.4 0 0 1-3.098-1.797l-4.565 1.834c-.403.146-.898 0-1.118-.404l-3.667-6.343a.925.925 0 0 1 .22-1.173l3.868-3.025A15 15 0 0 1 40.25 43c0-.605.055-1.21.128-1.797l-3.868-3.025a.904.904 0 0 1-.22-1.173l3.667-6.343a.894.894 0 0 1 1.118-.404l4.565 1.834c.953-.715 1.98-1.339 3.098-1.797l.697-4.858c.055-.44.44-.77.898-.77h7.334c.458 0 .843.33.898.77l.697 4.858a13.4 13.4 0 0 1 3.098 1.797l4.565-1.834c.403-.146.898 0 1.118.404l3.667 6.343a.925.925 0 0 1-.22 1.173l-3.868 3.025c.073.587.128 1.174.128 1.797m-20.167 0A6.424 6.424 0 0 0 54 49.417 6.424 6.424 0 0 0 60.417 43 6.424 6.424 0 0 0 54 36.583 6.424 6.424 0 0 0 47.583 43" clip-rule="evenodd"/><path fill="url(#b)" d="m67.622 44.797-.993-.124-.07.562.447.35zm3.868 3.025.62-.785-.004-.003zm.22 1.173.866.5.006-.01.006-.011zm-3.667 6.343-.866-.5-.006.01-.006.012zm-1.118.404-.373.928.009.003zm-4.565-1.834.373-.928-.523-.21-.45.338zm-3.098 1.797-.38-.925-.529.217-.081.566zm-.697 4.858-.99-.142-.001.01-.001.008zm-9.13 0 .992-.124v-.009l-.002-.008zm-.697-4.858.99-.142-.081-.566-.53-.217zm-3.098-1.797.61-.792-.453-.348-.53.212zm-4.565 1.834.342.94.015-.006.016-.006zm-1.118-.404.877-.478-.005-.011-.007-.011zm-3.667-6.343-.878.479.006.01.006.011zm.22-1.173-.616-.788-.004.003zm3.868-3.025.616.788.447-.35-.07-.562zm0-3.594.993.124.07-.562-.447-.35zm-3.868-3.025-.62.785.004.003zm-.22-1.173.86.509.006-.009zm3.667-6.343.865.5.007-.01.005-.011zm1.118-.404.373-.928-.009-.003zm4.565 1.834-.373.928.523.21.45-.338zm3.098-1.797.38.925.529-.217.081-.566zm.697-4.858.99.142.001-.01.001-.008zm9.13 0-.992.124v.009l.002.009zm.697 4.858-.99.142.081.566.53.217zm3.098 1.797-.61.792.453.349.53-.213zm4.565-1.834-.342-.94-.015.006-.016.006zm1.118.404-.878.479.006.01.006.011zm3.667 6.343.878-.479-.006-.01-.006-.011zm-.22 1.173.616.788.004-.003zm-3.868 3.025-.616-.787-.447.349.07.563zm.992 3.718a15 15 0 0 0 .136-1.92h-2c0 .564-.05 1.105-.12 1.672zm3.492 2.113-3.868-3.025-1.232 1.575 3.868 3.025zm.482 2.44c.439-.805.275-1.842-.478-2.437l-1.24 1.57a.1.1 0 0 1-.04-.063q-.003-.024.002-.028zm-3.679 6.365 3.667-6.343-1.732-1.001-3.666 6.343zm-2.348.834c.879.344 1.893 0 2.36-.856l-1.756-.957a.1.1 0 0 1 .06-.049.1.1 0 0 1 .064 0zm-4.574-1.837 4.565 1.834.746-1.856-4.565-1.834zm-2.346 1.794c1.214-.497 2.314-1.168 3.319-1.922l-1.2-1.6c-.902.677-1.855 1.253-2.878 1.672zm-.086 4.075.697-4.858-1.98-.284-.697 4.858zm-1.888 1.628c.936 0 1.77-.68 1.89-1.645l-1.984-.249a.14.14 0 0 1 .043-.085.1.1 0 0 1 .05-.02zm-7.334 0h7.334v-2h-7.334zm-1.89-1.645c.12.965.954 1.645 1.89 1.645v-2a.1.1 0 0 1 .05.021.14.14 0 0 1 .044.085zm-.695-4.841.697 4.858 1.98-.283-.697-4.859zm-2.718-1.146a14.4 14.4 0 0 0 3.33 1.93l.758-1.851a12.4 12.4 0 0 1-2.868-1.664zm-3.582 1.969 4.565-1.834-.746-1.855-4.565 1.833zm-2.37-.853c.484.887 1.526 1.16 2.339.864l-.684-1.879.023-.005q.005 0 .014.003a.1.1 0 0 1 .03.017.14.14 0 0 1 .035.043zm-3.654-6.321 3.667 6.343 1.731-1.001-3.666-6.343zm.466-2.46c-.754.596-.917 1.633-.478 2.438l1.756-.958a.05.05 0 0 1 .002.028.1.1 0 0 1-.04.063zm3.872-3.027-3.868 3.025 1.232 1.575 3.868-3.025zM39.25 43c0 .663.06 1.314.136 1.92l1.985-.247A14 14 0 0 1 41.25 43zm.136-1.92A16 16 0 0 0 39.25 43h2c0-.547.05-1.106.12-1.672zm-3.492-2.114 3.868 3.025 1.232-1.575-3.868-3.025zm-.465-2.47a1.904 1.904 0 0 0 .461 2.467l1.24-1.57q.024.02.03.053a.1.1 0 0 1-.01.068zm3.662-6.335-3.667 6.344 1.732 1 3.666-6.343zm2.348-.834a1.894 1.894 0 0 0-2.36.856l1.755.958a.1.1 0 0 1-.058.048.1.1 0 0 1-.065 0zm4.574 1.837-4.565-1.834-.746 1.856 4.565 1.834zm2.346-1.794c-1.214.497-2.314 1.168-3.32 1.922l1.201 1.6c.902-.677 1.855-1.252 2.877-1.672zm.086-4.075-.697 4.858 1.98.284.697-4.858zm1.888-1.628c-.936 0-1.77.68-1.89 1.646l1.984.248a.14.14 0 0 1-.043.085.1.1 0 0 1-.05.02zm7.334 0h-7.334v2h7.334zm1.89 1.646c-.12-.966-.954-1.646-1.89-1.646v2a.1.1 0 0 1-.05-.021.14.14 0 0 1-.044-.085zm.694 4.84-.696-4.858-1.98.284.697 4.858zM62.97 31.3a14.4 14.4 0 0 0-3.33-1.93l-.758 1.851c1.03.422 1.98.981 2.868 1.664zm3.582-1.968-4.565 1.833.746 1.856 4.565-1.834zm2.37.852c-.485-.887-1.526-1.16-2.339-.864l.684 1.88-.023.004q-.005 0-.014-.003a.1.1 0 0 1-.03-.017.14.14 0 0 1-.035-.042zm3.654 6.322-3.667-6.344-1.732 1.001 3.667 6.343zm-.466 2.458c.753-.595.917-1.632.478-2.437l-1.756.958a.05.05 0 0 1-.002-.028.1.1 0 0 1 .04-.062zm-3.872 3.028 3.868-3.025-1.232-1.575-3.868 3.025zm.512 1.01c0-.683-.06-1.315-.136-1.922l-1.985.248c.071.568.121 1.108.121 1.673zM54 48.416A5.424 5.424 0 0 1 48.583 43h-2A7.424 7.424 0 0 0 54 50.417zM59.417 43A5.424 5.424 0 0 1 54 48.417v2A7.424 7.424 0 0 0 61.417 43zM54 37.583A5.424 5.424 0 0 1 59.417 43h2A7.424 7.424 0 0 0 54 35.583zM48.583 43A5.424 5.424 0 0 1 54 37.583v-2A7.424 7.424 0 0 0 46.583 43z" mask="url(#c)"/></g><defs><linearGradient id="b" x1="69.544" x2="36.522" y1="39.486" y2="39.401" gradientUnits="userSpaceOnUse"><stop stop-color="#FFCB00"/><stop offset="1" stop-color="#EA762C"/></linearGradient><filter id="a" width="55.666" height="56.667" x="26.163" y="14.667" color-interpolation-filters="sRGB" filterUnits="userSpaceOnUse"><feFlood flood-opacity="0" result="BackgroundImageFix"/><feGaussianBlur in="BackgroundImageFix" stdDeviation="5"/><feComposite in2="SourceAlpha" operator="in" result="effect1_backgroundBlur_54_650"/><feBlend in="SourceGraphic" in2="effect1_backgroundBlur_54_650" result="shape"/></filter></defs></svg>