<svg xmlns="http://www.w3.org/2000/svg" width="176" height="99" fill="none"><g clip-path="url(#a)"><path fill="url(#b)" d="m21.835 57.514 4.905-7.871s2.413-.831 3.164-.08c.693.693-.118 3.165-.118 3.165z"/><path fill="url(#c)" d="m57.83 21.459-4.904 7.872s-2.413.83-3.165.079c-.692-.692.119-3.165.119-3.165z"/><path fill="url(#d)" fill-rule="evenodd" d="M32.179 47.25C25.099 40.168 0 39.495 0 39.495s25.039-.593 32.179-7.733C39.299 24.623 39.912 0 39.912 0s.534 24.544 7.753 31.763c7.199 7.2 71.793 7.733 71.793 7.733s-64.673.613-71.793 7.753c-7.14 7.12-7.753 32.02-7.753 32.02s-.673-24.959-7.733-32.02m-6.507-7.655c13.547 0 14.18 9.395 14.18 17.049 0-14.003 3.244-16.831 23.655-16.97-15.23 0-22.804-2.215-23.575-12.618.02-1.127-.08-1.859-.08-1.859 0 .653.04 1.266.08 1.86-.1 3.876-1.721 12.538-14.26 12.538" clip-rule="evenodd"/><path fill="#353433" d="M66.21 96q-.12 0-.187-.066a.28.28 0 0 1-.066-.187v-7.183q0-.12.066-.187a.23.23 0 0 1 .187-.077h4.235q.12 0 .187.077a.23.23 0 0 1 .077.187v.44a.26.26 0 0 1-.077.187q-.066.066-.187.066h-3.41v6.49a.26.26 0 0 1-.077.187q-.066.066-.187.066zm4.702 2.09a.26.26 0 0 1-.187-.077.24.24 0 0 1-.066-.176v-7.304q0-.11.066-.176a.26.26 0 0 1 .187-.077h.506a.22.22 0 0 1 .176.077.22.22 0 0 1 .077.176v.484a2.1 2.1 0 0 1 .704-.605q.44-.242 1.1-.242.615 0 1.045.209.44.21.715.572.286.363.429.825t.154.99a6 6 0 0 1 0 .748 3.7 3.7 0 0 1-.154.99 2.5 2.5 0 0 1-.429.825 2.06 2.06 0 0 1-.715.572q-.429.21-1.045.209-.638 0-1.078-.231a2.3 2.3 0 0 1-.704-.594v2.552a.24.24 0 0 1-.066.176.23.23 0 0 1-.187.077zm2.332-2.871q.571 0 .891-.242a1.4 1.4 0 0 0 .473-.649q.143-.407.165-.869a9 9 0 0 0 0-.638 3 3 0 0 0-.165-.858 1.33 1.33 0 0 0-.473-.649q-.32-.253-.891-.253-.54 0-.88.253-.33.253-.495.649a2.5 2.5 0 0 0-.176.792 7 7 0 0 0 0 .847q.01.386.176.759.176.375.517.616.34.242.858.242m4.006 2.871a.23.23 0 0 1-.187-.077.24.24 0 0 1-.066-.176v-.374q0-.11.066-.187.066-.066.187-.066h.286a.74.74 0 0 0 .407-.099.84.84 0 0 0 .275-.341 7 7 0 0 0 .308-.638l2.387-5.665a.3.3 0 0 1 .088-.132.3.3 0 0 1 .187-.055h.484q.098 0 .165.066a.2.2 0 0 1 .066.154q0 .045-.011.088l-.044.11-2.09 4.95q-.165.396-.363.825-.187.429-.43.792-.23.374-.55.594a1.24 1.24 0 0 1-.747.231zm1.529-2.255-2.222-5.137a.6.6 0 0 1-.055-.187.27.27 0 0 1 .077-.165.2.2 0 0 1 .154-.066h.517q.121 0 .176.055a.35.35 0 0 1 .099.132l1.826 4.367zm4.486.165a.28.28 0 0 1-.187-.066.28.28 0 0 1-.066-.187v-5.214q0-.11.066-.176a.26.26 0 0 1 .187-.077h4.367a.22.22 0 0 1 .176.077.22.22 0 0 1 .077.176v5.214a.25.25 0 0 1-.077.187.24.24 0 0 1-.176.066h-.528a.24.24 0 0 1-.176-.066.28.28 0 0 1-.066-.187V91.16h-2.827v4.587a.28.28 0 0 1-.066.187.24.24 0 0 1-.176.066zm6.51 0a.28.28 0 0 1-.187-.066.28.28 0 0 1-.066-.187v-5.214q0-.11.066-.176a.26.26 0 0 1 .187-.077h4.367a.22.22 0 0 1 .176.077.22.22 0 0 1 .077.176v5.214a.26.26 0 0 1-.077.187.24.24 0 0 1-.176.066h-.528a.24.24 0 0 1-.176-.066.28.28 0 0 1-.066-.187V91.16h-2.827v4.587a.28.28 0 0 1-.066.187.24.24 0 0 1-.176.066zm7.852.11q-.55 0-1.001-.22a1.94 1.94 0 0 1-.726-.594 1.4 1.4 0 0 1-.275-.847q0-.76.616-1.21.615-.45 1.606-.594l1.639-.231v-.319q0-.528-.308-.825-.297-.297-.98-.297-.495 0-.802.198-.297.198-.418.506-.066.165-.231.165h-.495q-.12 0-.187-.066a.3.3 0 0 1-.055-.176q0-.165.12-.407.132-.242.397-.473.264-.23.67-.385.42-.165 1.013-.165.66 0 1.11.176.451.165.705.451.263.285.374.649.12.363.121.737v3.564a.26.26 0 0 1-.077.187.24.24 0 0 1-.176.066h-.506q-.12 0-.187-.066a.28.28 0 0 1-.066-.187v-.473a2.2 2.2 0 0 1-.385.396 2.2 2.2 0 0 1-.605.319q-.364.12-.891.121m.23-.825q.451 0 .826-.187a1.37 1.37 0 0 0 .583-.605q.22-.406.22-1.023v-.308l-1.276.187q-.78.11-1.177.374-.396.253-.396.649 0 .308.176.517.186.198.462.297.286.099.583.099m7.193.715a.28.28 0 0 1-.187-.066.28.28 0 0 1-.066-.187v-5.214q0-.11.066-.176a.26.26 0 0 1 .187-.077h.517a.22.22 0 0 1 .176.077.22.22 0 0 1 .077.176v2.112h1.001l1.485-2.2a.5.5 0 0 1 .121-.121.3.3 0 0 1 .176-.044h.572q.099 0 .165.044t.066.132a.2.2 0 0 1-.022.066.3.3 0 0 1-.033.066l-1.65 2.431 1.87 2.662a.22.22 0 0 1 .055.143.15.15 0 0 1-.066.132.24.24 0 0 1-.154.044h-.671a.3.3 0 0 1-.165-.044.5.5 0 0 1-.121-.121l-1.617-2.299h-1.012v2.211a.25.25 0 0 1-.077.187.24.24 0 0 1-.176.066zm7.719.11q-.836 0-1.397-.319a2.15 2.15 0 0 1-.858-.88 3.1 3.1 0 0 1-.33-1.298 9 9 0 0 1-.011-.473q0-.297.011-.473a3 3 0 0 1 .33-1.298q.308-.56.869-.88t1.386-.319 1.386.319q.561.32.858.88.309.561.341 1.298.011.176.011.473 0 .285-.011.473a3.1 3.1 0 0 1-.33 1.298 2.15 2.15 0 0 1-.858.88q-.56.32-1.397.319m0-.847q.683 0 1.089-.429.408-.44.44-1.276.012-.165.011-.418 0-.253-.011-.418-.033-.836-.44-1.265-.406-.44-1.089-.44-.681 0-1.1.44-.407.43-.429 1.265a7 7 0 0 0-.011.418q0 .253.011.418.022.836.429 1.276.419.429 1.1.429m4.216.737a.24.24 0 0 1-.176-.066.24.24 0 0 1-.066-.176v-5.269q0-.088.066-.143a.24.24 0 0 1 .154-.066h.561q.176 0 .275.176l1.87 3.498 1.881-3.498q.099-.176.275-.176h.55q.088 0 .154.066a.18.18 0 0 1 .066.143v5.269a.24.24 0 0 1-.066.176.22.22 0 0 1-.165.066h-.539a.24.24 0 0 1-.176-.066.24.24 0 0 1-.066-.176v-4.389l.385.044-1.793 3.388a1 1 0 0 1-.132.198q-.078.088-.231.088h-.286q-.144 0-.22-.088a1.3 1.3 0 0 1-.143-.198l-1.738-3.223.341-.033v4.213a.24.24 0 0 1-.066.176.24.24 0 0 1-.176.066zm7.509 0a.28.28 0 0 1-.187-.066.28.28 0 0 1-.066-.187v-5.214q0-.11.066-.176a.25.25 0 0 1 .187-.077h4.367a.22.22 0 0 1 .176.077.22.22 0 0 1 .077.176v5.214a.26.26 0 0 1-.077.187.24.24 0 0 1-.176.066h-.528a.24.24 0 0 1-.176-.066.28.28 0 0 1-.066-.187V91.16h-2.827v4.587a.28.28 0 0 1-.066.187.24.24 0 0 1-.176.066zm7.852.11q-.55 0-1.001-.22a1.9 1.9 0 0 1-.726-.594 1.4 1.4 0 0 1-.275-.847q0-.76.616-1.21.615-.45 1.606-.594l1.639-.231v-.319q0-.528-.308-.825-.298-.297-.979-.297-.495 0-.803.198-.298.198-.418.506-.066.165-.231.165h-.495q-.121 0-.187-.066a.3.3 0 0 1-.055-.176q0-.165.121-.407.132-.242.396-.473.263-.23.671-.385.418-.165 1.012-.165.66 0 1.111.176.45.165.704.451.263.285.374.649.12.363.121.737v3.564a.26.26 0 0 1-.077.187.24.24 0 0 1-.176.066h-.506q-.121 0-.187-.066a.28.28 0 0 1-.066-.187v-.473a2.2 2.2 0 0 1-.385.396 2.2 2.2 0 0 1-.605.319q-.363.12-.891.121m.231-.825q.45 0 .825-.187.373-.198.583-.605.22-.406.22-1.023v-.308l-1.276.187q-.781.11-1.177.374-.396.253-.396.649 0 .308.176.517.186.198.462.297.285.099.583.099m4.496.715a.28.28 0 0 1-.187-.066.28.28 0 0 1-.066-.187v-5.214q0-.11.066-.176a.26.26 0 0 1 .187-.077h.528a.22.22 0 0 1 .176.077.24.24 0 0 1 .066.176v2.112h3.003v-2.112q0-.11.066-.176a.26.26 0 0 1 .187-.077h.517a.22.22 0 0 1 .176.077.22.22 0 0 1 .077.176v5.214a.26.26 0 0 1-.077.187.24.24 0 0 1-.176.066h-.517a.28.28 0 0 1-.187-.066.28.28 0 0 1-.066-.187v-2.222h-3.003v2.222a.28.28 0 0 1-.066.187.24.24 0 0 1-.176.066zm6.692 0a.26.26 0 0 1-.176-.066.25.25 0 0 1-.066-.165v-5.236q0-.11.066-.176a.26.26 0 0 1 .187-.077h.528a.22.22 0 0 1 .176.077.24.24 0 0 1 .066.176v4.664l-.286-.297 3.333-4.455a.6.6 0 0 1 .121-.11.25.25 0 0 1 .165-.055h.506a.2.2 0 0 1 .154.066.2.2 0 0 1 .077.154v5.247a.26.26 0 0 1-.077.187.24.24 0 0 1-.176.066h-.517q-.121 0-.187-.066a.28.28 0 0 1-.066-.187v-4.389l.308-.011-3.355 4.488a1 1 0 0 1-.11.11.27.27 0 0 1-.176.055zm6.703 0a.26.26 0 0 1-.176-.066.25.25 0 0 1-.066-.165v-5.236q0-.11.066-.176a.26.26 0 0 1 .187-.077h.528a.22.22 0 0 1 .176.077.24.24 0 0 1 .066.176v4.664l-.286-.297 3.333-4.455a.6.6 0 0 1 .121-.11.25.25 0 0 1 .165-.055h.506a.2.2 0 0 1 .154.066.2.2 0 0 1 .077.154v5.247a.26.26 0 0 1-.077.187.24.24 0 0 1-.176.066h-.517q-.121 0-.187-.066a.28.28 0 0 1-.066-.187v-4.389l.308-.011-3.355 4.488a1 1 0 0 1-.11.11.27.27 0 0 1-.176.055zm2.332-6.479q-.638 0-1.001-.198t-.506-.506a1.6 1.6 0 0 1-.143-.66q0-.088.044-.143.056-.066.165-.066h.374a.19.19 0 0 1 .154.066.2.2 0 0 1 .055.143q0 .253.165.473.175.21.693.209.528 0 .693-.209a.77.77 0 0 0 .165-.473q0-.088.055-.143a.19.19 0 0 1 .154-.066h.385a.19.19 0 0 1 .154.066.2.2 0 0 1 .055.143q0 .34-.154.66-.143.308-.506.506t-1.001.198"/><path fill="#000" d="M168.309 61.588c2.374 0 5.024.811 6.705 2.611l-1.622 2.393c-1.206-1.206-3.065-2.057-4.944-2.057-3.6 0-6.21 2.73-6.21 6.349 0 3.639 2.61 6.428 6.329 6.428 1.977 0 4.133-.95 5.518-2.393l1.384 2.511c-1.622 1.74-4.351 2.868-7.14 2.868-5.656 0-9.572-3.995-9.572-9.355-.02-5.3 3.936-9.355 9.552-9.355m-22.171 0c5.34 0 9.652 3.916 9.652 9.316 0 5.439-4.312 9.394-9.612 9.394-5.34 0-9.652-3.955-9.652-9.394 0-5.4 4.312-9.316 9.612-9.316m.04 15.744c3.362 0 6.151-2.69 6.151-6.428 0-3.719-2.789-6.349-6.151-6.349-3.382 0-6.151 2.65-6.151 6.349 0 3.758 2.749 6.428 6.151 6.428m-29.607-15.328h3.283v10.66c0 .95-.079 2.235-.099 2.393h.079c.138-.316.989-1.543 1.582-2.393l7.694-10.66h3.322v17.879h-3.322v-10.66c0-.85.099-2.077.099-2.374h-.06c-.099.317-.989 1.523-1.562 2.374l-7.733 10.66h-3.283zM95.29 76.995c2.61-.395 4.034-3.006 4.034-9.473v-5.518h11.966v17.879h-3.422V64.832h-5.261v2.69c0 8.089-2.056 12.262-7.317 12.539zm-9.93-15.407c5.043 0 7.733 3.778 7.733 8.366 0 .455-.079.95-.138 1.444H79.962c.178 3.857 2.927 5.934 6.15 5.934 1.9 0 3.857-.811 5.262-2.077l1.443 2.512c-1.72 1.582-4.45 2.55-6.922 2.55-5.617 0-9.493-4.053-9.493-9.354 0-5.696 3.876-9.375 8.96-9.375m4.272 7.338c-.099-3.066-2.017-4.687-4.35-4.687-2.651 0-4.728 1.74-5.222 4.687zM65.168 54.943h13.746v3.046H68.669v21.894h-3.501z"/></g><defs><linearGradient id="b" x1="21.844" x2="30.194" y1="53.387" y2="53.387" gradientUnits="userSpaceOnUse"><stop stop-color="#E9762C"/><stop offset="1" stop-color="#FFCA00"/></linearGradient><linearGradient id="c" x1="49.479" x2="57.83" y1="25.588" y2="25.588" gradientUnits="userSpaceOnUse"><stop stop-color="#E9762C"/><stop offset="1" stop-color="#FFCA00"/></linearGradient><linearGradient id="d" x1="0" x2="119.463" y1="39.636" y2="39.636" gradientUnits="userSpaceOnUse"><stop stop-color="#E9762C"/><stop offset="1" stop-color="#FFCA00"/></linearGradient><clipPath id="a"><path fill="#fff" d="M0 0h176v99H0z"/></clipPath></defs></svg>