<svg xmlns="http://www.w3.org/2000/svg" width="113" height="17" fill="none"><path fill="#000" d="M23.033 14.811V3.543h2.669l2.958 4.765 2.958-4.765h2.669v11.268h-2.46V7.455l-3.167 4.813h-.064L25.46 7.503v7.308zm17.784.193q-1.962 0-3.232-1.24-1.27-1.255-1.27-3.25 0-1.884 1.206-3.188t3.054-1.304q2.041 0 3.12 1.352 1.076 1.353 1.076 3.332 0 .195-.032.644h-5.996q.176.822.723 1.256t1.383.434q1.14 0 2.09-.885l1.398 1.24q-1.302 1.61-3.52 1.61M38.71 9.821h3.681q-.112-.837-.595-1.336-.465-.5-1.222-.5a1.68 1.68 0 0 0-1.238.5q-.482.483-.626 1.336m10.358 2.898h2.942V8.276h-2.299v.193q-.031 2.784-.643 4.25m4.212 2.092h-5.4l-.177 2.029h-2.058v-4.121h.932q.837-1.787.836-5.796v-.74h7.042v6.536h1.173l-.289 4.12H53.28zm11.697-8.628v8.628h-2.364V9.79l-3.36 5.022h-2.299V6.183h2.364v5.039l3.36-5.039zm4.626 8.789q-1.27 0-2.122-.708-.837-.708-.836-1.964 0-1.368.932-2.06.95-.693 2.54-.693 1.077 0 2.106.355v-.145q0-1.578-1.849-1.578-1.109 0-2.379.467l-.61-1.867a8.2 8.2 0 0 1 3.343-.693q1.945 0 2.91.966.933.934.932 2.753v5.006h-2.363v-.933q-.98 1.095-2.604 1.094m.74-1.69q.85 0 1.382-.418.53-.435.53-1.095v-.435a3.65 3.65 0 0 0-1.559-.322q-.804 0-1.254.322-.435.306-.434.902 0 .483.37.772.37.274.964.274m10.398 1.722q-1.928 0-3.215-1.303-1.27-1.304-1.27-3.188 0-1.867 1.286-3.171 1.287-1.32 3.232-1.32 2.073 0 3.424 1.513l-1.43 1.449q-.9-.853-2.01-.853-.9 0-1.495.692t-.595 1.69q0 1.014.595 1.707.61.675 1.591.676 1.013 0 1.978-.918l1.43 1.449q-.707.773-1.51 1.175-.805.402-2.01.402m9.2 0q-1.962 0-3.231-1.24-1.27-1.255-1.27-3.25 0-1.884 1.205-3.188T89.7 6.022q2.041 0 3.119 1.352 1.077 1.353 1.077 3.332 0 .195-.032.644h-5.997q.178.822.724 1.256t1.382.434q1.142 0 2.09-.885l1.399 1.24q-1.302 1.61-3.52 1.61m-2.106-5.183h3.682q-.113-.837-.595-1.336-.466-.5-1.222-.5a1.68 1.68 0 0 0-1.238.5q-.482.483-.627 1.336m14.617-3.639v2.093h-2.556v6.535h-2.476V8.276h-2.556V6.183zm1.334 8.628V6.183h2.443v2.85h1.769q1.559-.001 2.492.724.948.723.948 2.125 0 1.367-.884 2.157-.868.772-2.428.772zm3.971-3.927h-1.528v1.996h1.544q1.206 0 1.205-1.03 0-.451-.321-.709-.306-.258-.9-.258"/><ellipse cx="8.595" cy="8.909" fill="url(#a)" rx="7.99" ry="8"/><defs><linearGradient id="a" x1="12.167" x2="6.534" y1="1.142" y2="6.363" gradientUnits="userSpaceOnUse"><stop stop-color="#F64F1A"/><stop offset="1" stop-color="#EA270B"/></linearGradient></defs></svg>