<svg xmlns="http://www.w3.org/2000/svg" width="604" height="240" fill="none"><g clip-path="url(#a)"><path fill="#fff" fill-opacity=".1" d="M0-81.595c.685.014 1.367.002 2.057-.035 10.454-.492 19.89-6.41 25.489-15.261l40.305-63.775c6.181-9.779 20.434-9.779 26.615 0l40.287 63.739c5.891 9.324 16.035 15.333 27.052 15.351.546 0 1.109-.018 1.655-.036 10.453-.492 19.889-6.41 25.488-15.26l40.196-63.575c6.236-9.87 20.616-9.87 26.852 0l40.214 63.629c5.6 8.868 15.09 14.75 25.562 15.224q1.117.048 2.228.023v42.142c-5.421.275-10.962-2.185-14.245-7.382L269.54-110.44c-5.617-8.887-15.126-14.769-25.615-15.224a28 28 0 0 0-3.036 0c-10.454.491-19.889 6.41-25.489 15.26l-40.305 63.775c-6.181 9.78-20.434 9.78-26.616 0l-40.287-63.738c-5.89-9.324-16.034-15.334-27.052-15.352-.545 0-1.109.018-1.654.037-10.454.491-19.889 6.41-25.489 15.26L13.802-46.848C10.608-41.793 5.278-39.327 0-39.449zm324 490.171c-5.421.276-10.962-2.185-14.245-7.381l-40.215-63.629c-5.617-8.887-15.126-14.769-25.615-15.225a29 29 0 0 0-3.037 0c-10.453.492-19.889 6.411-25.488 15.261l-40.305 63.775c-6.181 9.779-20.435 9.779-26.616 0l-40.287-63.738c-5.89-9.324-16.035-15.334-27.052-15.352a51 51 0 0 0-1.654.036c-10.454.492-19.89 6.41-25.489 15.261l-40.196 63.574c-3.193 5.055-8.523 7.521-13.801 7.399v-42.128c.685.014 1.367.002 2.057-.035 10.454-.492 19.889-6.411 25.488-15.261l40.306-63.775c6.18-9.779 20.434-9.779 26.615 0l40.287 63.738c5.891 9.324 16.035 15.334 27.052 15.352.546 0 1.109-.018 1.655-.036 10.453-.492 19.889-6.41 25.488-15.261l40.196-63.574c6.236-9.87 20.616-9.87 26.852 0l40.214 63.629c5.6 8.868 15.09 14.751 25.562 15.224q1.117.047 2.228.023z"/><path fill="#fff" fill-opacity=".1" d="M324 314.151q-1.111.025-2.228-.023c-10.472-.473-19.962-6.355-25.562-15.224l-40.214-63.629c-6.236-9.87-20.616-9.87-26.852 0l-40.196 63.574c-5.599 8.851-15.035 14.769-25.488 15.261-.546.018-1.109.036-1.655.036-11.017-.018-21.161-6.027-27.052-15.351 0 0-24.416-38.626-40.287-63.738-6.181-9.78-20.434-9.78-26.615 0l-40.306 63.774c-5.599 8.851-15.035 14.769-25.488 15.261a28 28 0 0 1-2.057.036v42.145c5.278.123 10.608-2.343 13.801-7.398L53.997 285.3c5.6-8.85 15.035-14.769 25.489-15.26a48 48 0 0 1 1.654-.037c11.017.018 21.162 6.028 27.052 15.352 0 0 24.416 38.625 40.287 63.738 6.181 9.779 20.435 9.779 26.616 0l40.305-63.774c5.599-8.851 15.035-14.769 25.488-15.261a28 28 0 0 1 3.037 0c10.489.455 19.998 6.337 25.615 15.224l40.215 63.629c3.283 5.197 8.824 7.657 14.245 7.382z"/><path fill="#fff" fill-opacity=".1" d="M324 273.178c-5.421.276-10.962-2.185-14.245-7.381l-40.215-63.629c-5.617-8.887-15.126-14.769-25.615-15.225a29 29 0 0 0-3.037 0c-10.453.492-19.889 6.411-25.488 15.261l-40.305 63.775c-6.181 9.779-20.435 9.779-26.616 0l-40.287-63.738c-5.89-9.324-16.035-15.334-27.052-15.352a51 51 0 0 0-1.654.036c-10.454.492-19.89 6.411-25.489 15.261L13.801 265.76c-3.193 5.055-8.523 7.521-13.801 7.399v-42.128c.685.014 1.367.002 2.057-.035 10.454-.492 19.889-6.411 25.488-15.261l40.306-63.775c6.18-9.779 20.434-9.779 26.615 0l40.287 63.738c5.891 9.324 16.035 15.334 27.052 15.352.546 0 1.109-.018 1.655-.036 10.453-.492 19.889-6.41 25.488-15.261l40.196-63.574c6.236-9.87 20.616-9.87 26.852 0l40.214 63.629c5.6 8.868 15.09 14.751 25.562 15.224q1.117.047 2.228.023z"/><path fill="#fff" fill-opacity=".1" d="M324 178.753q-1.111.025-2.228-.023c-10.472-.473-19.962-6.355-25.562-15.224l-40.214-63.629c-6.236-9.87-20.616-9.87-26.852 0l-40.141 63.575c-5.6 8.85-15.035 14.769-25.489 15.26-.545.018-1.109.037-1.654.037-11.017-.019-21.162-6.028-27.052-15.352 0 0-24.416-38.625-40.287-63.738-6.181-9.78-20.435-9.78-26.616 0l-40.323 63.793c-5.6 8.85-15.035 14.769-25.489 15.26-.702.038-1.396.05-2.093.035v42.11c5.278.123 10.608-2.343 13.801-7.398l40.196-63.575c5.6-8.85 15.035-14.769 25.489-15.26.545-.018 1.109-.037 1.654-.037 11.017.019 21.162 6.028 27.052 15.352 0 0 24.416 38.625 40.287 63.738 6.181 9.779 20.435 9.779 26.616 0l40.305-63.774c5.599-8.851 15.035-14.769 25.488-15.261a28 28 0 0 1 3.037 0c10.489.455 19.998 6.337 25.615 15.224l40.215 63.629c3.283 5.197 8.824 7.657 14.245 7.382z"/><path fill="#fff" fill-opacity=".1" d="M324 139.875c-5.421.275-10.962-2.185-14.245-7.382L269.54 68.864c-5.617-8.887-15.126-14.769-25.615-15.224a28 28 0 0 0-3.037 0c-10.453.492-19.889 6.41-25.488 15.26l-40.305 63.775c-6.181 9.779-20.435 9.779-26.616 0l-40.287-63.738c-5.89-9.324-16.035-15.333-27.052-15.352-.545 0-1.109.018-1.654.037-10.454.491-19.89 6.41-25.489 15.26l-40.196 63.575c-3.193 5.055-8.523 7.521-13.801 7.398V97.71c.685.013 1.367 0 2.057-.036 10.454-.492 19.889-6.41 25.488-15.26l40.306-63.775c6.18-9.78 20.434-9.78 26.615 0 15.871 25.112 40.287 63.738 40.287 63.738 5.891 9.324 16.035 15.333 27.052 15.351.546 0 1.109-.018 1.655-.036 10.453-.492 19.889-6.41 25.488-15.26l40.196-63.575c6.236-9.87 20.616-9.87 26.852 0l40.214 63.629c5.6 8.869 15.09 14.75 25.562 15.224q1.117.048 2.228.023z"/><path fill="#fff" fill-opacity=".1" d="M324 45.45q-1.11.025-2.229-.023c-10.471-.474-19.961-6.356-25.561-15.224l-40.214-63.63c-6.236-9.87-20.616-9.87-26.852 0l-40.141 63.575c-5.6 8.85-15.035 14.769-25.489 15.26-.545.019-1.109.037-1.654.037-11.017-.018-21.162-6.028-27.052-15.352 0 0-24.416-38.625-40.287-63.738-6.181-9.78-20.435-9.78-26.616 0L27.582 30.148c-5.6 8.85-15.035 14.769-25.489 15.26A28 28 0 0 1 0 45.444v42.128c5.278.122 10.608-2.344 13.801-7.399L53.997 16.6c5.6-8.85 15.035-14.769 25.489-15.26a50 50 0 0 1 1.654-.037c11.017.018 21.162 6.028 27.052 15.352 0 0 24.416 38.625 40.287 63.738 6.181 9.779 20.435 9.779 26.616 0L215.4 16.617c5.599-8.85 15.035-14.769 25.488-15.26a28 28 0 0 1 3.036 0c10.49.455 19.999 6.337 25.616 15.224l40.214 63.629c3.284 5.196 8.825 7.657 14.246 7.381z"/><path fill="#fff" fill-opacity=".1" d="M324 12.854c-5.421.276-10.962-2.185-14.246-7.382L269.54-58.156c-5.617-8.887-15.126-14.77-25.616-15.225a28 28 0 0 0-3.036 0c-10.453.492-19.889 6.41-25.488 15.26L175.095 5.655c-6.181 9.78-20.435 9.78-26.616 0-15.871-25.112-40.287-63.738-40.287-63.738-5.89-9.324-16.035-15.333-27.052-15.352-.545 0-1.109.019-1.654.037-10.454.492-19.89 6.41-25.489 15.26L13.801 5.437C10.608 10.49 5.278 12.956 0 12.834V-29.31a28 28 0 0 0 2.057-.036c10.454-.492 19.889-6.41 25.488-15.26l40.306-63.775c6.18-9.779 20.434-9.779 26.615 0l40.287 63.738c5.891 9.324 16.035 15.333 27.052 15.352.546 0 1.109-.018 1.655-.037 10.453-.491 19.889-6.41 25.488-15.26l40.196-63.575c6.236-9.87 20.616-9.87 26.852 0l40.214 63.63c5.6 8.868 15.09 14.75 25.561 15.223q1.118.048 2.229.023zm0-94.449a28 28 0 0 0 2.057-.035c10.454-.492 19.889-6.41 25.489-15.261l40.305-63.775c6.181-9.779 20.434-9.779 26.615 0l40.287 63.739c5.891 9.324 16.035 15.333 27.052 15.351.546 0 1.109-.018 1.655-.036 10.453-.492 19.889-6.41 25.488-15.26l40.196-63.575c6.236-9.87 20.616-9.87 26.852 0l40.214 63.629c5.6 8.868 15.09 14.75 25.562 15.224q1.117.048 2.228.023v42.142c-5.421.275-10.962-2.185-14.245-7.382L593.54-110.44c-5.617-8.887-15.126-14.769-25.615-15.224a28 28 0 0 0-3.036 0c-10.454.491-19.889 6.41-25.489 15.26l-40.305 63.775c-6.181 9.78-20.434 9.78-26.616 0l-40.287-63.738c-5.89-9.324-16.035-15.334-27.052-15.352-.545 0-1.109.018-1.654.037-10.454.491-19.889 6.41-25.488 15.26l-40.197 63.574c-3.193 5.055-8.523 7.521-13.801 7.399zm324 490.171c-5.421.276-10.962-2.185-14.245-7.381l-40.215-63.629c-5.617-8.887-15.126-14.769-25.615-15.225a29 29 0 0 0-3.037 0c-10.453.492-19.889 6.411-25.488 15.261l-40.305 63.775c-6.181 9.779-20.435 9.779-26.616 0l-40.287-63.738c-5.89-9.324-16.035-15.334-27.052-15.352a51 51 0 0 0-1.654.036c-10.454.492-19.889 6.41-25.489 15.261l-40.196 63.574c-3.193 5.055-8.523 7.521-13.801 7.399v-42.128c.685.014 1.367.002 2.057-.035 10.454-.492 19.889-6.411 25.488-15.261l40.306-63.775c6.181-9.779 20.434-9.779 26.615 0l40.287 63.738c5.891 9.324 16.035 15.334 27.052 15.352.546 0 1.109-.018 1.655-.036 10.453-.492 19.889-6.41 25.488-15.261l40.196-63.574c6.236-9.87 20.616-9.87 26.852 0l40.214 63.629c5.6 8.868 15.09 14.751 25.562 15.224q1.117.047 2.228.023z"/><path fill="#fff" fill-opacity=".1" d="M648 314.151q-1.111.025-2.228-.023c-10.472-.473-19.962-6.355-25.562-15.224l-40.214-63.629c-6.236-9.87-20.616-9.87-26.852 0l-40.196 63.574c-5.599 8.851-15.035 14.769-25.488 15.261-.546.018-1.109.036-1.655.036-11.017-.018-21.161-6.027-27.052-15.351 0 0-24.416-38.626-40.287-63.738-6.181-9.78-20.434-9.78-26.615 0l-40.306 63.774c-5.599 8.851-15.034 14.769-25.488 15.261a28 28 0 0 1-2.057.036v42.145c5.278.123 10.608-2.343 13.801-7.398l40.196-63.575c5.6-8.85 15.035-14.769 25.489-15.26a48 48 0 0 1 1.654-.037c11.017.018 21.162 6.028 27.052 15.352 0 0 24.416 38.625 40.287 63.738 6.181 9.779 20.435 9.779 26.616 0l40.305-63.774c5.599-8.851 15.035-14.769 25.488-15.261a28 28 0 0 1 3.037 0c10.489.455 19.998 6.337 25.615 15.224l40.215 63.629c3.283 5.197 8.824 7.657 14.245 7.382z"/><path fill="#fff" fill-opacity=".1" d="M648 273.178c-5.421.276-10.962-2.185-14.245-7.381l-40.215-63.629c-5.617-8.887-15.126-14.769-25.615-15.225a29 29 0 0 0-3.037 0c-10.453.492-19.889 6.411-25.488 15.261l-40.305 63.775c-6.181 9.779-20.435 9.779-26.616 0l-40.287-63.738c-5.89-9.324-16.035-15.334-27.052-15.352a51 51 0 0 0-1.654.036c-10.454.492-19.889 6.411-25.489 15.261l-40.196 63.574c-3.193 5.055-8.523 7.521-13.801 7.399v-42.128c.685.014 1.367.002 2.057-.035 10.454-.492 19.889-6.411 25.488-15.261l40.306-63.775c6.181-9.779 20.434-9.779 26.615 0l40.287 63.738c5.891 9.324 16.035 15.334 27.052 15.352.546 0 1.109-.018 1.655-.036 10.453-.492 19.889-6.41 25.488-15.261l40.196-63.574c6.236-9.87 20.616-9.87 26.852 0l40.214 63.629c5.6 8.868 15.09 14.751 25.562 15.224q1.117.047 2.228.023z"/><path fill="#fff" fill-opacity=".1" d="M648 178.753q-1.111.025-2.228-.023c-10.472-.473-19.962-6.355-25.562-15.224l-40.214-63.629c-6.236-9.87-20.616-9.87-26.852 0l-40.141 63.575c-5.6 8.85-15.035 14.769-25.489 15.26-.545.018-1.109.037-1.654.037-11.017-.019-21.162-6.028-27.052-15.352 0 0-24.416-38.625-40.287-63.738-6.181-9.78-20.435-9.78-26.616 0l-40.323 63.793c-5.6 8.85-15.035 14.769-25.489 15.26-.702.038-1.396.05-2.093.035v42.11c5.278.123 10.608-2.343 13.801-7.398l40.196-63.575c5.6-8.85 15.035-14.769 25.489-15.26.545-.018 1.109-.037 1.654-.037 11.017.019 21.162 6.028 27.052 15.352 0 0 24.416 38.625 40.287 63.738 6.181 9.779 20.435 9.779 26.616 0l40.305-63.774c5.599-8.851 15.035-14.769 25.488-15.261a28 28 0 0 1 3.037 0c10.489.455 19.998 6.337 25.615 15.224l40.215 63.629c3.283 5.197 8.824 7.657 14.245 7.382z"/><path fill="#fff" fill-opacity=".1" d="M648 139.875c-5.421.275-10.962-2.185-14.245-7.382L593.54 68.864c-5.617-8.887-15.126-14.769-25.615-15.224a28 28 0 0 0-3.037 0c-10.453.492-19.889 6.41-25.488 15.26l-40.305 63.775c-6.181 9.779-20.435 9.779-26.616 0l-40.287-63.738c-5.89-9.324-16.035-15.333-27.052-15.352-.545 0-1.109.018-1.654.037-10.454.491-19.889 6.41-25.489 15.26l-40.196 63.575c-3.193 5.055-8.523 7.521-13.801 7.398V97.71a28 28 0 0 0 2.057-.036c10.454-.492 19.889-6.41 25.488-15.26l40.306-63.775c6.181-9.78 20.434-9.78 26.615 0 15.871 25.112 40.287 63.738 40.287 63.738 5.891 9.324 16.035 15.333 27.052 15.351.546 0 1.109-.018 1.655-.036 10.453-.492 19.889-6.41 25.488-15.26l40.196-63.575c6.236-9.87 20.616-9.87 26.852 0l40.214 63.629c5.6 8.869 15.09 14.75 25.562 15.224q1.117.048 2.228.023z"/><path fill="#fff" fill-opacity=".1" d="M648 45.45q-1.11.025-2.229-.023c-10.471-.474-19.961-6.356-25.561-15.224l-40.214-63.63c-6.236-9.87-20.616-9.87-26.852 0l-40.141 63.575c-5.6 8.85-15.035 14.769-25.489 15.26-.545.019-1.109.037-1.654.037-11.017-.018-21.162-6.028-27.052-15.352 0 0-24.416-38.625-40.287-63.738-6.181-9.78-20.435-9.78-26.616 0l-40.323 63.793c-5.6 8.85-15.035 14.769-25.489 15.26a28 28 0 0 1-2.093.036v42.128c5.278.122 10.608-2.344 13.801-7.399L377.997 16.6c5.6-8.85 15.035-14.769 25.489-15.26a50 50 0 0 1 1.654-.037c11.017.018 21.162 6.028 27.052 15.352 0 0 24.416 38.625 40.287 63.738 6.181 9.779 20.435 9.779 26.616 0L539.4 16.617c5.599-8.85 15.035-14.769 25.488-15.26a28 28 0 0 1 3.036 0c10.49.455 19.999 6.337 25.616 15.224l40.214 63.629c3.284 5.196 8.825 7.657 14.246 7.381z"/><path fill="#fff" fill-opacity=".1" d="M648 12.854c-5.421.276-10.962-2.185-14.246-7.382L593.54-58.156c-5.617-8.887-15.126-14.77-25.616-15.225a28 28 0 0 0-3.036 0c-10.453.492-19.889 6.41-25.488 15.26L499.095 5.655c-6.181 9.78-20.435 9.78-26.616 0-15.871-25.112-40.287-63.738-40.287-63.738-5.89-9.324-16.035-15.333-27.052-15.352-.545 0-1.109.019-1.654.037-10.454.492-19.889 6.41-25.489 15.26L337.801 5.437c-3.193 5.055-8.523 7.52-13.801 7.398V-29.31a28 28 0 0 0 2.057-.036c10.454-.492 19.889-6.41 25.488-15.26l40.306-63.775c6.181-9.779 20.434-9.779 26.615 0l40.287 63.738c5.891 9.324 16.035 15.333 27.052 15.352.546 0 1.109-.018 1.655-.037 10.453-.491 19.889-6.41 25.488-15.26l40.196-63.575c6.236-9.87 20.616-9.87 26.852 0l40.214 63.63c5.6 8.868 15.09 14.75 25.561 15.223q1.118.048 2.229.023z"/><path fill="#FFCA00" d="M27 82.6 159.647 73 232 241H65.588c-.02-37.683-1.274-76.621-2.411-93.6-2.412-36-26.53-57.6-36.177-64.8"/><path fill="#F3F3F3" d="M51 54.36c75.589-2.288 120.564 5.585 191.5 25.64 10.695 61.798 10.552 97.017 8.5 160H91.941v-94.564c0-31.158-14.45-76.696-40.941-91.076"/><path fill="url(#b)" fill-opacity=".1" d="M51 54.36c75.589-2.288 120.564 5.585 191.5 25.64 10.695 61.798 10.552 97.017 8.5 160H91.941v-94.564c0-31.158-14.45-76.696-40.941-91.076"/><path stroke="#353433" stroke-width="2" d="M128 111c33.617 4.39 85.333 9.388 96 9.388m-96 30.51c36.293 2.846 77.333 4.694 96 4.694m-96 32.857h96M128 226l96-4.694" opacity=".3"/><path fill="#FFCB00" d="m243.289 198.606 32.732-93.432a9.001 9.001 0 0 1 16.988 5.951l-32.732 93.432z"/><path fill="#353433" d="m244.509 222.344-1.22-23.738 16.988 5.951z"/></g><defs><linearGradient id="b" x1="151" x2="151" y1="53.976" y2="240" gradientUnits="userSpaceOnUse"><stop offset=".589" stop-color="#F80" stop-opacity="0"/><stop offset="1" stop-color="#F80"/></linearGradient><clipPath id="a"><path fill="#fff" d="M0 0h604v240H0z"/></clipPath></defs></svg>