<svg xmlns="http://www.w3.org/2000/svg" width="45" height="45" fill="none"><g fill="#F80" clip-path="url(#a)"><path fill-opacity=".1" d="M0 21.596C0 11.42 0 6.332 3.166 3.166S11.42 0 21.596 0h1.808c10.176 0 15.264 0 18.43 3.166S45 11.42 45 21.596v1.808c0 10.176 0 15.264-3.166 18.43S33.58 45 23.404 45h-1.808c-10.176 0-15.264 0-18.43-3.166S0 33.58 0 23.404z"/><path d="M27.86 19.628a7.59 7.59 0 0 1-10.764 0 7.59 7.59 0 0 1 0-10.764 7.59 7.59 0 0 1 10.763 0 7.59 7.59 0 0 1 0 10.764m-5.383-8.864c-.95 0-1.809.384-2.442 1.017a3.436 3.436 0 0 0 0 4.885 3.435 3.435 0 0 0 4.885 0 3.435 3.435 0 0 0 0-4.885c-.634-.61-1.493-1.017-2.443-1.017m8.005 11.125 2.24 3.053c.112.159.09.362-.069.475-1.877 1.538-4.07 2.555-6.354 3.098l4.32 8.322c.112.248-.046.52-.317.52h-4.614a.4.4 0 0 1-.339-.226l-2.872-6.875-2.894 6.852a.35.35 0 0 1-.34.226H14.63c-.272 0-.43-.294-.317-.52l4.32-8.299c-2.285-.543-4.456-1.56-6.355-3.098-.136-.113-.181-.34-.068-.475l2.239-3.053c.135-.18.362-.203.52-.067 2.103 1.786 4.703 2.962 7.485 2.962s5.36-1.153 7.485-2.962c.18-.136.43-.113.542.067"/></g><defs><clipPath id="a"><path fill="#fff" d="M0 0h45v45H0z"/></clipPath></defs></svg>