<svg xmlns="http://www.w3.org/2000/svg" width="592" height="84" fill="none"><g clip-path="url(#a)"><mask id="c" width="593" height="326" x="-1" y="-116" maskUnits="userSpaceOnUse" style="mask-type:alpha"><path fill="url(#b)" d="M-1-116h593v326H-1z"/></mask><g mask="url(#c)"><path fill="url(#d)" d="M-.636 45.247s19.909.533 25.525 6.15c5.601 5.6 6.134 25.4 6.134 25.4s.487-19.752 6.15-25.4c5.648-5.664 56.95-6.15 56.95-6.15s-51.239-.424-56.95-6.135c-5.726-5.726-6.15-25.196-6.15-25.196s-.486 19.533-6.134 25.196C19.226 44.776-.636 45.246-.636 45.246"/><path fill="url(#e)" d="M93.76 11.137s-19.909.533-25.525 6.15c-5.601 5.6-6.135 25.4-6.135 25.4s-.486-19.752-6.15-25.4C50.302 11.623-1 11.137-1 11.137s51.24-.424 56.95-6.135c5.727-5.726 6.15-25.196 6.15-25.196S62.587-.66 68.235 5.002c5.663 5.664 25.525 6.135 25.525 6.135"/><path fill="url(#f)" d="M94.487 45.247s19.91.533 25.526 6.15c5.601 5.6 6.134 25.4 6.134 25.4s.487-19.752 6.15-25.4c5.648-5.664 56.951-6.15 56.951-6.15s-51.24-.424-56.951-6.135c-5.726-5.726-6.15-25.196-6.15-25.196s-.486 19.533-6.134 25.196c-5.664 5.664-25.526 6.134-25.526 6.134"/><path fill="url(#g)" d="M188.884 11.137s-19.909.533-25.525 6.15c-5.601 5.6-6.135 25.4-6.135 25.4s-.486-19.752-6.15-25.4c-5.648-5.664-56.95-6.15-56.95-6.15s51.24-.424 56.95-6.135c5.727-5.726 6.15-25.196 6.15-25.196s.487 19.533 6.135 25.196c5.663 5.664 25.525 6.135 25.525 6.135"/><path fill="url(#h)" d="M189.611 45.247s19.909.533 25.526 6.15c5.601 5.6 6.134 25.4 6.134 25.4s.487-19.752 6.15-25.4c5.648-5.664 56.951-6.15 56.951-6.15s-51.24-.424-56.951-6.135c-5.726-5.726-6.15-25.196-6.15-25.196s-.486 19.533-6.134 25.196c-5.664 5.664-25.526 6.134-25.526 6.134"/><path fill="url(#i)" d="M284.008 11.137s-19.909.533-25.525 6.15c-5.601 5.6-6.135 25.4-6.135 25.4s-.486-19.752-6.15-25.4c-5.648-5.664-56.95-6.15-56.95-6.15s51.24-.424 56.95-6.135c5.727-5.726 6.15-25.196 6.15-25.196s.487 19.533 6.135 25.196c5.663 5.664 25.525 6.135 25.525 6.135"/><path fill="url(#j)" d="M284.735 45.247s19.909.533 25.526 6.15c5.601 5.6 6.134 25.4 6.134 25.4s.487-19.752 6.15-25.4c5.648-5.664 56.951-6.15 56.951-6.15s-51.24-.424-56.951-6.135c-5.726-5.726-6.15-25.196-6.15-25.196s-.486 19.533-6.134 25.196c-5.664 5.664-25.526 6.134-25.526 6.134"/><path fill="url(#k)" d="M379.132 11.137s-19.909.533-25.526 6.15c-5.601 5.6-6.134 25.4-6.134 25.4s-.486-19.752-6.15-25.4c-5.648-5.664-56.95-6.15-56.95-6.15s51.239-.424 56.95-6.135c5.726-5.726 6.15-25.196 6.15-25.196s.486 19.533 6.134 25.196c5.664 5.664 25.526 6.135 25.526 6.135"/><path fill="url(#l)" d="M379.859 45.247s19.909.533 25.526 6.15c5.601 5.6 6.134 25.4 6.134 25.4s.487-19.752 6.15-25.4c5.648-5.664 56.951-6.15 56.951-6.15s-51.24-.424-56.951-6.135c-5.726-5.726-6.15-25.196-6.15-25.196s-.486 19.533-6.134 25.196c-5.664 5.664-25.526 6.134-25.526 6.134"/><path fill="url(#m)" d="M474.256 11.137s-19.909.533-25.526 6.15c-5.6 5.6-6.134 25.4-6.134 25.4s-.486-19.752-6.15-25.4c-5.648-5.664-56.95-6.15-56.95-6.15s51.239-.424 56.95-6.135c5.727-5.726 6.15-25.196 6.15-25.196s.487 19.533 6.134 25.196c5.664 5.664 25.526 6.135 25.526 6.135"/><path fill="url(#n)" d="M474.983 45.247s19.909.533 25.526 6.15c5.601 5.6 6.134 25.4 6.134 25.4s.486-19.752 6.15-25.4c5.648-5.664 56.951-6.15 56.951-6.15s-51.24-.424-56.951-6.135c-5.726-5.726-6.15-25.196-6.15-25.196s-.486 19.533-6.134 25.196c-5.664 5.664-25.526 6.134-25.526 6.134"/><path fill="url(#o)" d="M569.38 11.137s-19.909.533-25.526 6.15c-5.601 5.6-6.134 25.4-6.134 25.4s-.486-19.752-6.15-25.4c-5.648-5.664-56.95-6.15-56.95-6.15s51.239-.424 56.95-6.135c5.726-5.726 6.15-25.196 6.15-25.196s.486 19.533 6.134 25.196c5.664 5.664 25.526 6.135 25.526 6.135"/><path fill="url(#p)" d="M-.636 107.913s19.909.534 25.525 6.15c5.601 5.601 6.134 25.4 6.134 25.4s.487-19.752 6.15-25.4c5.648-5.663 56.95-6.15 56.95-6.15s-51.239-.423-56.95-6.134c-5.726-5.727-6.15-25.196-6.15-25.196s-.486 19.532-6.134 25.196c-5.663 5.664-25.525 6.134-25.525 6.134"/><path fill="url(#q)" d="M93.76 73.803s-19.909.534-25.525 6.15c-5.601 5.601-6.135 25.401-6.135 25.401s-.486-19.753-6.15-25.4C50.302 74.29-1 73.803-1 73.803s51.24-.424 56.95-6.135c5.727-5.726 6.15-25.196 6.15-25.196s.487 19.532 6.135 25.196c5.663 5.664 25.525 6.134 25.525 6.134"/><path fill="url(#r)" d="M94.487 107.913s19.909.534 25.526 6.15c5.601 5.601 6.134 25.4 6.134 25.4s.487-19.752 6.15-25.4c5.648-5.663 56.951-6.15 56.951-6.15s-51.24-.423-56.951-6.134c-5.726-5.727-6.15-25.196-6.15-25.196s-.486 19.532-6.134 25.196c-5.664 5.664-25.526 6.134-25.526 6.134"/><path fill="url(#s)" d="M188.884 73.803s-19.909.534-25.525 6.15c-5.601 5.601-6.135 25.401-6.135 25.401s-.486-19.753-6.15-25.4c-5.648-5.664-56.95-6.15-56.95-6.15s51.239-.424 56.95-6.135c5.727-5.726 6.15-25.196 6.15-25.196s.487 19.532 6.135 25.196c5.663 5.664 25.525 6.134 25.525 6.134"/><path fill="url(#t)" d="M189.611 107.913s19.91.534 25.526 6.15c5.601 5.601 6.134 25.4 6.134 25.4s.487-19.752 6.15-25.4c5.648-5.663 56.951-6.15 56.951-6.15s-51.24-.423-56.951-6.134c-5.726-5.727-6.15-25.196-6.15-25.196s-.486 19.532-6.134 25.196c-5.664 5.664-25.526 6.134-25.526 6.134"/><path fill="url(#u)" d="M284.008 73.803s-19.909.534-25.525 6.15c-5.601 5.601-6.135 25.401-6.135 25.401s-.486-19.753-6.15-25.4c-5.648-5.664-56.95-6.15-56.95-6.15s51.24-.424 56.95-6.135c5.727-5.726 6.15-25.196 6.15-25.196s.487 19.532 6.135 25.196c5.663 5.664 25.525 6.134 25.525 6.134"/><path fill="url(#v)" d="M284.735 107.913s19.909.534 25.526 6.15c5.601 5.601 6.134 25.4 6.134 25.4s.487-19.752 6.15-25.4c5.648-5.663 56.951-6.15 56.951-6.15s-51.24-.423-56.951-6.134c-5.726-5.727-6.15-25.196-6.15-25.196s-.486 19.532-6.134 25.196c-5.664 5.664-25.526 6.134-25.526 6.134"/><path fill="url(#w)" d="M379.132 73.803s-19.909.534-25.526 6.15c-5.6 5.601-6.134 25.401-6.134 25.401s-.486-19.753-6.15-25.4c-5.648-5.664-56.95-6.15-56.95-6.15s51.239-.424 56.95-6.135c5.727-5.726 6.15-25.196 6.15-25.196s.486 19.532 6.134 25.196c5.664 5.664 25.526 6.134 25.526 6.134"/><path fill="url(#x)" d="M379.859 107.913s19.909.534 25.526 6.15c5.601 5.601 6.134 25.4 6.134 25.4s.487-19.752 6.15-25.4c5.648-5.663 56.951-6.15 56.951-6.15s-51.24-.423-56.951-6.134c-5.726-5.727-6.15-25.196-6.15-25.196s-.486 19.532-6.134 25.196c-5.664 5.664-25.526 6.134-25.526 6.134"/><path fill="url(#y)" d="M474.256 73.803s-19.909.534-25.526 6.15c-5.601 5.601-6.134 25.401-6.134 25.401s-.486-19.753-6.15-25.4c-5.648-5.664-56.95-6.15-56.95-6.15s51.239-.424 56.95-6.135c5.726-5.726 6.15-25.196 6.15-25.196s.486 19.532 6.134 25.196c5.664 5.664 25.526 6.134 25.526 6.134"/><path fill="url(#z)" d="M474.983 107.913s19.909.534 25.526 6.15c5.601 5.601 6.134 25.4 6.134 25.4s.486-19.752 6.15-25.4c5.648-5.663 56.951-6.15 56.951-6.15s-51.24-.423-56.951-6.134c-5.726-5.727-6.15-25.196-6.15-25.196s-.486 19.532-6.134 25.196c-5.664 5.664-25.526 6.134-25.526 6.134"/><path fill="url(#A)" d="M569.38 73.803s-19.909.534-25.526 6.15c-5.601 5.601-6.134 25.401-6.134 25.401s-.486-19.753-6.15-25.4c-5.648-5.664-56.95-6.15-56.95-6.15s51.239-.424 56.95-6.135c5.726-5.726 6.15-25.196 6.15-25.196s.486 19.532 6.134 25.196c5.664 5.664 25.526 6.134 25.526 6.134"/><path fill="url(#B)" d="M-.636-24.56s19.909.534 25.525 6.15c5.601 5.601 6.134 25.4 6.134 25.4s.487-19.752 6.15-25.4c5.648-5.663 56.95-6.15 56.95-6.15s-51.239-.423-56.95-6.134c-5.726-5.726-6.15-25.196-6.15-25.196s-.486 19.532-6.134 25.196C19.226-25.03-.636-24.56-.636-24.56"/><path fill="url(#C)" d="M94.487-24.56s19.909.534 25.526 6.15c5.601 5.601 6.134 25.4 6.134 25.4s.487-19.752 6.15-25.4c5.648-5.663 56.951-6.15 56.951-6.15s-51.24-.423-56.951-6.134c-5.726-5.726-6.15-25.196-6.15-25.196s-.486 19.532-6.134 25.196c-5.664 5.664-25.526 6.134-25.526 6.134"/><path fill="url(#D)" d="M189.611-24.56s19.91.534 25.526 6.15c5.601 5.601 6.134 25.4 6.134 25.4s.487-19.752 6.15-25.4c5.648-5.663 56.951-6.15 56.951-6.15s-51.24-.423-56.951-6.134c-5.726-5.726-6.15-25.196-6.15-25.196s-.486 19.532-6.134 25.196c-5.664 5.664-25.526 6.134-25.526 6.134"/><path fill="url(#E)" d="M284.735-24.56s19.909.534 25.526 6.15c5.601 5.601 6.134 25.4 6.134 25.4s.487-19.752 6.15-25.4c5.648-5.663 56.951-6.15 56.951-6.15s-51.24-.423-56.951-6.134c-5.726-5.726-6.15-25.196-6.15-25.196s-.486 19.532-6.134 25.196c-5.664 5.664-25.526 6.134-25.526 6.134"/><path fill="url(#F)" d="M379.859-24.56s19.909.534 25.526 6.15c5.601 5.601 6.134 25.4 6.134 25.4s.487-19.752 6.15-25.4c5.648-5.663 56.951-6.15 56.951-6.15s-51.24-.423-56.951-6.134c-5.726-5.726-6.15-25.196-6.15-25.196s-.486 19.532-6.134 25.196c-5.664 5.664-25.526 6.134-25.526 6.134"/><path fill="url(#G)" d="M474.983-24.56s19.909.534 25.526 6.15c5.601 5.601 6.134 25.4 6.134 25.4s.486-19.752 6.15-25.4c5.648-5.663 56.951-6.15 56.951-6.15s-51.24-.423-56.951-6.134c-5.726-5.726-6.15-25.196-6.15-25.196s-.486 19.532-6.134 25.196c-5.664 5.664-25.526 6.134-25.526 6.134"/></g></g><defs><linearGradient id="d" x1="-.636" x2="94.127" y1="45.357" y2="45.357" gradientUnits="userSpaceOnUse"><stop stop-color="#fff"/><stop offset="1" stop-color="#FFCA00" stop-opacity="0"/></linearGradient><linearGradient id="e" x1="93.76" x2="-1.004" y1="11.247" y2="11.247" gradientUnits="userSpaceOnUse"><stop stop-color="#fff"/><stop offset="1" stop-color="#FFCA00" stop-opacity="0"/></linearGradient><linearGradient id="f" x1="94.487" x2="189.251" y1="45.357" y2="45.357" gradientUnits="userSpaceOnUse"><stop stop-color="#fff"/><stop offset="1" stop-color="#FFCA00" stop-opacity="0"/></linearGradient><linearGradient id="g" x1="188.884" x2="94.12" y1="11.247" y2="11.247" gradientUnits="userSpaceOnUse"><stop stop-color="#fff"/><stop offset="1" stop-color="#FFCA00" stop-opacity="0"/></linearGradient><linearGradient id="h" x1="189.611" x2="284.375" y1="45.357" y2="45.357" gradientUnits="userSpaceOnUse"><stop stop-color="#fff"/><stop offset="1" stop-color="#FFCA00" stop-opacity="0"/></linearGradient><linearGradient id="i" x1="284.008" x2="189.244" y1="11.247" y2="11.247" gradientUnits="userSpaceOnUse"><stop stop-color="#fff"/><stop offset="1" stop-color="#FFCA00" stop-opacity="0"/></linearGradient><linearGradient id="j" x1="284.735" x2="379.499" y1="45.357" y2="45.357" gradientUnits="userSpaceOnUse"><stop stop-color="#fff"/><stop offset="1" stop-color="#FFCA00" stop-opacity="0"/></linearGradient><linearGradient id="k" x1="379.132" x2="284.368" y1="11.247" y2="11.247" gradientUnits="userSpaceOnUse"><stop stop-color="#fff"/><stop offset="1" stop-color="#FFCA00" stop-opacity="0"/></linearGradient><linearGradient id="l" x1="379.859" x2="474.623" y1="45.357" y2="45.357" gradientUnits="userSpaceOnUse"><stop stop-color="#fff"/><stop offset="1" stop-color="#FFCA00" stop-opacity="0"/></linearGradient><linearGradient id="m" x1="474.256" x2="379.492" y1="11.247" y2="11.247" gradientUnits="userSpaceOnUse"><stop stop-color="#fff"/><stop offset="1" stop-color="#FFCA00" stop-opacity="0"/></linearGradient><linearGradient id="n" x1="474.983" x2="569.747" y1="45.357" y2="45.357" gradientUnits="userSpaceOnUse"><stop stop-color="#fff"/><stop offset="1" stop-color="#FFCA00" stop-opacity="0"/></linearGradient><linearGradient id="o" x1="569.38" x2="474.616" y1="11.247" y2="11.247" gradientUnits="userSpaceOnUse"><stop stop-color="#fff"/><stop offset="1" stop-color="#FFCA00" stop-opacity="0"/></linearGradient><linearGradient id="p" x1="-.636" x2="94.127" y1="108.024" y2="108.024" gradientUnits="userSpaceOnUse"><stop stop-color="#fff"/><stop offset="1" stop-color="#FFCA00" stop-opacity="0"/></linearGradient><linearGradient id="q" x1="93.76" x2="-1.004" y1="73.914" y2="73.914" gradientUnits="userSpaceOnUse"><stop stop-color="#fff"/><stop offset="1" stop-color="#FFCA00" stop-opacity="0"/></linearGradient><linearGradient id="r" x1="94.487" x2="189.251" y1="108.024" y2="108.024" gradientUnits="userSpaceOnUse"><stop stop-color="#fff"/><stop offset="1" stop-color="#FFCA00" stop-opacity="0"/></linearGradient><linearGradient id="s" x1="188.884" x2="94.12" y1="73.914" y2="73.914" gradientUnits="userSpaceOnUse"><stop stop-color="#fff"/><stop offset="1" stop-color="#FFCA00" stop-opacity="0"/></linearGradient><linearGradient id="t" x1="189.611" x2="284.375" y1="108.024" y2="108.024" gradientUnits="userSpaceOnUse"><stop stop-color="#fff"/><stop offset="1" stop-color="#FFCA00" stop-opacity="0"/></linearGradient><linearGradient id="u" x1="284.008" x2="189.244" y1="73.914" y2="73.914" gradientUnits="userSpaceOnUse"><stop stop-color="#fff"/><stop offset="1" stop-color="#FFCA00" stop-opacity="0"/></linearGradient><linearGradient id="v" x1="284.735" x2="379.499" y1="108.024" y2="108.024" gradientUnits="userSpaceOnUse"><stop stop-color="#fff"/><stop offset="1" stop-color="#FFCA00" stop-opacity="0"/></linearGradient><linearGradient id="w" x1="379.132" x2="284.368" y1="73.914" y2="73.914" gradientUnits="userSpaceOnUse"><stop stop-color="#fff"/><stop offset="1" stop-color="#FFCA00" stop-opacity="0"/></linearGradient><linearGradient id="x" x1="379.859" x2="474.623" y1="108.024" y2="108.024" gradientUnits="userSpaceOnUse"><stop stop-color="#fff"/><stop offset="1" stop-color="#FFCA00" stop-opacity="0"/></linearGradient><linearGradient id="y" x1="474.256" x2="379.492" y1="73.914" y2="73.914" gradientUnits="userSpaceOnUse"><stop stop-color="#fff"/><stop offset="1" stop-color="#FFCA00" stop-opacity="0"/></linearGradient><linearGradient id="z" x1="474.983" x2="569.747" y1="108.024" y2="108.024" gradientUnits="userSpaceOnUse"><stop stop-color="#fff"/><stop offset="1" stop-color="#FFCA00" stop-opacity="0"/></linearGradient><linearGradient id="A" x1="569.38" x2="474.616" y1="73.914" y2="73.914" gradientUnits="userSpaceOnUse"><stop stop-color="#fff"/><stop offset="1" stop-color="#FFCA00" stop-opacity="0"/></linearGradient><linearGradient id="B" x1="-.636" x2="94.127" y1="-24.449" y2="-24.449" gradientUnits="userSpaceOnUse"><stop stop-color="#fff"/><stop offset="1" stop-color="#FFCA00" stop-opacity="0"/></linearGradient><linearGradient id="C" x1="94.487" x2="189.251" y1="-24.449" y2="-24.449" gradientUnits="userSpaceOnUse"><stop stop-color="#fff"/><stop offset="1" stop-color="#FFCA00" stop-opacity="0"/></linearGradient><linearGradient id="D" x1="189.611" x2="284.375" y1="-24.449" y2="-24.449" gradientUnits="userSpaceOnUse"><stop stop-color="#fff"/><stop offset="1" stop-color="#FFCA00" stop-opacity="0"/></linearGradient><linearGradient id="E" x1="284.735" x2="379.499" y1="-24.449" y2="-24.449" gradientUnits="userSpaceOnUse"><stop stop-color="#fff"/><stop offset="1" stop-color="#FFCA00" stop-opacity="0"/></linearGradient><linearGradient id="F" x1="379.859" x2="474.623" y1="-24.449" y2="-24.449" gradientUnits="userSpaceOnUse"><stop stop-color="#fff"/><stop offset="1" stop-color="#FFCA00" stop-opacity="0"/></linearGradient><linearGradient id="G" x1="474.983" x2="569.747" y1="-24.449" y2="-24.449" gradientUnits="userSpaceOnUse"><stop stop-color="#fff"/><stop offset="1" stop-color="#FFCA00" stop-opacity="0"/></linearGradient><radialGradient id="b" cx="0" cy="0" r="1" gradientTransform="rotate(-38.07 319.248 24.19)scale(477.605)" gradientUnits="userSpaceOnUse"><stop stop-color="#fff"/><stop offset="1" stop-color="#D9D9D9" stop-opacity="0"/></radialGradient><clipPath id="a"><path fill="#fff" d="M-1 0h593v84H-1z"/></clipPath></defs></svg>