<svg xmlns="http://www.w3.org/2000/svg" width="237" height="60" fill="none"><g clip-path="url(#a)"><mask id="c" width="238" height="131" x="-1" y="-46" maskUnits="userSpaceOnUse" style="mask-type:alpha"><path fill="url(#b)" d="M-1-45.675h237.102V84.671H-1z"/></mask><g mask="url(#c)"><path fill="url(#d)" d="M-.855 71.765s7.96.213 10.206 2.459c2.24 2.239 2.453 10.155 2.453 10.155s.195-7.897 2.46-10.156c2.257-2.264 22.77-2.458 22.77-2.458s-20.487-.17-22.77-2.453c-2.29-2.29-2.46-10.074-2.46-10.074s-.194 7.81-2.453 10.074C7.087 71.576-.855 71.765-.855 71.765"/><path fill="url(#e)" d="M36.889 58.126s-7.96.214-10.207 2.46C24.444 62.824 24.23 70.74 24.23 70.74s-.195-7.898-2.46-10.156C19.513 58.321-1 58.126-1 58.126s20.487-.17 22.77-2.453c2.29-2.29 2.46-10.074 2.46-10.074s.194 7.81 2.453 10.075c2.264 2.264 10.206 2.452 10.206 2.452"/><path fill="url(#f)" d="M37.18 71.765s7.96.213 10.206 2.459c2.24 2.239 2.452 10.155 2.452 10.155s.195-7.897 2.46-10.156c2.258-2.264 22.77-2.459 22.77-2.459s-20.487-.169-22.77-2.452c-2.29-2.29-2.46-10.075-2.46-10.075s-.194 7.81-2.452 10.075c-2.265 2.264-10.206 2.453-10.206 2.453"/><path fill="url(#g)" d="M74.923 58.126s-7.96.214-10.207 2.46c-2.239 2.239-2.452 10.155-2.452 10.155s-.195-7.898-2.46-10.156c-2.258-2.264-22.77-2.459-22.77-2.459s20.487-.17 22.77-2.453c2.29-2.29 2.46-10.074 2.46-10.074s.194 7.81 2.452 10.075c2.265 2.264 10.207 2.452 10.207 2.452"/><path fill="url(#h)" d="M75.214 71.765s7.96.213 10.206 2.459c2.24 2.239 2.452 10.155 2.452 10.155s.195-7.897 2.46-10.156c2.258-2.264 22.77-2.459 22.77-2.459s-20.487-.169-22.77-2.452c-2.29-2.29-2.46-10.074-2.46-10.074s-.194 7.81-2.452 10.074c-2.265 2.264-10.206 2.453-10.206 2.453"/><path fill="url(#i)" d="M112.957 58.126s-7.961.214-10.206 2.46c-2.24 2.239-2.453 10.155-2.453 10.155s-.194-7.898-2.459-10.156c-2.258-2.264-22.77-2.459-22.77-2.459s20.487-.17 22.77-2.453c2.29-2.29 2.459-10.074 2.459-10.074s.194 7.81 2.453 10.075c2.264 2.264 10.206 2.452 10.206 2.452"/><path fill="url(#j)" d="M113.248 71.765s7.96.213 10.206 2.459c2.239 2.239 2.452 10.155 2.452 10.155s.195-7.897 2.459-10.156c2.259-2.264 22.771-2.459 22.771-2.459s-20.487-.169-22.771-2.452c-2.289-2.29-2.459-10.075-2.459-10.075s-.194 7.81-2.452 10.075c-2.265 2.264-10.206 2.453-10.206 2.453"/><path fill="url(#k)" d="M150.991 58.126s-7.961.214-10.206 2.46c-2.24 2.239-2.453 10.155-2.453 10.155s-.195-7.898-2.459-10.156c-2.258-2.264-22.771-2.459-22.771-2.459s20.488-.17 22.771-2.453c2.29-2.29 2.459-10.074 2.459-10.074s.194 7.81 2.453 10.075c2.264 2.264 10.206 2.452 10.206 2.452"/><path fill="url(#l)" d="M151.281 71.765s7.961.213 10.207 2.459c2.239 2.239 2.452 10.155 2.452 10.155s.195-7.897 2.459-10.155c2.259-2.265 22.771-2.46 22.771-2.46s-20.487-.169-22.771-2.452c-2.289-2.29-2.459-10.074-2.459-10.074s-.194 7.81-2.452 10.074c-2.265 2.264-10.207 2.453-10.207 2.453"/><path fill="url(#m)" d="M189.025 58.126s-7.96.214-10.206 2.46c-2.24 2.239-2.453 10.155-2.453 10.155s-.194-7.898-2.459-10.156c-2.258-2.264-22.771-2.459-22.771-2.459s20.488-.17 22.771-2.453c2.29-2.29 2.459-10.074 2.459-10.074s.195 7.81 2.453 10.075c2.264 2.264 10.206 2.452 10.206 2.452"/><path fill="url(#n)" d="M189.316 71.765s7.96.213 10.206 2.459c2.239 2.239 2.452 10.155 2.452 10.155s.195-7.897 2.459-10.156c2.259-2.264 22.771-2.459 22.771-2.459s-20.487-.169-22.771-2.452c-2.289-2.29-2.459-10.075-2.459-10.075s-.194 7.81-2.452 10.075c-2.265 2.264-10.206 2.453-10.206 2.453"/><path fill="url(#o)" d="M227.059 58.126s-7.961.214-10.206 2.46c-2.24 2.239-2.453 10.155-2.453 10.155s-.195-7.898-2.459-10.156c-2.258-2.264-22.771-2.459-22.771-2.459s20.487-.17 22.771-2.453C214.23 53.384 214.4 45.6 214.4 45.6s.194 7.81 2.453 10.075c2.264 2.264 10.206 2.452 10.206 2.452"/><path fill="url(#p)" d="M-.855 18.797s7.96.213 10.206 2.46c2.24 2.239 2.453 10.155 2.453 10.155s.195-7.898 2.46-10.156c2.257-2.264 22.77-2.459 22.77-2.459s-20.487-.17-22.77-2.453c-2.29-2.29-2.46-10.074-2.46-10.074s-.194 7.81-2.453 10.075C7.087 18.609-.855 18.797-.855 18.797"/><path fill="url(#q)" d="M36.889 5.159s-7.96.213-10.207 2.459c-2.239 2.24-2.452 10.156-2.452 10.156s-.195-7.898-2.46-10.156C19.513 5.353-1 5.158-1 5.158s20.487-.168 22.77-2.452c2.29-2.29 2.46-10.074 2.46-10.074s.194 7.81 2.453 10.074C28.947 4.971 36.889 5.16 36.889 5.16"/><path fill="url(#r)" d="M37.18 18.797s7.96.213 10.205 2.46c2.24 2.239 2.453 10.155 2.453 10.155s.195-7.898 2.46-10.156c2.257-2.264 22.77-2.459 22.77-2.459s-20.487-.17-22.77-2.453c-2.29-2.29-2.46-10.074-2.46-10.074s-.194 7.81-2.453 10.075c-2.264 2.264-10.206 2.452-10.206 2.452"/><path fill="url(#s)" d="M74.923 5.159s-7.96.213-10.207 2.459c-2.239 2.24-2.452 10.156-2.452 10.156s-.195-7.898-2.46-10.156c-2.258-2.265-22.77-2.46-22.77-2.46s20.487-.168 22.77-2.452c2.29-2.29 2.46-10.074 2.46-10.074s.194 7.81 2.452 10.074C66.981 4.971 74.923 5.16 74.923 5.16"/><path fill="url(#t)" d="M75.213 18.797s7.96.213 10.206 2.46c2.24 2.239 2.453 10.155 2.453 10.155s.195-7.898 2.459-10.156c2.258-2.264 22.771-2.459 22.771-2.459s-20.488-.17-22.771-2.453c-2.29-2.29-2.459-10.074-2.459-10.074s-.194 7.81-2.453 10.075c-2.264 2.264-10.206 2.452-10.206 2.452"/><path fill="url(#u)" d="M112.957 5.159s-7.961.213-10.207 2.459c-2.239 2.24-2.452 10.156-2.452 10.156s-.195-7.898-2.46-10.156c-2.257-2.265-22.77-2.46-22.77-2.46s20.487-.168 22.77-2.452c2.29-2.29 2.46-10.074 2.46-10.074s.194 7.81 2.452 10.074c2.265 2.265 10.207 2.453 10.207 2.453"/><path fill="url(#v)" d="M113.247 18.798s7.961.213 10.206 2.459c2.24 2.239 2.453 10.155 2.453 10.155s.195-7.897 2.459-10.155c2.258-2.265 22.771-2.46 22.771-2.46s-20.488-.169-22.771-2.452c-2.29-2.29-2.459-10.075-2.459-10.075s-.194 7.81-2.453 10.075c-2.264 2.264-10.206 2.453-10.206 2.453"/><path fill="url(#w)" d="M150.99 5.159s-7.96.213-10.206 2.459c-2.239 2.24-2.452 10.156-2.452 10.156s-.195-7.898-2.459-10.156c-2.259-2.265-22.771-2.46-22.771-2.46s20.487-.168 22.771-2.452c2.289-2.29 2.459-10.074 2.459-10.074s.194 7.81 2.452 10.074c2.265 2.265 10.206 2.453 10.206 2.453"/><path fill="url(#x)" d="M151.281 18.797s7.961.213 10.206 2.46c2.24 2.239 2.453 10.155 2.453 10.155s.195-7.898 2.459-10.156c2.258-2.264 22.771-2.459 22.771-2.459s-20.488-.17-22.771-2.453c-2.29-2.29-2.459-10.074-2.459-10.074s-.194 7.81-2.453 10.075c-2.264 2.264-10.206 2.452-10.206 2.452"/><path fill="url(#y)" d="M189.024 5.159s-7.96.213-10.206 2.459c-2.239 2.24-2.452 10.156-2.452 10.156s-.195-7.898-2.459-10.156c-2.259-2.265-22.771-2.46-22.771-2.46s20.487-.168 22.771-2.452c2.289-2.29 2.459-10.074 2.459-10.074s.194 7.81 2.452 10.074c2.265 2.265 10.206 2.453 10.206 2.453"/><path fill="url(#z)" d="M189.315 18.797s7.961.213 10.206 2.46c2.24 2.239 2.453 10.155 2.453 10.155s.194-7.898 2.459-10.156c2.258-2.264 22.771-2.459 22.771-2.459s-20.488-.17-22.771-2.453c-2.29-2.29-2.459-10.074-2.459-10.074s-.194 7.81-2.453 10.075c-2.264 2.264-10.206 2.452-10.206 2.452"/><path fill="url(#A)" d="M227.058 5.159s-7.96.213-10.206 2.459c-2.239 2.24-2.452 10.156-2.452 10.156s-.195-7.898-2.459-10.156c-2.259-2.265-22.771-2.46-22.771-2.46s20.487-.168 22.771-2.452C214.23.416 214.4-7.368 214.4-7.368s.194 7.81 2.452 10.074c2.265 2.265 10.206 2.453 10.206 2.453"/><path fill="url(#B)" d="M-.855 43.854s7.96.213 10.206 2.459c2.24 2.239 2.453 10.155 2.453 10.155s.195-7.897 2.46-10.156c2.257-2.264 22.77-2.458 22.77-2.458s-20.487-.17-22.77-2.453c-2.29-2.29-2.46-10.075-2.46-10.075s-.194 7.81-2.453 10.075C7.087 43.665-.855 43.854-.855 43.854"/><path fill="url(#C)" d="M36.889 30.215s-7.96.213-10.207 2.46C24.444 34.913 24.23 42.83 24.23 42.83s-.195-7.898-2.46-10.156C19.513 30.41-1 30.215-1 30.215s20.487-.17 22.77-2.453c2.29-2.29 2.46-10.074 2.46-10.074s.194 7.81 2.453 10.075c2.264 2.264 10.206 2.452 10.206 2.452"/><path fill="url(#D)" d="M37.18 43.854s7.96.213 10.206 2.459c2.24 2.239 2.452 10.155 2.452 10.155s.195-7.897 2.46-10.156c2.258-2.264 22.77-2.459 22.77-2.459s-20.487-.169-22.77-2.452c-2.29-2.29-2.46-10.075-2.46-10.075s-.194 7.81-2.452 10.075c-2.265 2.264-10.206 2.452-10.206 2.452"/><path fill="url(#E)" d="M74.923 30.215s-7.96.214-10.207 2.46c-2.239 2.239-2.452 10.155-2.452 10.155s-.195-7.898-2.46-10.156c-2.258-2.264-22.77-2.459-22.77-2.459s20.487-.17 22.77-2.452c2.29-2.29 2.46-10.075 2.46-10.075s.194 7.81 2.452 10.075c2.265 2.264 10.207 2.452 10.207 2.452"/><path fill="url(#F)" d="M75.214 43.854s7.96.213 10.206 2.459c2.24 2.24 2.452 10.155 2.452 10.155s.195-7.897 2.46-10.155c2.258-2.265 22.77-2.46 22.77-2.46s-20.487-.169-22.77-2.452c-2.29-2.29-2.46-10.074-2.46-10.074s-.194 7.81-2.452 10.074c-2.265 2.264-10.206 2.453-10.206 2.453"/><path fill="url(#G)" d="M112.957 30.215s-7.961.214-10.206 2.46c-2.24 2.239-2.453 10.155-2.453 10.155s-.194-7.898-2.459-10.156c-2.258-2.264-22.77-2.459-22.77-2.459s20.487-.17 22.77-2.452c2.29-2.29 2.459-10.075 2.459-10.075s.194 7.81 2.453 10.075c2.264 2.264 10.206 2.452 10.206 2.452"/><path fill="url(#H)" d="M113.248 43.854s7.96.213 10.206 2.459c2.239 2.239 2.452 10.155 2.452 10.155s.195-7.897 2.459-10.155c2.259-2.265 22.771-2.46 22.771-2.46s-20.487-.169-22.771-2.452c-2.289-2.29-2.459-10.075-2.459-10.075s-.194 7.81-2.452 10.075c-2.265 2.264-10.206 2.453-10.206 2.453"/><path fill="url(#I)" d="M150.991 30.215s-7.961.214-10.206 2.46c-2.24 2.239-2.453 10.155-2.453 10.155s-.195-7.898-2.459-10.156c-2.258-2.264-22.771-2.459-22.771-2.459s20.488-.17 22.771-2.452c2.29-2.29 2.459-10.075 2.459-10.075s.194 7.81 2.453 10.075c2.264 2.264 10.206 2.452 10.206 2.452"/><path fill="url(#J)" d="M151.281 43.854s7.961.213 10.207 2.459c2.239 2.239 2.452 10.155 2.452 10.155s.195-7.897 2.459-10.155c2.259-2.265 22.771-2.46 22.771-2.46s-20.487-.169-22.771-2.452c-2.289-2.29-2.459-10.075-2.459-10.075s-.194 7.81-2.452 10.075c-2.265 2.264-10.207 2.453-10.207 2.453"/><path fill="url(#K)" d="M189.025 30.215s-7.96.213-10.206 2.46c-2.24 2.239-2.453 10.155-2.453 10.155s-.194-7.898-2.459-10.156c-2.258-2.264-22.771-2.459-22.771-2.459s20.488-.17 22.771-2.453c2.29-2.29 2.459-10.074 2.459-10.074s.195 7.81 2.453 10.075c2.264 2.264 10.206 2.452 10.206 2.452"/><path fill="url(#L)" d="M189.316 43.854s7.96.213 10.206 2.459c2.239 2.239 2.452 10.155 2.452 10.155s.195-7.897 2.459-10.156c2.259-2.264 22.771-2.459 22.771-2.459s-20.487-.169-22.771-2.452c-2.289-2.29-2.459-10.075-2.459-10.075s-.194 7.81-2.452 10.075c-2.265 2.264-10.206 2.452-10.206 2.452"/><path fill="url(#M)" d="M227.059 30.215s-7.961.214-10.206 2.46c-2.24 2.239-2.453 10.155-2.453 10.155s-.195-7.898-2.459-10.156c-2.258-2.264-22.771-2.459-22.771-2.459s20.487-.17 22.771-2.452c2.289-2.29 2.459-10.075 2.459-10.075s.194 7.81 2.453 10.075c2.264 2.264 10.206 2.452 10.206 2.452"/><path fill="url(#N)" d="M-.855-9.114s7.96.214 10.206 2.46C11.591-4.416 11.804 3.5 11.804 3.5S12-4.397 14.264-6.655c2.257-2.264 22.77-2.459 22.77-2.459s-20.487-.17-22.77-2.452c-2.29-2.29-2.46-10.075-2.46-10.075s-.194 7.81-2.453 10.074C7.087-9.301-.855-9.113-.855-9.113"/><path fill="url(#O)" d="M37.18-9.114s7.96.214 10.206 2.46C49.626-4.416 49.838 3.5 49.838 3.5s.195-7.897 2.46-10.156c2.258-2.264 22.77-2.459 22.77-2.459s-20.487-.17-22.77-2.452c-2.29-2.29-2.46-10.075-2.46-10.075s-.194 7.81-2.452 10.075C45.12-9.302 37.18-9.114 37.18-9.114"/><path fill="url(#P)" d="M75.214-9.113s7.96.213 10.206 2.459C87.66-4.415 87.872 3.5 87.872 3.5s.195-7.897 2.46-10.155c2.258-2.265 22.77-2.46 22.77-2.46s-20.487-.169-22.77-2.452c-2.29-2.29-2.46-10.074-2.46-10.074s-.194 7.81-2.452 10.074c-2.265 2.264-10.206 2.453-10.206 2.453"/><path fill="url(#Q)" d="M113.247-9.114s7.961.214 10.206 2.46c2.24 2.239 2.453 10.155 2.453 10.155s.195-7.898 2.459-10.156c2.258-2.264 22.771-2.459 22.771-2.459s-20.488-.17-22.771-2.452c-2.29-2.29-2.459-10.075-2.459-10.075s-.194 7.81-2.453 10.074c-2.264 2.265-10.206 2.453-10.206 2.453"/><path fill="url(#R)" d="M151.281-9.113s7.96.213 10.206 2.459C163.727-4.415 163.94 3.5 163.94 3.5s.194-7.897 2.459-10.155c2.258-2.265 22.771-2.46 22.771-2.46s-20.488-.169-22.771-2.452c-2.29-2.29-2.459-10.074-2.459-10.074s-.195 7.81-2.453 10.074c-2.264 2.264-10.206 2.453-10.206 2.453"/><path fill="url(#S)" d="M189.315-9.114s7.961.213 10.207 2.46c2.239 2.239 2.452 10.155 2.452 10.155s.195-7.898 2.459-10.156c2.258-2.264 22.771-2.459 22.771-2.459s-20.487-.17-22.771-2.453c-2.289-2.29-2.459-10.074-2.459-10.074s-.194 7.81-2.452 10.074c-2.265 2.265-10.207 2.453-10.207 2.453"/></g></g><defs><linearGradient id="d" x1="-.855" x2="37.035" y1="71.809" y2="71.809" gradientUnits="userSpaceOnUse"><stop stop-color="#fff"/><stop offset="1" stop-color="#FFCA00" stop-opacity="0"/></linearGradient><linearGradient id="e" x1="36.889" x2="-1.001" y1="58.17" y2="58.17" gradientUnits="userSpaceOnUse"><stop stop-color="#fff"/><stop offset="1" stop-color="#FFCA00" stop-opacity="0"/></linearGradient><linearGradient id="f" x1="37.18" x2="75.07" y1="71.809" y2="71.809" gradientUnits="userSpaceOnUse"><stop stop-color="#fff"/><stop offset="1" stop-color="#FFCA00" stop-opacity="0"/></linearGradient><linearGradient id="g" x1="74.922" x2="37.032" y1="58.17" y2="58.17" gradientUnits="userSpaceOnUse"><stop stop-color="#fff"/><stop offset="1" stop-color="#FFCA00" stop-opacity="0"/></linearGradient><linearGradient id="h" x1="75.214" x2="113.104" y1="71.809" y2="71.809" gradientUnits="userSpaceOnUse"><stop stop-color="#fff"/><stop offset="1" stop-color="#FFCA00" stop-opacity="0"/></linearGradient><linearGradient id="i" x1="112.957" x2="75.067" y1="58.17" y2="58.17" gradientUnits="userSpaceOnUse"><stop stop-color="#fff"/><stop offset="1" stop-color="#FFCA00" stop-opacity="0"/></linearGradient><linearGradient id="j" x1="113.248" x2="151.138" y1="71.809" y2="71.809" gradientUnits="userSpaceOnUse"><stop stop-color="#fff"/><stop offset="1" stop-color="#FFCA00" stop-opacity="0"/></linearGradient><linearGradient id="k" x1="150.991" x2="113.101" y1="58.17" y2="58.17" gradientUnits="userSpaceOnUse"><stop stop-color="#fff"/><stop offset="1" stop-color="#FFCA00" stop-opacity="0"/></linearGradient><linearGradient id="l" x1="151.281" x2="189.171" y1="71.809" y2="71.809" gradientUnits="userSpaceOnUse"><stop stop-color="#fff"/><stop offset="1" stop-color="#FFCA00" stop-opacity="0"/></linearGradient><linearGradient id="m" x1="189.025" x2="151.135" y1="58.17" y2="58.17" gradientUnits="userSpaceOnUse"><stop stop-color="#fff"/><stop offset="1" stop-color="#FFCA00" stop-opacity="0"/></linearGradient><linearGradient id="n" x1="189.316" x2="227.206" y1="71.809" y2="71.809" gradientUnits="userSpaceOnUse"><stop stop-color="#fff"/><stop offset="1" stop-color="#FFCA00" stop-opacity="0"/></linearGradient><linearGradient id="o" x1="227.059" x2="189.169" y1="58.17" y2="58.17" gradientUnits="userSpaceOnUse"><stop stop-color="#fff"/><stop offset="1" stop-color="#FFCA00" stop-opacity="0"/></linearGradient><linearGradient id="p" x1="-.855" x2="37.035" y1="18.841" y2="18.841" gradientUnits="userSpaceOnUse"><stop stop-color="#fff"/><stop offset="1" stop-color="#FFCA00" stop-opacity="0"/></linearGradient><linearGradient id="q" x1="36.889" x2="-1.001" y1="5.203" y2="5.203" gradientUnits="userSpaceOnUse"><stop stop-color="#fff"/><stop offset="1" stop-color="#FFCA00" stop-opacity="0"/></linearGradient><linearGradient id="r" x1="37.179" x2="75.069" y1="18.841" y2="18.841" gradientUnits="userSpaceOnUse"><stop stop-color="#fff"/><stop offset="1" stop-color="#FFCA00" stop-opacity="0"/></linearGradient><linearGradient id="s" x1="74.922" x2="37.032" y1="5.203" y2="5.203" gradientUnits="userSpaceOnUse"><stop stop-color="#fff"/><stop offset="1" stop-color="#FFCA00" stop-opacity="0"/></linearGradient><linearGradient id="t" x1="75.213" x2="113.103" y1="18.841" y2="18.841" gradientUnits="userSpaceOnUse"><stop stop-color="#fff"/><stop offset="1" stop-color="#FFCA00" stop-opacity="0"/></linearGradient><linearGradient id="u" x1="112.957" x2="75.067" y1="5.203" y2="5.203" gradientUnits="userSpaceOnUse"><stop stop-color="#fff"/><stop offset="1" stop-color="#FFCA00" stop-opacity="0"/></linearGradient><linearGradient id="v" x1="113.247" x2="151.137" y1="18.842" y2="18.842" gradientUnits="userSpaceOnUse"><stop stop-color="#fff"/><stop offset="1" stop-color="#FFCA00" stop-opacity="0"/></linearGradient><linearGradient id="w" x1="150.99" x2="113.101" y1="5.203" y2="5.203" gradientUnits="userSpaceOnUse"><stop stop-color="#fff"/><stop offset="1" stop-color="#FFCA00" stop-opacity="0"/></linearGradient><linearGradient id="x" x1="151.281" x2="189.171" y1="18.841" y2="18.841" gradientUnits="userSpaceOnUse"><stop stop-color="#fff"/><stop offset="1" stop-color="#FFCA00" stop-opacity="0"/></linearGradient><linearGradient id="y" x1="189.024" x2="151.134" y1="5.203" y2="5.203" gradientUnits="userSpaceOnUse"><stop stop-color="#fff"/><stop offset="1" stop-color="#FFCA00" stop-opacity="0"/></linearGradient><linearGradient id="z" x1="189.315" x2="227.205" y1="18.841" y2="18.841" gradientUnits="userSpaceOnUse"><stop stop-color="#fff"/><stop offset="1" stop-color="#FFCA00" stop-opacity="0"/></linearGradient><linearGradient id="A" x1="227.058" x2="189.168" y1="5.203" y2="5.203" gradientUnits="userSpaceOnUse"><stop stop-color="#fff"/><stop offset="1" stop-color="#FFCA00" stop-opacity="0"/></linearGradient><linearGradient id="B" x1="-.855" x2="37.035" y1="43.898" y2="43.898" gradientUnits="userSpaceOnUse"><stop stop-color="#fff"/><stop offset="1" stop-color="#FFCA00" stop-opacity="0"/></linearGradient><linearGradient id="C" x1="36.889" x2="-1.001" y1="30.259" y2="30.259" gradientUnits="userSpaceOnUse"><stop stop-color="#fff"/><stop offset="1" stop-color="#FFCA00" stop-opacity="0"/></linearGradient><linearGradient id="D" x1="37.18" x2="75.07" y1="43.898" y2="43.898" gradientUnits="userSpaceOnUse"><stop stop-color="#fff"/><stop offset="1" stop-color="#FFCA00" stop-opacity="0"/></linearGradient><linearGradient id="E" x1="74.922" x2="37.032" y1="30.259" y2="30.259" gradientUnits="userSpaceOnUse"><stop stop-color="#fff"/><stop offset="1" stop-color="#FFCA00" stop-opacity="0"/></linearGradient><linearGradient id="F" x1="75.214" x2="113.104" y1="43.898" y2="43.898" gradientUnits="userSpaceOnUse"><stop stop-color="#fff"/><stop offset="1" stop-color="#FFCA00" stop-opacity="0"/></linearGradient><linearGradient id="G" x1="112.957" x2="75.067" y1="30.259" y2="30.259" gradientUnits="userSpaceOnUse"><stop stop-color="#fff"/><stop offset="1" stop-color="#FFCA00" stop-opacity="0"/></linearGradient><linearGradient id="H" x1="113.248" x2="151.138" y1="43.898" y2="43.898" gradientUnits="userSpaceOnUse"><stop stop-color="#fff"/><stop offset="1" stop-color="#FFCA00" stop-opacity="0"/></linearGradient><linearGradient id="I" x1="150.991" x2="113.101" y1="30.259" y2="30.259" gradientUnits="userSpaceOnUse"><stop stop-color="#fff"/><stop offset="1" stop-color="#FFCA00" stop-opacity="0"/></linearGradient><linearGradient id="J" x1="151.281" x2="189.171" y1="43.898" y2="43.898" gradientUnits="userSpaceOnUse"><stop stop-color="#fff"/><stop offset="1" stop-color="#FFCA00" stop-opacity="0"/></linearGradient><linearGradient id="K" x1="189.025" x2="151.135" y1="30.259" y2="30.259" gradientUnits="userSpaceOnUse"><stop stop-color="#fff"/><stop offset="1" stop-color="#FFCA00" stop-opacity="0"/></linearGradient><linearGradient id="L" x1="189.316" x2="227.206" y1="43.898" y2="43.898" gradientUnits="userSpaceOnUse"><stop stop-color="#fff"/><stop offset="1" stop-color="#FFCA00" stop-opacity="0"/></linearGradient><linearGradient id="M" x1="227.059" x2="189.169" y1="30.259" y2="30.259" gradientUnits="userSpaceOnUse"><stop stop-color="#fff"/><stop offset="1" stop-color="#FFCA00" stop-opacity="0"/></linearGradient><linearGradient id="N" x1="-.855" x2="37.035" y1="-9.07" y2="-9.07" gradientUnits="userSpaceOnUse"><stop stop-color="#fff"/><stop offset="1" stop-color="#FFCA00" stop-opacity="0"/></linearGradient><linearGradient id="O" x1="37.18" x2="75.07" y1="-9.069" y2="-9.069" gradientUnits="userSpaceOnUse"><stop stop-color="#fff"/><stop offset="1" stop-color="#FFCA00" stop-opacity="0"/></linearGradient><linearGradient id="P" x1="75.214" x2="113.104" y1="-9.069" y2="-9.069" gradientUnits="userSpaceOnUse"><stop stop-color="#fff"/><stop offset="1" stop-color="#FFCA00" stop-opacity="0"/></linearGradient><linearGradient id="Q" x1="113.247" x2="151.137" y1="-9.07" y2="-9.07" gradientUnits="userSpaceOnUse"><stop stop-color="#fff"/><stop offset="1" stop-color="#FFCA00" stop-opacity="0"/></linearGradient><linearGradient id="R" x1="151.281" x2="189.171" y1="-9.069" y2="-9.069" gradientUnits="userSpaceOnUse"><stop stop-color="#fff"/><stop offset="1" stop-color="#FFCA00" stop-opacity="0"/></linearGradient><linearGradient id="S" x1="189.315" x2="227.205" y1="-9.07" y2="-9.07" gradientUnits="userSpaceOnUse"><stop stop-color="#fff"/><stop offset="1" stop-color="#FFCA00" stop-opacity="0"/></linearGradient><radialGradient id="b" cx="0" cy="0" r="1" gradientTransform="rotate(-38.07 128.37 10.895)scale(190.963)" gradientUnits="userSpaceOnUse"><stop stop-color="#fff"/><stop offset="1" stop-color="#D9D9D9" stop-opacity="0"/></radialGradient><clipPath id="a"><path fill="#fff" d="M-1 .706h237.385V60H-1z"/></clipPath></defs></svg>