<svg xmlns="http://www.w3.org/2000/svg" width="45" height="45" fill="none"><path fill="#818181" fill-rule="evenodd" d="M29.407 0H15.593C2.985 0 0 2.985 0 15.593v13.814C0 42.015 2.985 45 15.593 45h13.814C42.015 45 45 42.015 45 29.407V15.593C45 2.985 42.015 0 29.407 0" clip-rule="evenodd" opacity=".5"/><path fill="#fff" d="M26.579 16.524H14V31h3.501v-4.71h6.708L27.27 31h3.92l-3.375-4.732q1.572-.26 2.264-1.237c.462-.65.692-1.692.692-3.081v-1.086c0-.824-.084-1.476-.23-1.975a3.3 3.3 0 0 0-.755-1.324 3.4 3.4 0 0 0-1.3-.803c-.503-.152-1.132-.238-1.908-.238m-.567 6.576H17.5v-3.386h8.511c.483 0 .818.087.986.239.167.152.272.434.272.846v1.216c0 .434-.105.716-.272.868s-.503.217-.986.217"/><path fill="#F41240" d="M31.19 15.619a1.81 1.81 0 1 0 0-3.619 1.81 1.81 0 0 0 0 3.619"/></svg>