<svg xmlns="http://www.w3.org/2000/svg" width="605" height="240" fill="none"><path fill="#F9B34B" d="M0 20C0 8.954 8.954 0 20 0h565c11.046 0 20 8.954 20 20v220H0z"/><g opacity=".6"><path fill="url(#a)" d="m205.15 163.8 12.051-19.536s5.929-2.062 7.775-.197c1.701 1.718-.291 7.854-.291 7.854z"/><path fill="url(#b)" d="m293.733 75.217-12.052 19.537s-5.929 2.062-7.775.196c-1.701-1.718.291-7.854.291-7.854z"/><path fill="url(#c)" fill-rule="evenodd" d="M230.869 138.807C213.515 121.453 152 119.805 152 119.805s61.37-1.454 78.869-18.954C248.32 83.351 249.823 23 249.823 23s1.309 60.158 19.002 77.851c17.645 17.645 175.966 18.954 175.966 18.954s-158.515 1.503-175.966 19.002c-17.499 17.451-19.002 78.482-19.002 78.482s-1.648-61.176-18.954-78.482m-15.947-18.759c33.205 0 34.756 23.025 34.756 41.785 0-34.32 7.95-41.252 57.977-41.591-37.326 0-55.892-5.43-57.783-30.928.049-2.763-.194-4.556-.194-4.556 0 1.6.097 3.102.194 4.556-.242 9.502-4.217 30.734-34.95 30.734" clip-rule="evenodd"/></g><defs><linearGradient id="a" x1="240.16" x2="205.381" y1="135.365" y2="175.806" gradientUnits="userSpaceOnUse"><stop stop-color="#fff"/><stop offset="1" stop-color="#FFCA00"/></linearGradient><linearGradient id="b" x1="273.212" x2="293.732" y1="85.464" y2="85.464" gradientUnits="userSpaceOnUse"><stop stop-color="#fff"/><stop offset="1" stop-color="#FFCA00"/></linearGradient><linearGradient id="c" x1="152" x2="444.802" y1="120.147" y2="120.147" gradientUnits="userSpaceOnUse"><stop stop-color="#fff"/><stop offset="1" stop-color="#FFCA00"/></linearGradient></defs></svg>