<svg xmlns="http://www.w3.org/2000/svg" width="60" height="60" fill="none"><path fill="#EA762C" fill-rule="evenodd" d="M39.21 0H20.79C3.98 0 0 3.98 0 20.79v18.42C0 56.02 3.98 60 20.79 60h18.42C56.02 60 60 56.02 60 39.21V20.79C60 3.98 56.02 0 39.21 0" clip-rule="evenodd"/><mask id="a" width="60" height="60" x="0" y="0" maskUnits="userSpaceOnUse" style="mask-type:alpha"><path fill="#EA762C" fill-rule="evenodd" d="M39.21 0H20.79C3.98 0 0 3.98 0 20.79v18.42C0 56.02 3.98 60 20.79 60h18.42C56.02 60 60 56.02 60 39.21V20.79C60 3.98 56.02 0 39.21 0" clip-rule="evenodd"/></mask><g mask="url(#a)"><path fill="#C9BDBD" d="m5.347 16 36.667-2.666 20 46.666h-46c-.006-10.467-.353-21.283-.667-26-.667-10-7.333-16-10-18"/><path fill="#F3F3F3" d="M11.989 8.1c20.924-.636 35.03 1.756 54.667 7.334l1.333 46-44.667-.667V33.434c0-8.667-4-21.333-11.333-25.333"/><path stroke="#353433" stroke-width="2" d="M33.321 24c9.338 1.222 23.704 2.613 26.667 2.613m-26.667 8.49c10.081.791 21.482 1.306 26.667 1.306M33.32 45.55h26.667M33.32 56.001l26.667-1.307" opacity=".3"/></g></svg>