<svg xmlns="http://www.w3.org/2000/svg" width="45" height="45" fill="none"><g clip-path="url(#a)"><mask id="b" width="45" height="45" x="0" y="0" maskUnits="userSpaceOnUse" style="mask-type:luminance"><path fill="#fff" d="M33.75 0h-22.5C5.037 0 0 5.037 0 11.25v22.5C0 39.963 5.037 45 11.25 45h22.5C39.963 45 45 39.963 45 33.75v-22.5C45 5.037 39.963 0 33.75 0"/></mask><g fill="#07F" mask="url(#b)"><path fill-opacity=".1" d="M0 21.6C0 11.418 0 6.326 3.163 3.163S11.418 0 21.6 0h1.8c10.182 0 15.273 0 18.437 3.163C45 6.326 45 11.418 45 21.6v1.8c0 10.182 0 15.273-3.163 18.437C38.673 45 33.582 45 23.4 45h-1.8c-10.182 0-15.274 0-18.437-3.163C0 38.673 0 33.582 0 23.4z"/><path d="M24.024 32.531c-10.135 0-16.283-7.044-16.524-18.75h5.133c.16 8.599 4.065 12.243 7.058 12.992V13.78h4.919v7.42c2.887-.32 5.91-3.695 6.925-7.42h4.841c-.774 4.58-4.064 7.956-6.389 9.348 2.326 1.126 6.07 4.073 7.513 9.402h-5.321c-1.124-3.562-3.877-6.322-7.568-6.696v6.696z"/></g></g><defs><clipPath id="a"><path fill="#fff" d="M0 0h45v45H0z"/></clipPath></defs></svg>