<svg width="604" height="240" viewBox="0 0 604 240" fill="none" xmlns="http://www.w3.org/2000/svg">
<g clip-path="url(#clip0_1_1409)">
<path d="M0 -81.5946C0.684891 -81.5814 1.36682 -81.5933 2.0571 -81.6304C12.5106 -82.1221 21.9461 -88.0406 27.5455 -96.8911L67.8507 -160.666C74.032 -170.445 88.2851 -170.445 94.4663 -160.666C110.338 -135.553 134.753 -96.9275 134.753 -96.9275C140.644 -87.6035 150.788 -81.594 161.805 -81.5757C162.351 -81.5757 162.914 -81.594 163.46 -81.6122C173.913 -82.1039 183.349 -88.0224 188.948 -96.8729L229.144 -160.447C235.38 -170.317 249.76 -170.317 255.996 -160.447L296.21 -96.8183C301.81 -87.9496 311.3 -82.0674 321.772 -81.594C322.517 -81.5622 323.259 -81.5547 324 -81.5714V-39.4293C318.579 -39.1538 313.038 -41.6144 309.755 -46.8112L269.54 -110.44C263.923 -119.327 254.414 -125.209 243.925 -125.664C242.907 -125.719 241.907 -125.719 240.889 -125.664C230.435 -125.173 221 -119.254 215.4 -110.404L175.095 -46.6291C168.914 -36.8498 154.661 -36.8498 148.479 -46.6291C132.608 -71.7419 108.192 -110.367 108.192 -110.367C102.302 -119.691 92.1575 -125.701 81.1404 -125.719C80.595 -125.719 80.0314 -125.701 79.486 -125.682C69.0325 -125.191 59.597 -119.272 53.9975 -110.422L13.8014 -46.8476C10.6078 -41.7926 5.27797 -39.3265 0 -39.4493V-81.5946Z" fill="white" fill-opacity="0.1"/>
<path d="M324 408.576C318.579 408.852 313.038 406.391 309.755 401.195L269.54 337.566C263.923 328.679 254.414 322.797 243.925 322.341C242.906 322.287 241.907 322.287 240.888 322.341C230.435 322.833 220.999 328.752 215.4 337.602L175.095 401.377C168.914 411.156 154.66 411.156 148.479 401.377C132.608 376.264 108.192 337.639 108.192 337.639C102.302 328.315 92.1574 322.305 81.1402 322.287C80.5948 322.287 80.0313 322.305 79.4859 322.323C69.0323 322.815 59.5969 328.733 53.9974 337.584L13.8013 401.158C10.6077 406.213 5.27794 408.679 0 408.557V366.429C0.68486 366.443 1.36674 366.431 2.05698 366.394C12.5105 365.902 21.946 359.983 27.5454 351.133L67.8506 287.358C74.0318 277.579 88.285 277.579 94.4662 287.358C110.337 312.471 134.753 351.096 134.753 351.096C140.644 360.42 150.788 366.43 161.805 366.448C162.351 366.448 162.914 366.43 163.46 366.412C173.913 365.92 183.349 360.002 188.948 351.151L229.144 287.577C235.38 277.707 249.76 277.707 255.996 287.577L296.21 351.206C301.81 360.074 311.3 365.957 321.772 366.43C322.517 366.462 323.259 366.469 324 366.453V408.576Z" fill="white" fill-opacity="0.1"/>
<path d="M324 314.151C323.259 314.167 322.517 314.16 321.772 314.128C311.3 313.655 301.81 307.773 296.21 298.904L255.996 235.275C249.76 225.405 235.38 225.405 229.144 235.275L188.948 298.849C183.349 307.7 173.913 313.618 163.46 314.11C162.914 314.128 162.351 314.146 161.805 314.146C150.788 314.128 140.644 308.119 134.753 298.795C134.753 298.795 110.337 260.169 94.4662 235.057C88.285 225.277 74.0318 225.277 67.8506 235.057L27.5454 298.831C21.946 307.682 12.5105 313.6 2.05698 314.092C1.36674 314.129 0.68486 314.141 0 314.128V356.273C5.27794 356.396 10.6077 353.93 13.8013 348.875L53.9974 285.3C59.5969 276.45 69.0323 270.531 79.4859 270.04C80.0313 270.021 80.5948 270.003 81.1402 270.003C92.1574 270.021 102.302 276.031 108.192 285.355C108.192 285.355 132.608 323.98 148.479 349.093C154.66 358.872 168.914 358.872 175.095 349.093L215.4 285.319C220.999 276.468 230.435 270.55 240.888 270.058C241.907 270.003 242.906 270.003 243.925 270.058C254.414 270.513 263.923 276.395 269.54 285.282L309.755 348.911C313.038 354.108 318.579 356.568 324 356.293V314.151Z" fill="white" fill-opacity="0.1"/>
<path d="M324 273.178C318.579 273.454 313.038 270.993 309.755 265.797L269.54 202.168C263.923 193.281 254.414 187.399 243.925 186.943C242.906 186.889 241.907 186.889 240.888 186.943C230.435 187.435 220.999 193.354 215.4 202.204L175.095 265.979C168.914 275.758 154.66 275.758 148.479 265.979C132.608 240.866 108.192 202.241 108.192 202.241C102.302 192.917 92.1574 186.907 81.1402 186.889C80.5948 186.889 80.0313 186.907 79.4859 186.925C69.0323 187.417 59.5969 193.336 53.9974 202.186L13.8013 265.76C10.6077 270.815 5.27794 273.281 0 273.159V231.031C0.68486 231.045 1.36674 231.033 2.05698 230.996C12.5105 230.504 21.946 224.585 27.5454 215.735L67.8506 151.96C74.0318 142.181 88.285 142.181 94.4662 151.96C110.337 177.073 134.753 215.698 134.753 215.698C140.644 225.022 150.788 231.032 161.805 231.05C162.351 231.05 162.914 231.032 163.46 231.014C173.913 230.522 183.349 224.604 188.948 215.753L229.144 152.179C235.38 142.309 249.76 142.309 255.996 152.179L296.21 215.808C301.81 224.676 311.3 230.559 321.772 231.032C322.517 231.064 323.259 231.071 324 231.055V273.178Z" fill="white" fill-opacity="0.1"/>
<path d="M324 178.753C323.259 178.77 322.517 178.762 321.772 178.73C311.3 178.257 301.81 172.375 296.21 163.506L255.996 99.8774C249.76 90.0071 235.38 90.0071 229.144 99.8774L189.003 163.452C183.403 172.302 173.968 178.221 163.514 178.712C162.969 178.73 162.405 178.749 161.86 178.749C150.843 178.73 140.698 172.721 134.808 163.397C134.808 163.397 110.392 124.772 94.5208 99.6589C88.3396 89.8796 74.0864 89.8796 67.9052 99.6589L27.5818 163.452C21.9824 172.302 12.5469 178.221 2.09334 178.712C1.39088 178.75 0.697083 178.762 0 178.747V220.857C5.27794 220.98 10.6077 218.514 13.8013 213.459L53.9974 149.884C59.5969 141.034 69.0324 135.115 79.4859 134.624C80.0313 134.606 80.5949 134.587 81.1403 134.587C92.1574 134.606 102.302 140.615 108.192 149.939C108.192 149.939 132.608 188.564 148.479 213.677C154.66 223.456 168.914 223.456 175.095 213.677L215.4 149.903C220.999 141.052 230.435 135.134 240.888 134.642C241.907 134.587 242.906 134.587 243.925 134.642C254.414 135.097 263.923 140.979 269.54 149.866L309.755 213.495C313.038 218.692 318.579 221.152 324 220.877V178.753Z" fill="white" fill-opacity="0.1"/>
<path d="M324 139.875C318.579 140.15 313.038 137.69 309.755 132.493L269.54 68.8642C263.923 59.9773 254.414 54.0952 243.925 53.6399C242.906 53.5853 241.907 53.5853 240.888 53.6399C230.435 54.1316 220.999 60.0502 215.4 68.9006L175.095 132.675C168.914 142.454 154.66 142.454 148.479 132.675C132.608 107.562 108.192 68.9371 108.192 68.9371C102.302 59.6131 92.1574 53.6035 81.1402 53.5853C80.5948 53.5853 80.0313 53.6035 79.4859 53.6217C69.0323 54.1134 59.5969 60.0319 53.9974 68.8824L13.8013 132.457C10.6077 137.512 5.27794 139.978 0 139.855V97.7096C0.68486 97.7228 1.36674 97.7109 2.05698 97.6738C12.5105 97.1821 21.946 91.2636 27.5454 82.4131L67.8506 18.6386C74.0318 8.85939 88.285 8.85939 94.4662 18.6386C110.337 43.7514 134.753 82.3767 134.753 82.3767C140.644 91.7007 150.788 97.7102 161.805 97.7284C162.351 97.7284 162.914 97.7102 163.46 97.692C173.913 97.2003 183.349 91.2818 188.948 82.4313L229.144 18.8572C235.38 8.98686 249.76 8.98686 255.996 18.8572L296.21 82.486C301.81 91.3546 311.3 97.2368 321.772 97.7102C322.517 97.742 323.259 97.7495 324 97.7328V139.875Z" fill="white" fill-opacity="0.1"/>
<path d="M324 45.4494C323.259 45.4661 322.517 45.4586 321.771 45.4268C311.3 44.9533 301.81 39.0712 296.21 30.2025L255.996 -33.4263C249.76 -43.2966 235.38 -43.2966 229.144 -33.4263L189.003 30.1479C183.403 38.9983 173.968 44.9169 163.514 45.4086C162.969 45.4268 162.405 45.445 161.86 45.445C150.843 45.4268 140.698 39.4172 134.808 30.0932C134.808 30.0932 110.392 -8.53203 94.5208 -33.6448C88.3395 -43.4241 74.0864 -43.4241 67.9052 -33.6448L27.5818 30.1479C21.9823 38.9983 12.5469 44.9169 2.09332 45.4086C1.39087 45.4463 0.697083 45.458 0 45.4436V87.5715C5.27794 87.6942 10.6077 85.2281 13.8013 80.1731L53.9974 16.599C59.5969 7.74849 69.0323 1.82996 79.4859 1.33826C80.0313 1.32005 80.5948 1.30183 81.1402 1.30183C92.1574 1.32004 102.302 7.32964 108.192 16.6536C108.192 16.6536 132.608 55.2789 148.479 80.3917C154.66 90.1709 168.914 90.1709 175.095 80.3917L215.4 16.6172C220.999 7.76669 230.435 1.84818 240.888 1.35648C241.906 1.30185 242.906 1.30185 243.924 1.35648C254.414 1.81175 263.923 7.69385 269.54 16.5808L309.754 80.2095C313.038 85.4064 318.579 87.867 324 87.5914V45.4494Z" fill="white" fill-opacity="0.1"/>
<path d="M324 12.8541C318.579 13.1297 313.038 10.6691 309.754 5.47224L269.54 -58.1565C263.923 -67.0434 254.414 -72.9256 243.924 -73.3808C242.906 -73.4355 241.906 -73.4355 240.888 -73.3808C230.435 -72.8891 220.999 -66.9706 215.4 -58.1201L175.095 5.65436C168.914 15.4336 154.66 15.4336 148.479 5.65436C132.608 -19.4584 108.192 -58.0837 108.192 -58.0837C102.302 -67.4077 92.1574 -73.4172 81.1402 -73.4355C80.5948 -73.4355 80.0313 -73.4172 79.4859 -73.399C69.0323 -72.9073 59.5969 -66.9888 53.9974 -58.1383L13.8013 5.43584C10.6077 10.4908 5.27794 12.9569 0 12.8342V-29.3112C0.68486 -29.298 1.36674 -29.3099 2.05698 -29.347C12.5105 -29.8387 21.946 -35.7572 27.5454 -44.6077L67.8506 -108.382C74.0318 -118.161 88.285 -118.161 94.4662 -108.382C110.337 -83.2693 134.753 -44.6441 134.753 -44.6441C140.644 -35.3201 150.788 -29.3105 161.805 -29.2923C162.351 -29.2923 162.914 -29.3105 163.46 -29.3287C173.913 -29.8204 183.349 -35.739 188.948 -44.5894L229.144 -108.164C235.38 -118.034 249.76 -118.034 255.996 -108.164L296.21 -44.5348C301.81 -35.6661 311.3 -29.784 321.771 -29.3105C322.517 -29.2787 323.259 -29.2712 324 -29.2879V12.8541Z" fill="white" fill-opacity="0.1"/>
<path d="M324 -81.5946C324.685 -81.5814 325.367 -81.5933 326.057 -81.6304C336.511 -82.1221 345.946 -88.0406 351.546 -96.8911L391.851 -160.666C398.032 -170.445 412.285 -170.445 418.466 -160.666C434.338 -135.553 458.753 -96.9275 458.753 -96.9275C464.644 -87.6035 474.788 -81.594 485.805 -81.5757C486.351 -81.5757 486.914 -81.594 487.46 -81.6122C497.913 -82.1039 507.349 -88.0224 512.948 -96.8729L553.144 -160.447C559.38 -170.317 573.76 -170.317 579.996 -160.447L620.21 -96.8183C625.81 -87.9496 635.3 -82.0674 645.772 -81.594C646.517 -81.5622 647.259 -81.5547 648 -81.5714V-39.4293C642.579 -39.1538 637.038 -41.6144 633.755 -46.8112L593.54 -110.44C587.923 -119.327 578.414 -125.209 567.925 -125.664C566.907 -125.719 565.907 -125.719 564.889 -125.664C554.435 -125.173 545 -119.254 539.4 -110.404L499.095 -46.6291C492.914 -36.8498 478.661 -36.8498 472.479 -46.6291C456.608 -71.7419 432.192 -110.367 432.192 -110.367C426.302 -119.691 416.157 -125.701 405.14 -125.719C404.595 -125.719 404.031 -125.701 403.486 -125.682C393.032 -125.191 383.597 -119.272 377.998 -110.422L337.801 -46.8476C334.608 -41.7926 329.278 -39.3265 324 -39.4493V-81.5946Z" fill="white" fill-opacity="0.1"/>
<path d="M648 408.576C642.579 408.852 637.038 406.391 633.755 401.195L593.54 337.566C587.923 328.679 578.414 322.797 567.925 322.341C566.906 322.287 565.907 322.287 564.888 322.341C554.435 322.833 544.999 328.752 539.4 337.602L499.095 401.377C492.914 411.156 478.66 411.156 472.479 401.377C456.608 376.264 432.192 337.639 432.192 337.639C426.302 328.315 416.157 322.305 405.14 322.287C404.595 322.287 404.031 322.305 403.486 322.323C393.032 322.815 383.597 328.733 377.997 337.584L337.801 401.158C334.608 406.213 329.278 408.679 324 408.557V366.429C324.685 366.443 325.367 366.431 326.057 366.394C336.511 365.902 345.946 359.983 351.545 351.133L391.851 287.358C398.032 277.579 412.285 277.579 418.466 287.358C434.337 312.471 458.753 351.096 458.753 351.096C464.644 360.42 474.788 366.43 485.805 366.448C486.351 366.448 486.914 366.43 487.46 366.412C497.913 365.92 507.349 360.002 512.948 351.151L553.144 287.577C559.38 277.707 573.76 277.707 579.996 287.577L620.21 351.206C625.81 360.074 635.3 365.957 645.772 366.43C646.517 366.462 647.259 366.469 648 366.453V408.576Z" fill="white" fill-opacity="0.1"/>
<path d="M648 314.151C647.259 314.167 646.517 314.16 645.772 314.128C635.3 313.655 625.81 307.773 620.21 298.904L579.996 235.275C573.76 225.405 559.38 225.405 553.144 235.275L512.948 298.849C507.349 307.7 497.913 313.618 487.46 314.11C486.914 314.128 486.351 314.146 485.805 314.146C474.788 314.128 464.644 308.119 458.753 298.795C458.753 298.795 434.337 260.169 418.466 235.057C412.285 225.277 398.032 225.277 391.851 235.057L351.545 298.831C345.946 307.682 336.511 313.6 326.057 314.092C325.367 314.129 324.685 314.141 324 314.128V356.273C329.278 356.396 334.608 353.93 337.801 348.875L377.997 285.3C383.597 276.45 393.032 270.531 403.486 270.04C404.031 270.021 404.595 270.003 405.14 270.003C416.157 270.021 426.302 276.031 432.192 285.355C432.192 285.355 456.608 323.98 472.479 349.093C478.66 358.872 492.914 358.872 499.095 349.093L539.4 285.319C544.999 276.468 554.435 270.55 564.888 270.058C565.907 270.003 566.906 270.003 567.925 270.058C578.414 270.513 587.923 276.395 593.54 285.282L633.755 348.911C637.038 354.108 642.579 356.568 648 356.293V314.151Z" fill="white" fill-opacity="0.1"/>
<path d="M648 273.178C642.579 273.454 637.038 270.993 633.755 265.797L593.54 202.168C587.923 193.281 578.414 187.399 567.925 186.943C566.906 186.889 565.907 186.889 564.888 186.943C554.435 187.435 544.999 193.354 539.4 202.204L499.095 265.979C492.914 275.758 478.66 275.758 472.479 265.979C456.608 240.866 432.192 202.241 432.192 202.241C426.302 192.917 416.157 186.907 405.14 186.889C404.595 186.889 404.031 186.907 403.486 186.925C393.032 187.417 383.597 193.336 377.997 202.186L337.801 265.76C334.608 270.815 329.278 273.281 324 273.159V231.031C324.685 231.045 325.367 231.033 326.057 230.996C336.511 230.504 345.946 224.585 351.545 215.735L391.851 151.96C398.032 142.181 412.285 142.181 418.466 151.96C434.337 177.073 458.753 215.698 458.753 215.698C464.644 225.022 474.788 231.032 485.805 231.05C486.351 231.05 486.914 231.032 487.46 231.014C497.913 230.522 507.349 224.604 512.948 215.753L553.144 152.179C559.38 142.309 573.76 142.309 579.996 152.179L620.21 215.808C625.81 224.676 635.3 230.559 645.772 231.032C646.517 231.064 647.259 231.071 648 231.055V273.178Z" fill="white" fill-opacity="0.1"/>
<path d="M648 178.753C647.259 178.77 646.517 178.762 645.772 178.73C635.3 178.257 625.81 172.375 620.21 163.506L579.996 99.8774C573.76 90.0071 559.38 90.0071 553.144 99.8774L513.003 163.452C507.403 172.302 497.968 178.221 487.514 178.712C486.969 178.73 486.405 178.749 485.86 178.749C474.843 178.73 464.698 172.721 458.808 163.397C458.808 163.397 434.392 124.772 418.521 99.6589C412.34 89.8796 398.086 89.8796 391.905 99.6589L351.582 163.452C345.982 172.302 336.547 178.221 326.093 178.712C325.391 178.75 324.697 178.762 324 178.747V220.857C329.278 220.98 334.608 218.514 337.801 213.459L377.997 149.884C383.597 141.034 393.032 135.115 403.486 134.624C404.031 134.606 404.595 134.587 405.14 134.587C416.157 134.606 426.302 140.615 432.192 149.939C432.192 149.939 456.608 188.564 472.479 213.677C478.66 223.456 492.914 223.456 499.095 213.677L539.4 149.903C544.999 141.052 554.435 135.134 564.888 134.642C565.907 134.587 566.906 134.587 567.925 134.642C578.414 135.097 587.923 140.979 593.54 149.866L633.755 213.495C637.038 218.692 642.579 221.152 648 220.877V178.753Z" fill="white" fill-opacity="0.1"/>
<path d="M648 139.875C642.579 140.15 637.038 137.69 633.755 132.493L593.54 68.8642C587.923 59.9773 578.414 54.0952 567.925 53.6399C566.906 53.5853 565.907 53.5853 564.888 53.6399C554.435 54.1316 544.999 60.0502 539.4 68.9006L499.095 132.675C492.914 142.454 478.66 142.454 472.479 132.675C456.608 107.562 432.192 68.9371 432.192 68.9371C426.302 59.6131 416.157 53.6035 405.14 53.5853C404.595 53.5853 404.031 53.6035 403.486 53.6217C393.032 54.1134 383.597 60.0319 377.997 68.8824L337.801 132.457C334.608 137.512 329.278 139.978 324 139.855V97.7096C324.685 97.7228 325.367 97.7109 326.057 97.6738C336.511 97.1821 345.946 91.2636 351.545 82.4131L391.851 18.6386C398.032 8.85939 412.285 8.85939 418.466 18.6386C434.337 43.7514 458.753 82.3767 458.753 82.3767C464.644 91.7007 474.788 97.7102 485.805 97.7284C486.351 97.7284 486.914 97.7102 487.46 97.692C497.913 97.2003 507.349 91.2818 512.948 82.4313L553.144 18.8572C559.38 8.98686 573.76 8.98686 579.996 18.8572L620.21 82.486C625.81 91.3546 635.3 97.2368 645.772 97.7102C646.517 97.742 647.259 97.7495 648 97.7328V139.875Z" fill="white" fill-opacity="0.1"/>
<path d="M648 45.4494C647.259 45.4661 646.517 45.4586 645.771 45.4268C635.3 44.9533 625.81 39.0712 620.21 30.2025L579.996 -33.4263C573.76 -43.2966 559.38 -43.2966 553.144 -33.4263L513.003 30.1479C507.403 38.9983 497.968 44.9169 487.514 45.4086C486.969 45.4268 486.405 45.445 485.86 45.445C474.843 45.4268 464.698 39.4172 458.808 30.0932C458.808 30.0932 434.392 -8.53203 418.521 -33.6448C412.34 -43.4241 398.086 -43.4241 391.905 -33.6448L351.582 30.1479C345.982 38.9983 336.547 44.9169 326.093 45.4086C325.391 45.4463 324.697 45.458 324 45.4436V87.5715C329.278 87.6942 334.608 85.2281 337.801 80.1731L377.997 16.599C383.597 7.74849 393.032 1.82996 403.486 1.33826C404.031 1.32005 404.595 1.30183 405.14 1.30183C416.157 1.32004 426.302 7.32964 432.192 16.6536C432.192 16.6536 456.608 55.2789 472.479 80.3917C478.66 90.1709 492.914 90.1709 499.095 80.3917L539.4 16.6172C544.999 7.76669 554.435 1.84818 564.888 1.35648C565.906 1.30185 566.906 1.30185 567.924 1.35648C578.414 1.81175 587.923 7.69385 593.54 16.5808L633.754 80.2095C637.038 85.4064 642.579 87.867 648 87.5914V45.4494Z" fill="white" fill-opacity="0.1"/>
<path d="M648 12.8541C642.579 13.1297 637.038 10.6691 633.754 5.47224L593.54 -58.1565C587.923 -67.0434 578.414 -72.9256 567.924 -73.3808C566.906 -73.4355 565.906 -73.4355 564.888 -73.3808C554.435 -72.8891 544.999 -66.9706 539.4 -58.1201L499.095 5.65436C492.914 15.4336 478.66 15.4336 472.479 5.65436C456.608 -19.4584 432.192 -58.0837 432.192 -58.0837C426.302 -67.4077 416.157 -73.4172 405.14 -73.4355C404.595 -73.4355 404.031 -73.4172 403.486 -73.399C393.032 -72.9073 383.597 -66.9888 377.997 -58.1383L337.801 5.43584C334.608 10.4908 329.278 12.9569 324 12.8342V-29.3112C324.685 -29.298 325.367 -29.3099 326.057 -29.347C336.511 -29.8387 345.946 -35.7572 351.545 -44.6077L391.851 -108.382C398.032 -118.161 412.285 -118.161 418.466 -108.382C434.337 -83.2693 458.753 -44.6441 458.753 -44.6441C464.644 -35.3201 474.788 -29.3105 485.805 -29.2923C486.351 -29.2923 486.914 -29.3105 487.46 -29.3287C497.913 -29.8204 507.349 -35.739 512.948 -44.5894L553.144 -108.164C559.38 -118.034 573.76 -118.034 579.996 -108.164L620.21 -44.5348C625.81 -35.6661 635.3 -29.784 645.771 -29.3105C646.517 -29.2787 647.259 -29.2712 648 -29.2879V12.8541Z" fill="white" fill-opacity="0.1"/>
<path d="M27 82.6L159.647 73L232 241H65.5882C65.5677 203.317 64.314 164.379 63.1765 147.4C60.7647 111.4 36.6471 89.8 27 82.6Z" fill="#FFCA00"/>
<path d="M51 54.36C126.589 52.0719 171.564 59.9452 242.5 80C253.195 141.798 253.052 177.017 251 240H91.9414V145.436C91.9414 114.278 77.4915 68.7404 51 54.36Z" fill="#F3F3F3"/>
<path d="M51 54.36C126.589 52.0719 171.564 59.9452 242.5 80C253.195 141.798 253.052 177.017 251 240H91.9414V145.436C91.9414 114.278 77.4915 68.7404 51 54.36Z" fill="url(#paint0_linear_1_1409)" fill-opacity="0.1"/>
<path opacity="0.3" d="M128 111C161.617 115.39 213.333 120.388 224 120.388M128 150.898C164.293 153.744 205.333 155.592 224 155.592M128 188.449H224M128 226L224 221.306" stroke="#353433" stroke-width="2"/>
<path d="M243.289 198.606L276.021 105.174C277.665 100.483 282.8 98.012 287.491 99.6554C292.182 101.299 294.652 106.434 293.009 111.125L260.277 204.557L243.289 198.606Z" fill="#FFCB00"/>
<path d="M244.509 222.344L243.289 198.606L260.277 204.557L244.509 222.344Z" fill="#353433"/>
</g>
<defs>
<linearGradient id="paint0_linear_1_1409" x1="151" y1="53.9764" x2="151" y2="240" gradientUnits="userSpaceOnUse">
<stop offset="0.588542" stop-color="#FF8800" stop-opacity="0"/>
<stop offset="1" stop-color="#FF8800"/>
</linearGradient>
<clipPath id="clip0_1_1409">
<rect width="604" height="240" fill="white"/>
</clipPath>
</defs>
</svg>
