<svg width="605" height="240" viewBox="0 0 605 240" fill="none" xmlns="http://www.w3.org/2000/svg">
<path d="M0 20C0 8.9543 8.9543 0 20 0H585C596.046 0 605 8.95431 605 20V240H0V20Z" fill="#F9B34B"/>
<g opacity="0.6">
<path d="M205.15 163.8L217.201 144.264C217.201 144.264 223.13 142.202 224.976 144.067C226.677 145.785 224.685 151.921 224.685 151.921L205.15 163.8Z" fill="url(#paint0_linear_1_1474)"/>
<path d="M293.733 75.2173L281.681 94.7539C281.681 94.7539 275.752 96.8156 273.906 94.9503C272.205 93.2322 274.197 87.0964 274.197 87.0964L293.733 75.2173Z" fill="url(#paint1_linear_1_1474)"/>
<path fill-rule="evenodd" clip-rule="evenodd" d="M230.869 138.807C213.515 121.453 152 119.805 152 119.805C152 119.805 213.37 118.351 230.869 100.851C248.32 83.3517 249.823 23 249.823 23C249.823 23 251.132 83.1578 268.825 100.851C286.47 118.496 444.791 119.805 444.791 119.805C444.791 119.805 286.276 121.308 268.825 138.807C251.326 156.258 249.823 217.289 249.823 217.289C249.823 217.289 248.175 156.113 230.869 138.807ZM214.922 120.048C248.127 120.048 249.678 143.073 249.678 161.833C249.678 127.513 257.628 120.581 307.655 120.242C270.329 120.242 251.763 114.812 249.872 89.3143C249.921 86.5512 249.678 84.7577 249.678 84.7577C249.678 86.3573 249.775 87.8601 249.872 89.3143C249.63 98.8155 245.655 120.048 214.922 120.048Z" fill="url(#paint2_linear_1_1474)"/>
</g>
<defs>
<linearGradient id="paint0_linear_1_1474" x1="240.16" y1="135.365" x2="205.381" y2="175.806" gradientUnits="userSpaceOnUse">
<stop stop-color="white"/>
<stop offset="1" stop-color="#FFCA00"/>
</linearGradient>
<linearGradient id="paint1_linear_1_1474" x1="273.212" y1="85.4641" x2="293.732" y2="85.4641" gradientUnits="userSpaceOnUse">
<stop stop-color="white"/>
<stop offset="1" stop-color="#FFCA00"/>
</linearGradient>
<linearGradient id="paint2_linear_1_1474" x1="152" y1="120.147" x2="444.802" y2="120.147" gradientUnits="userSpaceOnUse">
<stop stop-color="white"/>
<stop offset="1" stop-color="#FFCA00"/>
</linearGradient>
</defs>
</svg>
